SplineFontDB: 3.0
FontName: Perforama
FullName: Perforama
FamilyName: Perforama
Weight: Regular
Copyright: Copyright (c) 2010 by MRFrukta - Font Firma (Alexey Frolov). All rights reserved.
Version: 001.001
ItalicAngle: 0
UnderlinePosition: -100
UnderlineWidth: 50
Ascent: 750
Descent: 250
InvalidEm: 0
sfntRevision: 0x00010000
LayerCount: 2
Layer: 0 0 "Back" 1
Layer: 1 0 "Fore" 0
XUID: [1021 341 -181000376 16582]
StyleMap: 0x0040
FSType: 4
OS2Version: 2
OS2_WeightWidthSlopeOnly: 0
OS2_UseTypoMetrics: 0
CreationTime: 1288269489
ModificationTime: 1518270740
PfmFamily: 17
TTFWeight: 400
TTFWidth: 5
LineGap: 0
VLineGap: 0
Panose: 2 0 0 0 0 0 0 0 0 0
OS2TypoAscent: 750
OS2TypoAOffset: 0
OS2TypoDescent: -250
OS2TypoDOffset: 0
OS2TypoLinegap: 0
OS2WinAscent: 1122
OS2WinAOffset: 0
OS2WinDescent: 99
OS2WinDOffset: 0
HheadAscent: 750
HheadAOffset: 0
HheadDescent: -250
HheadDOffset: 0
OS2SubXSize: 700
OS2SubYSize: 650
OS2SubXOff: 0
OS2SubYOff: 140
OS2SupXSize: 700
OS2SupYSize: 650
OS2SupXOff: 0
OS2SupYOff: 477
OS2StrikeYSize: 50
OS2StrikeYPos: 250
OS2CapHeight: 700
OS2XHeight: 500
OS2Vendor: 'PYRS'
OS2CodePages: 00000004.00000000
OS2UnicodeRanges: 00000201.00000000.00000000.00000000
Lookup: 258 0 0 "'kern' Horizontal Kerning in Latin lookup 0" { "'kern' Horizontal Kerning in Latin lookup 0 subtable"  } ['kern' ('latn' <'dflt' > ) ]
DEI: 91125
LangName: 1033 "" "" "" "pyrs: Perforama: 2010" "" "Version 1.000 | www.behance.net/iam-MRfrukta" "" "Perforama is a trademark of MRFrukta - Font Firma (Alexey Frolov)." "MRFrukta - Font Firma (Alexey Frolov)" "Frolov Alexey" "Copyright (c) 2010 by MRFrukta - Font Firma (Alexey Frolov). All rights reserved." "http://www.behance.net/iam-MRfrukta" "http://www.behance.net/iam-MRfrukta" "Free typoface" "http://www.behance.net/iam-MRfrukta" "" "Perforama" "Regular"
Encoding: UnicodeBmp
UnicodeInterp: none
NameList: AGL For New Fonts
DisplaySize: -48
AntiAlias: 1
FitToEm: 0
WinInfo: 976 16 10
BeginPrivate: 2
BlueValues 21 [0 0 947 947 952 952]

StartChar: exclam
Encoding: 33 33 2
Width: 771
Flags: MW
HStem: 117 21G<427 427>
LayerCount: 2
Fore
SplineSet
483 200 m 1
 427 117 l 1
 419 121 l 2
 414 124 407 126 396 133 c 2
 329 171 l 2
 305 186 283 198 262 209 c 0
 242 220 231 227 229 229 c 0
 150 278 100 336 78 404 c 0
 57 474 56 540 77 601 c 0
 98 663 136 716 193 761 c 0
 250 805 317 827 392 826 c 0
 483 825 557 798 613 745 c 0
 669 692 703 631 715 560 c 0
 728 490 716 420 679 351 c 0
 643 282 578 232 483 200 c 1
194 587 m 1
 162 566 l 1
 194 422 l 1
 203 357 l 1
 225 351 l 1
 269 365 l 1
 229 498 l 1
 303 425 l 1
 337 435 l 1
 362 535 l 1
 383 409 l 1
 399 400 l 1
 447 417 l 1
 382 633 l 1
 340 617 l 1
 304 486 l 1
 194 587 l 1
545 679 m 1
 417 641 l 1
 469 453 l 1
 467 430 l 1
 483 424 l 1
 530 438 l 1
 508 511 l 1
 606 455 l 1
 620 455 l 1
 646 499 l 1
 569 540 l 1
 591 541 l 1
 615 583 l 1
 596 652 l 1
 545 679 l 1
491 567 m 1
 480 608 l 1
 531 624 l 1
 549 614 l 1
 550 594 l 1
 491 567 l 1
355 353 m 1
 335 319 l 1
 339 305 l 1
 333 299 l 1
 341 284 l 1
 348 288 l 1
 364 263 l 1
 384 272 l 1
 368 298 l 1
 378 304 l 1
 374 316 l 1
 360 313 l 1
 357 320 l 1
 373 345 l 1
 355 353 l 1
414 344 m 1
 375 327 l 1
 399 281 l 1
 419 290 l 1
 403 321 l 1
 421 325 l 1
 414 344 l 1
437 361 m 1
 417 349 l 1
 451 308 l 1
 494 329 l 1
 465 376 l 1
 448 367 l 1
 466 336 l 1
 459 328 l 1
 437 361 l 1
480 403 m 1
 461 395 l 1
 502 333 l 1
 516 341 l 1
 512 356 l 1
 527 346 l 1
 537 353 l 1
 538 367 l 1
 517 373 l 1
 524 393 l 1
 508 399 l 1
 500 377 l 1
 480 403 l 1
537 430 m 1
 520 424 l 1
 529 408 l 1
 521 404 l 1
 529 393 l 1
 535 395 l 1
 550 366 l 1
 562 364 l 1
 584 377 l 1
 583 389 l 1
 570 391 l 1
 562 385 l 1
 551 400 l 1
 562 406 l 1
 556 420 l 1
 545 416 l 1
 537 430 l 1
596 446 m 1
 565 427 l 1
 573 412 l 1
 595 427 l 1
 598 422 l 1
 578 409 l 1
 577 400 l 1
 589 384 l 1
 598 384 l 1
 638 405 l 1
 608 446 l 1
 596 446 l 1
601 399 m 1
 598 407 l 1
 609 416 l 1
 612 408 l 1
 601 399 l 1
EndSplineSet
EndChar

StartChar: quotedbl
Encoding: 34 34 3
Width: 771
Flags: MW
HStem: 117 21G<427 427>
LayerCount: 2
Fore
SplineSet
483 200 m 1
 427 117 l 1
 419 121 l 2
 414 124 407 126 396 133 c 2
 329 171 l 2
 305 186 283 198 262 209 c 0
 242 220 231 227 229 229 c 0
 150 278 100 336 78 404 c 0
 57 474 56 540 77 601 c 0
 98 663 136 716 193 761 c 0
 250 805 317 827 392 826 c 0
 483 825 557 798 613 745 c 0
 669 692 703 631 715 560 c 0
 728 490 716 420 679 351 c 0
 643 282 578 232 483 200 c 1
194 587 m 1
 162 566 l 1
 194 422 l 1
 203 357 l 1
 225 351 l 1
 269 365 l 1
 229 498 l 1
 303 425 l 1
 337 435 l 1
 362 535 l 1
 383 409 l 1
 399 400 l 1
 447 417 l 1
 382 633 l 1
 340 617 l 1
 304 486 l 1
 194 587 l 1
545 679 m 1
 417 641 l 1
 469 453 l 1
 467 430 l 1
 483 424 l 1
 530 438 l 1
 508 511 l 1
 606 455 l 1
 620 455 l 1
 646 499 l 1
 569 540 l 1
 591 541 l 1
 615 583 l 1
 596 652 l 1
 545 679 l 1
491 567 m 1
 480 608 l 1
 531 624 l 1
 549 614 l 1
 550 594 l 1
 491 567 l 1
355 353 m 1
 335 319 l 1
 339 305 l 1
 333 299 l 1
 341 284 l 1
 348 288 l 1
 364 263 l 1
 384 272 l 1
 368 298 l 1
 378 304 l 1
 374 316 l 1
 360 313 l 1
 357 320 l 1
 373 345 l 1
 355 353 l 1
414 344 m 1
 375 327 l 1
 399 281 l 1
 419 290 l 1
 403 321 l 1
 421 325 l 1
 414 344 l 1
437 361 m 1
 417 349 l 1
 451 308 l 1
 494 329 l 1
 465 376 l 1
 448 367 l 1
 466 336 l 1
 459 328 l 1
 437 361 l 1
480 403 m 1
 461 395 l 1
 502 333 l 1
 516 341 l 1
 512 356 l 1
 527 346 l 1
 537 353 l 1
 538 367 l 1
 517 373 l 1
 524 393 l 1
 508 399 l 1
 500 377 l 1
 480 403 l 1
537 430 m 1
 520 424 l 1
 529 408 l 1
 521 404 l 1
 529 393 l 1
 535 395 l 1
 550 366 l 1
 562 364 l 1
 584 377 l 1
 583 389 l 1
 570 391 l 1
 562 385 l 1
 551 400 l 1
 562 406 l 1
 556 420 l 1
 545 416 l 1
 537 430 l 1
596 446 m 1
 565 427 l 1
 573 412 l 1
 595 427 l 1
 598 422 l 1
 578 409 l 1
 577 400 l 1
 589 384 l 1
 598 384 l 1
 638 405 l 1
 608 446 l 1
 596 446 l 1
601 399 m 1
 598 407 l 1
 609 416 l 1
 612 408 l 1
 601 399 l 1
EndSplineSet
EndChar

StartChar: numbersign
Encoding: 35 35 4
Width: 771
Flags: MW
HStem: 117 21G<427 427>
LayerCount: 2
Fore
SplineSet
483 200 m 1
 427 117 l 1
 419 121 l 2
 414 124 407 126 396 133 c 2
 329 171 l 2
 305 186 283 198 262 209 c 0
 242 220 231 227 229 229 c 0
 150 278 100 336 78 404 c 0
 57 474 56 540 77 601 c 0
 98 663 136 716 193 761 c 0
 250 805 317 827 392 826 c 0
 483 825 557 798 613 745 c 0
 669 692 703 631 715 560 c 0
 728 490 716 420 679 351 c 0
 643 282 578 232 483 200 c 1
194 587 m 1
 162 566 l 1
 194 422 l 1
 203 357 l 1
 225 351 l 1
 269 365 l 1
 229 498 l 1
 303 425 l 1
 337 435 l 1
 362 535 l 1
 383 409 l 1
 399 400 l 1
 447 417 l 1
 382 633 l 1
 340 617 l 1
 304 486 l 1
 194 587 l 1
545 679 m 1
 417 641 l 1
 469 453 l 1
 467 430 l 1
 483 424 l 1
 530 438 l 1
 508 511 l 1
 606 455 l 1
 620 455 l 1
 646 499 l 1
 569 540 l 1
 591 541 l 1
 615 583 l 1
 596 652 l 1
 545 679 l 1
491 567 m 1
 480 608 l 1
 531 624 l 1
 549 614 l 1
 550 594 l 1
 491 567 l 1
355 353 m 1
 335 319 l 1
 339 305 l 1
 333 299 l 1
 341 284 l 1
 348 288 l 1
 364 263 l 1
 384 272 l 1
 368 298 l 1
 378 304 l 1
 374 316 l 1
 360 313 l 1
 357 320 l 1
 373 345 l 1
 355 353 l 1
414 344 m 1
 375 327 l 1
 399 281 l 1
 419 290 l 1
 403 321 l 1
 421 325 l 1
 414 344 l 1
437 361 m 1
 417 349 l 1
 451 308 l 1
 494 329 l 1
 465 376 l 1
 448 367 l 1
 466 336 l 1
 459 328 l 1
 437 361 l 1
480 403 m 1
 461 395 l 1
 502 333 l 1
 516 341 l 1
 512 356 l 1
 527 346 l 1
 537 353 l 1
 538 367 l 1
 517 373 l 1
 524 393 l 1
 508 399 l 1
 500 377 l 1
 480 403 l 1
537 430 m 1
 520 424 l 1
 529 408 l 1
 521 404 l 1
 529 393 l 1
 535 395 l 1
 550 366 l 1
 562 364 l 1
 584 377 l 1
 583 389 l 1
 570 391 l 1
 562 385 l 1
 551 400 l 1
 562 406 l 1
 556 420 l 1
 545 416 l 1
 537 430 l 1
596 446 m 1
 565 427 l 1
 573 412 l 1
 595 427 l 1
 598 422 l 1
 578 409 l 1
 577 400 l 1
 589 384 l 1
 598 384 l 1
 638 405 l 1
 608 446 l 1
 596 446 l 1
601 399 m 1
 598 407 l 1
 609 416 l 1
 612 408 l 1
 601 399 l 1
EndSplineSet
EndChar

StartChar: dollar
Encoding: 36 36 5
Width: 771
Flags: MW
HStem: 117 21G<427 427>
LayerCount: 2
Fore
SplineSet
483 200 m 1
 427 117 l 1
 419 121 l 2
 414 124 407 126 396 133 c 2
 329 171 l 2
 305 186 283 198 262 209 c 0
 242 220 231 227 229 229 c 0
 150 278 100 336 78 404 c 0
 57 474 56 540 77 601 c 0
 98 663 136 716 193 761 c 0
 250 805 317 827 392 826 c 0
 483 825 557 798 613 745 c 0
 669 692 703 631 715 560 c 0
 728 490 716 420 679 351 c 0
 643 282 578 232 483 200 c 1
194 587 m 1
 162 566 l 1
 194 422 l 1
 203 357 l 1
 225 351 l 1
 269 365 l 1
 229 498 l 1
 303 425 l 1
 337 435 l 1
 362 535 l 1
 383 409 l 1
 399 400 l 1
 447 417 l 1
 382 633 l 1
 340 617 l 1
 304 486 l 1
 194 587 l 1
545 679 m 1
 417 641 l 1
 469 453 l 1
 467 430 l 1
 483 424 l 1
 530 438 l 1
 508 511 l 1
 606 455 l 1
 620 455 l 1
 646 499 l 1
 569 540 l 1
 591 541 l 1
 615 583 l 1
 596 652 l 1
 545 679 l 1
491 567 m 1
 480 608 l 1
 531 624 l 1
 549 614 l 1
 550 594 l 1
 491 567 l 1
355 353 m 1
 335 319 l 1
 339 305 l 1
 333 299 l 1
 341 284 l 1
 348 288 l 1
 364 263 l 1
 384 272 l 1
 368 298 l 1
 378 304 l 1
 374 316 l 1
 360 313 l 1
 357 320 l 1
 373 345 l 1
 355 353 l 1
414 344 m 1
 375 327 l 1
 399 281 l 1
 419 290 l 1
 403 321 l 1
 421 325 l 1
 414 344 l 1
437 361 m 1
 417 349 l 1
 451 308 l 1
 494 329 l 1
 465 376 l 1
 448 367 l 1
 466 336 l 1
 459 328 l 1
 437 361 l 1
480 403 m 1
 461 395 l 1
 502 333 l 1
 516 341 l 1
 512 356 l 1
 527 346 l 1
 537 353 l 1
 538 367 l 1
 517 373 l 1
 524 393 l 1
 508 399 l 1
 500 377 l 1
 480 403 l 1
537 430 m 1
 520 424 l 1
 529 408 l 1
 521 404 l 1
 529 393 l 1
 535 395 l 1
 550 366 l 1
 562 364 l 1
 584 377 l 1
 583 389 l 1
 570 391 l 1
 562 385 l 1
 551 400 l 1
 562 406 l 1
 556 420 l 1
 545 416 l 1
 537 430 l 1
596 446 m 1
 565 427 l 1
 573 412 l 1
 595 427 l 1
 598 422 l 1
 578 409 l 1
 577 400 l 1
 589 384 l 1
 598 384 l 1
 638 405 l 1
 608 446 l 1
 596 446 l 1
601 399 m 1
 598 407 l 1
 609 416 l 1
 612 408 l 1
 601 399 l 1
EndSplineSet
EndChar

StartChar: percent
Encoding: 37 37 6
Width: 771
Flags: MW
HStem: 117 21G<427 427>
LayerCount: 2
Fore
SplineSet
483 200 m 1
 427 117 l 1
 419 121 l 2
 414 124 407 126 396 133 c 2
 329 171 l 2
 305 186 283 198 262 209 c 0
 242 220 231 227 229 229 c 0
 150 278 100 336 78 404 c 0
 57 474 56 540 77 601 c 0
 98 663 136 716 193 761 c 0
 250 805 317 827 392 826 c 0
 483 825 557 798 613 745 c 0
 669 692 703 631 715 560 c 0
 728 490 716 420 679 351 c 0
 643 282 578 232 483 200 c 1
194 587 m 1
 162 566 l 1
 194 422 l 1
 203 357 l 1
 225 351 l 1
 269 365 l 1
 229 498 l 1
 303 425 l 1
 337 435 l 1
 362 535 l 1
 383 409 l 1
 399 400 l 1
 447 417 l 1
 382 633 l 1
 340 617 l 1
 304 486 l 1
 194 587 l 1
545 679 m 1
 417 641 l 1
 469 453 l 1
 467 430 l 1
 483 424 l 1
 530 438 l 1
 508 511 l 1
 606 455 l 1
 620 455 l 1
 646 499 l 1
 569 540 l 1
 591 541 l 1
 615 583 l 1
 596 652 l 1
 545 679 l 1
491 567 m 1
 480 608 l 1
 531 624 l 1
 549 614 l 1
 550 594 l 1
 491 567 l 1
355 353 m 1
 335 319 l 1
 339 305 l 1
 333 299 l 1
 341 284 l 1
 348 288 l 1
 364 263 l 1
 384 272 l 1
 368 298 l 1
 378 304 l 1
 374 316 l 1
 360 313 l 1
 357 320 l 1
 373 345 l 1
 355 353 l 1
414 344 m 1
 375 327 l 1
 399 281 l 1
 419 290 l 1
 403 321 l 1
 421 325 l 1
 414 344 l 1
437 361 m 1
 417 349 l 1
 451 308 l 1
 494 329 l 1
 465 376 l 1
 448 367 l 1
 466 336 l 1
 459 328 l 1
 437 361 l 1
480 403 m 1
 461 395 l 1
 502 333 l 1
 516 341 l 1
 512 356 l 1
 527 346 l 1
 537 353 l 1
 538 367 l 1
 517 373 l 1
 524 393 l 1
 508 399 l 1
 500 377 l 1
 480 403 l 1
537 430 m 1
 520 424 l 1
 529 408 l 1
 521 404 l 1
 529 393 l 1
 535 395 l 1
 550 366 l 1
 562 364 l 1
 584 377 l 1
 583 389 l 1
 570 391 l 1
 562 385 l 1
 551 400 l 1
 562 406 l 1
 556 420 l 1
 545 416 l 1
 537 430 l 1
596 446 m 1
 565 427 l 1
 573 412 l 1
 595 427 l 1
 598 422 l 1
 578 409 l 1
 577 400 l 1
 589 384 l 1
 598 384 l 1
 638 405 l 1
 608 446 l 1
 596 446 l 1
601 399 m 1
 598 407 l 1
 609 416 l 1
 612 408 l 1
 601 399 l 1
EndSplineSet
EndChar

StartChar: ampersand
Encoding: 38 38 7
Width: 771
Flags: MW
HStem: 117 21G<427 427>
LayerCount: 2
Fore
SplineSet
483 200 m 1
 427 117 l 1
 419 121 l 2
 414 124 407 126 396 133 c 2
 329 171 l 2
 305 186 283 198 262 209 c 0
 242 220 231 227 229 229 c 0
 150 278 100 336 78 404 c 0
 57 474 56 540 77 601 c 0
 98 663 136 716 193 761 c 0
 250 805 317 827 392 826 c 0
 483 825 557 798 613 745 c 0
 669 692 703 631 715 560 c 0
 728 490 716 420 679 351 c 0
 643 282 578 232 483 200 c 1
194 587 m 1
 162 566 l 1
 194 422 l 1
 203 357 l 1
 225 351 l 1
 269 365 l 1
 229 498 l 1
 303 425 l 1
 337 435 l 1
 362 535 l 1
 383 409 l 1
 399 400 l 1
 447 417 l 1
 382 633 l 1
 340 617 l 1
 304 486 l 1
 194 587 l 1
545 679 m 1
 417 641 l 1
 469 453 l 1
 467 430 l 1
 483 424 l 1
 530 438 l 1
 508 511 l 1
 606 455 l 1
 620 455 l 1
 646 499 l 1
 569 540 l 1
 591 541 l 1
 615 583 l 1
 596 652 l 1
 545 679 l 1
491 567 m 1
 480 608 l 1
 531 624 l 1
 549 614 l 1
 550 594 l 1
 491 567 l 1
355 353 m 1
 335 319 l 1
 339 305 l 1
 333 299 l 1
 341 284 l 1
 348 288 l 1
 364 263 l 1
 384 272 l 1
 368 298 l 1
 378 304 l 1
 374 316 l 1
 360 313 l 1
 357 320 l 1
 373 345 l 1
 355 353 l 1
414 344 m 1
 375 327 l 1
 399 281 l 1
 419 290 l 1
 403 321 l 1
 421 325 l 1
 414 344 l 1
437 361 m 1
 417 349 l 1
 451 308 l 1
 494 329 l 1
 465 376 l 1
 448 367 l 1
 466 336 l 1
 459 328 l 1
 437 361 l 1
480 403 m 1
 461 395 l 1
 502 333 l 1
 516 341 l 1
 512 356 l 1
 527 346 l 1
 537 353 l 1
 538 367 l 1
 517 373 l 1
 524 393 l 1
 508 399 l 1
 500 377 l 1
 480 403 l 1
537 430 m 1
 520 424 l 1
 529 408 l 1
 521 404 l 1
 529 393 l 1
 535 395 l 1
 550 366 l 1
 562 364 l 1
 584 377 l 1
 583 389 l 1
 570 391 l 1
 562 385 l 1
 551 400 l 1
 562 406 l 1
 556 420 l 1
 545 416 l 1
 537 430 l 1
596 446 m 1
 565 427 l 1
 573 412 l 1
 595 427 l 1
 598 422 l 1
 578 409 l 1
 577 400 l 1
 589 384 l 1
 598 384 l 1
 638 405 l 1
 608 446 l 1
 596 446 l 1
601 399 m 1
 598 407 l 1
 609 416 l 1
 612 408 l 1
 601 399 l 1
EndSplineSet
EndChar

StartChar: quotesingle
Encoding: 39 39 8
Width: 771
Flags: MW
HStem: 117 21G<427 427>
LayerCount: 2
Fore
SplineSet
483 200 m 1
 427 117 l 1
 419 121 l 2
 414 124 407 126 396 133 c 2
 329 171 l 2
 305 186 283 198 262 209 c 0
 242 220 231 227 229 229 c 0
 150 278 100 336 78 404 c 0
 57 474 56 540 77 601 c 0
 98 663 136 716 193 761 c 0
 250 805 317 827 392 826 c 0
 483 825 557 798 613 745 c 0
 669 692 703 631 715 560 c 0
 728 490 716 420 679 351 c 0
 643 282 578 232 483 200 c 1
194 587 m 1
 162 566 l 1
 194 422 l 1
 203 357 l 1
 225 351 l 1
 269 365 l 1
 229 498 l 1
 303 425 l 1
 337 435 l 1
 362 535 l 1
 383 409 l 1
 399 400 l 1
 447 417 l 1
 382 633 l 1
 340 617 l 1
 304 486 l 1
 194 587 l 1
545 679 m 1
 417 641 l 1
 469 453 l 1
 467 430 l 1
 483 424 l 1
 530 438 l 1
 508 511 l 1
 606 455 l 1
 620 455 l 1
 646 499 l 1
 569 540 l 1
 591 541 l 1
 615 583 l 1
 596 652 l 1
 545 679 l 1
491 567 m 1
 480 608 l 1
 531 624 l 1
 549 614 l 1
 550 594 l 1
 491 567 l 1
355 353 m 1
 335 319 l 1
 339 305 l 1
 333 299 l 1
 341 284 l 1
 348 288 l 1
 364 263 l 1
 384 272 l 1
 368 298 l 1
 378 304 l 1
 374 316 l 1
 360 313 l 1
 357 320 l 1
 373 345 l 1
 355 353 l 1
414 344 m 1
 375 327 l 1
 399 281 l 1
 419 290 l 1
 403 321 l 1
 421 325 l 1
 414 344 l 1
437 361 m 1
 417 349 l 1
 451 308 l 1
 494 329 l 1
 465 376 l 1
 448 367 l 1
 466 336 l 1
 459 328 l 1
 437 361 l 1
480 403 m 1
 461 395 l 1
 502 333 l 1
 516 341 l 1
 512 356 l 1
 527 346 l 1
 537 353 l 1
 538 367 l 1
 517 373 l 1
 524 393 l 1
 508 399 l 1
 500 377 l 1
 480 403 l 1
537 430 m 1
 520 424 l 1
 529 408 l 1
 521 404 l 1
 529 393 l 1
 535 395 l 1
 550 366 l 1
 562 364 l 1
 584 377 l 1
 583 389 l 1
 570 391 l 1
 562 385 l 1
 551 400 l 1
 562 406 l 1
 556 420 l 1
 545 416 l 1
 537 430 l 1
596 446 m 1
 565 427 l 1
 573 412 l 1
 595 427 l 1
 598 422 l 1
 578 409 l 1
 577 400 l 1
 589 384 l 1
 598 384 l 1
 638 405 l 1
 608 446 l 1
 596 446 l 1
601 399 m 1
 598 407 l 1
 609 416 l 1
 612 408 l 1
 601 399 l 1
EndSplineSet
EndChar

StartChar: parenleft
Encoding: 40 40 9
Width: 488
Flags: W
LayerCount: 2
Fore
SplineSet
433 967 m 2
 454 967 l 1
 454 827 l 1
 421 828 l 2
 400 829 382 821 369 804 c 0
 356 788 345 769 336 747 c 0
 329 725 322 703 317 682 c 2
 307 636 l 2
 300 612 287 581 270 544 c 0
 253 509 227 488 193 482 c 1
 224 471 250 443 273 396 c 0
 296 348 313 315 322 294 c 2
 465 29 l 1
 395 29 l 1
 326 29 l 1
 288 87 l 2
 263 124 237 174 209 237 c 2
 170 319 l 2
 155 350 138 375 119 394 c 0
 102 410 91 418 86 418 c 2
 19 420 l 1
 19 420 19 428 19 443 c 0
 20 459 20 471 20 479 c 1
 20 479 25 479 34 480 c 0
 50 480 76 483 76 483 c 1
 76 483 79 478 79 478 c 1
 116 477 145 462 164 433 c 0
 185 399 209 358 235 309 c 0
 258 264 283 220 308 176 c 0
 333 133 349 104 357 89 c 1
 366 89 l 1
 374 89 l 1
 369 99 353 127 326 173 c 0
 297 222 271 268 250 311 c 0
 220 372 195 416 174 442 c 0
 153 469 130 484 105 485 c 2
 116 486 l 2
 122 487 131 490 143 495 c 0
 185 514 215 545 234 589 c 0
 251 630 264 666 273 697 c 0
 279 723 292 761 312 812 c 0
 332 862 360 887 396 887 c 1
 396 900 l 1
 357 899 326 874 305 827 c 0
 284 779 269 736 260 697 c 0
 247 649 228 604 201 561 c 0
 178 521 141 499 92 495 c 1
 92 495 92 477 92 477 c 1
 88 477 79 478 79 478 c 1
 79 478 76 483 76 483 c 1
 76 483 67 482 48 480 c 0
 29 479 20 478 20 479 c 2
 20 555 l 1
 76 556 l 2
 102 555 125 564 144 583 c 0
 163 602 178 624 191 649 c 0
 204 675 213 698 218 717 c 2
 227 748 l 2
 240 791 256 838 272 890 c 0
 287 941 330 967 401 968 c 0
 408 968 417 967 433 967 c 2
EndSplineSet
EndChar

StartChar: parenright
Encoding: 41 41 10
Width: 488
Flags: W
LayerCount: 2
Fore
SplineSet
30 827 m 1
 30 967 l 1
 52 967 l 2
 65 967 76 968 83 968 c 0
 154 967 197 941 213 890 c 0
 228 838 244 791 257 748 c 2
 266 717 l 2
 271 697 280 674 293 649 c 0
 306 625 321 603 340 583 c 0
 359 564 382 555 408 556 c 2
 465 555 l 1
 465 479 l 2
 465 478 455 479 436 480 c 0
 417 482 408 483 408 483 c 1
 408 483 405 478 405 478 c 1
 405 478 397 477 393 477 c 1
 393 477 393 495 393 495 c 1
 344 499 307 521 283 561 c 0
 256 604 236 650 225 697 c 0
 216 734 201 777 179 827 c 0
 157 874 127 899 88 900 c 1
 88 887 l 1
 125 887 153 862 172 812 c 0
 191 763 205 724 212 697 c 0
 220 668 233 632 250 589 c 0
 269 545 300 514 341 495 c 0
 352 490 362 487 369 486 c 2
 379 485 l 2
 355 484 332 469 311 442 c 0
 290 416 264 372 234 311 c 0
 210 263 184 218 159 173 c 2
 110 89 l 1
 119 89 l 1
 127 89 l 1
 176 176 l 2
 201 220 226 264 249 309 c 0
 275 358 299 399 321 433 c 0
 340 462 368 477 405 478 c 1
 405 478 408 483 408 483 c 1
 408 483 433 480 450 480 c 0
 458 479 465 479 465 479 c 1
 465 443 l 2
 465 428 465 420 465 420 c 1
 398 418 l 2
 393 418 383 410 366 394 c 0
 346 375 329 350 314 319 c 0
 299 288 287 260 275 237 c 0
 246 172 219 122 196 87 c 2
 159 29 l 1
 89 29 l 1
 19 29 l 1
 162 294 l 2
 171 315 188 348 211 396 c 0
 234 443 261 471 292 482 c 1
 258 488 232 509 215 544 c 0
 196 581 184 612 177 636 c 2
 167 682 l 2
 162 703 155 725 148 747 c 0
 139 769 128 788 115 804 c 0
 102 821 84 829 63 828 c 2
 30 827 l 1
EndSplineSet
EndChar

StartChar: asterisk
Encoding: 42 42 11
Width: 771
Flags: MW
HStem: 117 21G<427 427>
LayerCount: 2
Fore
SplineSet
483 200 m 1
 427 117 l 1
 419 121 l 2
 414 124 407 126 396 133 c 2
 329 171 l 2
 305 186 283 198 262 209 c 0
 242 220 231 227 229 229 c 0
 150 278 100 336 78 404 c 0
 57 474 56 540 77 601 c 0
 98 663 136 716 193 761 c 0
 250 805 317 827 392 826 c 0
 483 825 557 798 613 745 c 0
 669 692 703 631 715 560 c 0
 728 490 716 420 679 351 c 0
 643 282 578 232 483 200 c 1
194 587 m 1
 162 566 l 1
 194 422 l 1
 203 357 l 1
 225 351 l 1
 269 365 l 1
 229 498 l 1
 303 425 l 1
 337 435 l 1
 362 535 l 1
 383 409 l 1
 399 400 l 1
 447 417 l 1
 382 633 l 1
 340 617 l 1
 304 486 l 1
 194 587 l 1
545 679 m 1
 417 641 l 1
 469 453 l 1
 467 430 l 1
 483 424 l 1
 530 438 l 1
 508 511 l 1
 606 455 l 1
 620 455 l 1
 646 499 l 1
 569 540 l 1
 591 541 l 1
 615 583 l 1
 596 652 l 1
 545 679 l 1
491 567 m 1
 480 608 l 1
 531 624 l 1
 549 614 l 1
 550 594 l 1
 491 567 l 1
355 353 m 1
 335 319 l 1
 339 305 l 1
 333 299 l 1
 341 284 l 1
 348 288 l 1
 364 263 l 1
 384 272 l 1
 368 298 l 1
 378 304 l 1
 374 316 l 1
 360 313 l 1
 357 320 l 1
 373 345 l 1
 355 353 l 1
414 344 m 1
 375 327 l 1
 399 281 l 1
 419 290 l 1
 403 321 l 1
 421 325 l 1
 414 344 l 1
437 361 m 1
 417 349 l 1
 451 308 l 1
 494 329 l 1
 465 376 l 1
 448 367 l 1
 466 336 l 1
 459 328 l 1
 437 361 l 1
480 403 m 1
 461 395 l 1
 502 333 l 1
 516 341 l 1
 512 356 l 1
 527 346 l 1
 537 353 l 1
 538 367 l 1
 517 373 l 1
 524 393 l 1
 508 399 l 1
 500 377 l 1
 480 403 l 1
537 430 m 1
 520 424 l 1
 529 408 l 1
 521 404 l 1
 529 393 l 1
 535 395 l 1
 550 366 l 1
 562 364 l 1
 584 377 l 1
 583 389 l 1
 570 391 l 1
 562 385 l 1
 551 400 l 1
 562 406 l 1
 556 420 l 1
 545 416 l 1
 537 430 l 1
596 446 m 1
 565 427 l 1
 573 412 l 1
 595 427 l 1
 598 422 l 1
 578 409 l 1
 577 400 l 1
 589 384 l 1
 598 384 l 1
 638 405 l 1
 608 446 l 1
 596 446 l 1
601 399 m 1
 598 407 l 1
 609 416 l 1
 612 408 l 1
 601 399 l 1
EndSplineSet
EndChar

StartChar: plus
Encoding: 43 43 12
Width: 771
Flags: MW
HStem: 117 21G<427 427>
LayerCount: 2
Fore
SplineSet
483 200 m 1
 427 117 l 1
 419 121 l 2
 414 124 407 126 396 133 c 2
 329 171 l 2
 305 186 283 198 262 209 c 0
 242 220 231 227 229 229 c 0
 150 278 100 336 78 404 c 0
 57 474 56 540 77 601 c 0
 98 663 136 716 193 761 c 0
 250 805 317 827 392 826 c 0
 483 825 557 798 613 745 c 0
 669 692 703 631 715 560 c 0
 728 490 716 420 679 351 c 0
 643 282 578 232 483 200 c 1
194 587 m 1
 162 566 l 1
 194 422 l 1
 203 357 l 1
 225 351 l 1
 269 365 l 1
 229 498 l 1
 303 425 l 1
 337 435 l 1
 362 535 l 1
 383 409 l 1
 399 400 l 1
 447 417 l 1
 382 633 l 1
 340 617 l 1
 304 486 l 1
 194 587 l 1
545 679 m 1
 417 641 l 1
 469 453 l 1
 467 430 l 1
 483 424 l 1
 530 438 l 1
 508 511 l 1
 606 455 l 1
 620 455 l 1
 646 499 l 1
 569 540 l 1
 591 541 l 1
 615 583 l 1
 596 652 l 1
 545 679 l 1
491 567 m 1
 480 608 l 1
 531 624 l 1
 549 614 l 1
 550 594 l 1
 491 567 l 1
355 353 m 1
 335 319 l 1
 339 305 l 1
 333 299 l 1
 341 284 l 1
 348 288 l 1
 364 263 l 1
 384 272 l 1
 368 298 l 1
 378 304 l 1
 374 316 l 1
 360 313 l 1
 357 320 l 1
 373 345 l 1
 355 353 l 1
414 344 m 1
 375 327 l 1
 399 281 l 1
 419 290 l 1
 403 321 l 1
 421 325 l 1
 414 344 l 1
437 361 m 1
 417 349 l 1
 451 308 l 1
 494 329 l 1
 465 376 l 1
 448 367 l 1
 466 336 l 1
 459 328 l 1
 437 361 l 1
480 403 m 1
 461 395 l 1
 502 333 l 1
 516 341 l 1
 512 356 l 1
 527 346 l 1
 537 353 l 1
 538 367 l 1
 517 373 l 1
 524 393 l 1
 508 399 l 1
 500 377 l 1
 480 403 l 1
537 430 m 1
 520 424 l 1
 529 408 l 1
 521 404 l 1
 529 393 l 1
 535 395 l 1
 550 366 l 1
 562 364 l 1
 584 377 l 1
 583 389 l 1
 570 391 l 1
 562 385 l 1
 551 400 l 1
 562 406 l 1
 556 420 l 1
 545 416 l 1
 537 430 l 1
596 446 m 1
 565 427 l 1
 573 412 l 1
 595 427 l 1
 598 422 l 1
 578 409 l 1
 577 400 l 1
 589 384 l 1
 598 384 l 1
 638 405 l 1
 608 446 l 1
 596 446 l 1
601 399 m 1
 598 407 l 1
 609 416 l 1
 612 408 l 1
 601 399 l 1
EndSplineSet
EndChar

StartChar: comma
Encoding: 44 44 13
Width: 49
Flags: W
LayerCount: 2
Fore
SplineSet
17 71 m 0
 40 71 51 61 51 40 c 0
 51 34 50 21 48 0 c 0
 47 -21 41 -33 32 -34 c 1
 32 -34 32 -27 33 -12 c 0
 34 2 28 9 17 9 c 0
 -4 6 -15 16 -15 40 c 0
 -15 61 -4 71 17 71 c 0
17 51 m 0
 9 51 5 47 5 38 c 0
 5 31 9 27 17 27 c 0
 25 27 29 31 29 38 c 0
 29 47 25 51 17 51 c 0
EndSplineSet
EndChar

StartChar: hyphen
Encoding: 45 45 14
Width: 771
Flags: MW
HStem: 117 21G<427 427>
LayerCount: 2
Fore
SplineSet
483 200 m 1
 427 117 l 1
 419 121 l 2
 414 124 407 126 396 133 c 2
 329 171 l 2
 305 186 283 198 262 209 c 0
 242 220 231 227 229 229 c 0
 150 278 100 336 78 404 c 0
 57 474 56 540 77 601 c 0
 98 663 136 716 193 761 c 0
 250 805 317 827 392 826 c 0
 483 825 557 798 613 745 c 0
 669 692 703 631 715 560 c 0
 728 490 716 420 679 351 c 0
 643 282 578 232 483 200 c 1
194 587 m 1
 162 566 l 1
 194 422 l 1
 203 357 l 1
 225 351 l 1
 269 365 l 1
 229 498 l 1
 303 425 l 1
 337 435 l 1
 362 535 l 1
 383 409 l 1
 399 400 l 1
 447 417 l 1
 382 633 l 1
 340 617 l 1
 304 486 l 1
 194 587 l 1
545 679 m 1
 417 641 l 1
 469 453 l 1
 467 430 l 1
 483 424 l 1
 530 438 l 1
 508 511 l 1
 606 455 l 1
 620 455 l 1
 646 499 l 1
 569 540 l 1
 591 541 l 1
 615 583 l 1
 596 652 l 1
 545 679 l 1
491 567 m 1
 480 608 l 1
 531 624 l 1
 549 614 l 1
 550 594 l 1
 491 567 l 1
355 353 m 1
 335 319 l 1
 339 305 l 1
 333 299 l 1
 341 284 l 1
 348 288 l 1
 364 263 l 1
 384 272 l 1
 368 298 l 1
 378 304 l 1
 374 316 l 1
 360 313 l 1
 357 320 l 1
 373 345 l 1
 355 353 l 1
414 344 m 1
 375 327 l 1
 399 281 l 1
 419 290 l 1
 403 321 l 1
 421 325 l 1
 414 344 l 1
437 361 m 1
 417 349 l 1
 451 308 l 1
 494 329 l 1
 465 376 l 1
 448 367 l 1
 466 336 l 1
 459 328 l 1
 437 361 l 1
480 403 m 1
 461 395 l 1
 502 333 l 1
 516 341 l 1
 512 356 l 1
 527 346 l 1
 537 353 l 1
 538 367 l 1
 517 373 l 1
 524 393 l 1
 508 399 l 1
 500 377 l 1
 480 403 l 1
537 430 m 1
 520 424 l 1
 529 408 l 1
 521 404 l 1
 529 393 l 1
 535 395 l 1
 550 366 l 1
 562 364 l 1
 584 377 l 1
 583 389 l 1
 570 391 l 1
 562 385 l 1
 551 400 l 1
 562 406 l 1
 556 420 l 1
 545 416 l 1
 537 430 l 1
596 446 m 1
 565 427 l 1
 573 412 l 1
 595 427 l 1
 598 422 l 1
 578 409 l 1
 577 400 l 1
 589 384 l 1
 598 384 l 1
 638 405 l 1
 608 446 l 1
 596 446 l 1
601 399 m 1
 598 407 l 1
 609 416 l 1
 612 408 l 1
 601 399 l 1
EndSplineSet
EndChar

StartChar: period
Encoding: 46 46 15
Width: 49
Flags: W
LayerCount: 2
Fore
SplineSet
27 69 m 0
 50 69 61 57 61 32 c 0
 61 7 50 -6 27 -6 c 0
 6 -6 -5 7 -5 32 c 0
 -5 57 6 69 27 69 c 0
27 45 m 0
 19 45 15 40 15 29 c 0
 15 20 19 16 27 16 c 0
 35 16 39 20 39 29 c 0
 39 40 35 45 27 45 c 0
EndSplineSet
EndChar

StartChar: slash
Encoding: 47 47 16
Width: 771
Flags: MW
HStem: 117 21G<427 427>
LayerCount: 2
Fore
SplineSet
483 200 m 1
 427 117 l 1
 419 121 l 2
 414 124 407 126 396 133 c 2
 329 171 l 2
 305 186 283 198 262 209 c 0
 242 220 231 227 229 229 c 0
 150 278 100 336 78 404 c 0
 57 474 56 540 77 601 c 0
 98 663 136 716 193 761 c 0
 250 805 317 827 392 826 c 0
 483 825 557 798 613 745 c 0
 669 692 703 631 715 560 c 0
 728 490 716 420 679 351 c 0
 643 282 578 232 483 200 c 1
194 587 m 1
 162 566 l 1
 194 422 l 1
 203 357 l 1
 225 351 l 1
 269 365 l 1
 229 498 l 1
 303 425 l 1
 337 435 l 1
 362 535 l 1
 383 409 l 1
 399 400 l 1
 447 417 l 1
 382 633 l 1
 340 617 l 1
 304 486 l 1
 194 587 l 1
545 679 m 1
 417 641 l 1
 469 453 l 1
 467 430 l 1
 483 424 l 1
 530 438 l 1
 508 511 l 1
 606 455 l 1
 620 455 l 1
 646 499 l 1
 569 540 l 1
 591 541 l 1
 615 583 l 1
 596 652 l 1
 545 679 l 1
491 567 m 1
 480 608 l 1
 531 624 l 1
 549 614 l 1
 550 594 l 1
 491 567 l 1
355 353 m 1
 335 319 l 1
 339 305 l 1
 333 299 l 1
 341 284 l 1
 348 288 l 1
 364 263 l 1
 384 272 l 1
 368 298 l 1
 378 304 l 1
 374 316 l 1
 360 313 l 1
 357 320 l 1
 373 345 l 1
 355 353 l 1
414 344 m 1
 375 327 l 1
 399 281 l 1
 419 290 l 1
 403 321 l 1
 421 325 l 1
 414 344 l 1
437 361 m 1
 417 349 l 1
 451 308 l 1
 494 329 l 1
 465 376 l 1
 448 367 l 1
 466 336 l 1
 459 328 l 1
 437 361 l 1
480 403 m 1
 461 395 l 1
 502 333 l 1
 516 341 l 1
 512 356 l 1
 527 346 l 1
 537 353 l 1
 538 367 l 1
 517 373 l 1
 524 393 l 1
 508 399 l 1
 500 377 l 1
 480 403 l 1
537 430 m 1
 520 424 l 1
 529 408 l 1
 521 404 l 1
 529 393 l 1
 535 395 l 1
 550 366 l 1
 562 364 l 1
 584 377 l 1
 583 389 l 1
 570 391 l 1
 562 385 l 1
 551 400 l 1
 562 406 l 1
 556 420 l 1
 545 416 l 1
 537 430 l 1
596 446 m 1
 565 427 l 1
 573 412 l 1
 595 427 l 1
 598 422 l 1
 578 409 l 1
 577 400 l 1
 589 384 l 1
 598 384 l 1
 638 405 l 1
 608 446 l 1
 596 446 l 1
601 399 m 1
 598 407 l 1
 609 416 l 1
 612 408 l 1
 601 399 l 1
EndSplineSet
EndChar

StartChar: zero
Encoding: 48 48 17
Width: 640
Flags: W
LayerCount: 2
Fore
SplineSet
358 151 m 2
 409 148 441 153 454 168 c 0
 467 183 474 200 475 221 c 2
 475 221 475 249 474 304 c 2
 474 486 l 2
 474 552 474 613 473 668 c 0
 473 723 473 751 473 751 c 2
 472 798 449 811 368 808 c 2
 368 808 346 808 279 808 c 0
 256 808 233 806 209 803 c 0
 186 800 174 782 174 751 c 0
 174 742 174 711 173 659 c 2
 173 491 l 2
 173 430 173 373 172 320 c 2
 172 221 l 2
 172 174 201 150 260 151 c 2
 318 151 l 2
 345 151 358 151 358 151 c 2
434 885 m 1
 434 944 l 1
 495 942 540 930 568 907 c 0
 596 884 609 838 608 767 c 2
 608 196 l 2
 608 131 595 85 568 58 c 0
 542 31 483 19 392 20 c 2
 344 20 l 1
 256 20 l 2
 167 19 109 31 81 56 c 0
 54 81 40 128 40 197 c 2
 40 197 40 220 39 266 c 2
 39 430 l 1
 39 619 l 1
 39 767 l 2
 39 836 52 882 79 907 c 0
 106 932 159 944 238 944 c 2
 434 944 l 1
 434 885 l 1
 399 884 373 884 356 884 c 0
 339 885 313 885 278 885 c 0
 203 888 154 879 133 858 c 0
 112 837 101 807 101 767 c 2
 101 767 101 741 100 688 c 2
 98 510 l 2
 98 444 98 380 97 318 c 2
 97 196 l 2
 97 117 137 78 257 78 c 2
 391 78 l 2
 468 77 513 90 527 119 c 0
 542 148 549 174 550 196 c 2
 547 767 l 2
 548 827 532 861 499 869 c 0
 466 878 445 883 434 885 c 1
389 869 m 2
 429 869 463 863 490 850 c 0
 517 838 531 811 531 768 c 2
 533 216 l 2
 533 162 520 128 493 115 c 0
 467 102 432 94 388 93 c 2
 388 93 360 93 260 93 c 0
 156 93 114 123 114 216 c 2
 114 216 114 242 114 293 c 0
 115 345 115 403 115 468 c 2
 115 655 l 2
 116 715 116 753 116 769 c 0
 116 830 148 872 259 869 c 0
 314 868 349 868 365 868 c 0
 381 869 389 869 389 869 c 2
EndSplineSet
EndChar

StartChar: one
Encoding: 49 49 18
Width: 336
Flags: W
LayerCount: 2
Fore
SplineSet
232 945 m 1
 321 945 l 1
 321 873 l 1
 262 873 l 1
 262 886 l 1
 252 886 247 886 247 886 c 1
 246 865 231 840 202 811 c 0
 173 782 139 755 100 728 c 1
 104 716 l 1
 104 716 122 729 158 754 c 0
 194 779 224 811 247 849 c 1
 247 81 l 1
 262 81 l 1
 262 873 l 1
 321 873 l 1
 320 21 l 1
 320 21 298 21 253 20 c 0
 209 20 187 20 187 20 c 1
 187 20 187 56 187 129 c 0
 187 202 187 282 186 369 c 2
 186 611 l 2
 186 684 186 721 186 721 c 1
 143 680 97 655 56 631 c 1
 49 672 44 714 39 755 c 1
 108 800 184 861 232 945 c 1
EndSplineSet
EndChar

StartChar: two
Encoding: 50 50 19
Width: 646
Flags: W
LayerCount: 2
Fore
SplineSet
256 946 m 2
 417 946 l 2
 496 946 548 934 575 909 c 0
 602 884 615 838 615 769 c 2
 615 626 l 2
 615 601 615 588 615 588 c 2
 615 519 601 473 573 448 c 0
 546 423 488 411 399 411 c 2
 254 411 l 2
 235 411 218 408 201 401 c 0
 185 395 177 379 177 354 c 2
 177 354 177 332 176 288 c 0
 175 244 175 222 175 222 c 2
 175 190 185 170 206 162 c 0
 227 155 246 151 263 152 c 2
 315 152 l 1
 369 152 l 1
 369 152 381 152 404 152 c 2
 481 152 l 1
 559 152 l 2
 583 152 595 152 595 152 c 1
 594 20 l 1
 594 20 585 20 566 19 c 0
 548 19 493 19 402 20 c 2
 350 20 l 1
 258 20 l 2
 169 20 111 32 83 57 c 0
 56 82 42 128 42 197 c 2
 42 197 42 208 42 231 c 2
 42 370 l 2
 42 406 43 441 58 477 c 0
 79 522 114 543 161 542 c 0
 209 541 252 541 289 543 c 2
 341 543 l 1
 395 543 l 2
 411 542 429 546 450 553 c 0
 471 561 482 581 482 613 c 1
 482 612 479 753 480 753 c 1
 479 785 467 802 443 805 c 0
 419 808 396 810 375 810 c 2
 279 810 l 2
 211 811 175 806 174 753 c 2
 174 710 l 1
 40 710 l 1
 40 769 l 2
 37 847 54 896 90 915 c 0
 127 935 182 945 256 946 c 2
97 769 m 1
 116 770 l 1
 116 798 123 811 128 823 c 0
 132 832 140 846 171 859 c 0
 186 866 205 870 228 870 c 0
 251 871 262 871 262 871 c 1
 262 871 280 871 317 871 c 2
 392 871 l 2
 405 871 422 870 444 868 c 0
 466 866 486 860 503 849 c 0
 520 838 530 824 533 807 c 0
 536 791 538 783 538 783 c 2
 537 783 540 620 540 620 c 2
 541 574 533 540 514 518 c 0
 495 496 456 485 395 485 c 2
 395 485 382 485 356 486 c 0
 331 487 304 488 275 488 c 0
 216 488 171 485 136 461 c 0
 118 448 108 431 106 409 c 0
 104 387 103 376 103 376 c 2
 103 377 100 217 100 190 c 0
 100 162 106 132 139 105 c 0
 155 92 178 84 209 82 c 0
 240 80 255 79 255 79 c 1
 255 79 275 79 316 79 c 2
 410 79 l 2
 486 79 538 79 538 79 c 1
 538 79 538 95 538 95 c 1
 538 95 520 95 483 95 c 0
 446 95 428 95 428 95 c 1
 428 95 405 95 358 94 c 2
 252 94 l 2
 199 94 162 106 140 131 c 0
 127 144 120 162 119 183 c 0
 118 205 117 216 117 216 c 2
 117 235 118 269 119 320 c 0
 120 371 121 396 121 396 c 1
 127 417 137 434 151 447 c 0
 166 461 208 469 279 471 c 0
 349 472 413 474 470 477 c 0
 527 480 556 517 557 588 c 2
 557 588 557 611 556 658 c 0
 555 705 555 738 554 755 c 0
 553 788 550 813 545 828 c 0
 537 848 519 864 490 876 c 0
 474 882 455 885 432 886 c 0
 410 887 399 887 399 887 c 2
 352 887 304 884 257 887 c 0
 220 889 183 882 147 867 c 0
 112 852 95 820 97 769 c 1
EndSplineSet
EndChar

StartChar: three
Encoding: 51 51 20
Width: 500
Flags: W
LayerCount: 2
Fore
SplineSet
40 833 m 2
 40 871 l 1
 40 871 62 871 107 870 c 0
 152 869 202 870 257 871 c 0
 368 874 400 832 400 771 c 0
 400 707 400 655 400 655 c 2
 400 560 358 532 254 532 c 0
 198 532 177 531 177 531 c 1
 177 518 l 1
 119 518 l 1
 119 589 l 1
 179 589 l 1
 253 589 l 2
 300 589 340 601 341 660 c 2
 341 753 l 2
 341 804 304 811 236 810 c 0
 235 810 40 810 40 811 c 2
 40 811 40 818 40 833 c 2
119 458 m 1
 119 518 l 1
 119 518 141 518 177 518 c 0
 197 517 208 517 209 517 c 0
 211 517 227 517 256 518 c 0
 365 519 399 480 399 417 c 2
 399 293 l 2
 399 242 399 216 399 216 c 2
 399 123 357 93 253 93 c 2
 104 93 l 1
 104 93 104 78 104 78 c 1
 64 78 l 2
 47 78 39 78 39 78 c 1
 40 152 l 1
 111 152 181 151 253 151 c 0
 266 151 284 154 306 160 c 0
 329 167 340 187 341 222 c 2
 341 400 l 2
 341 428 330 445 309 450 c 0
 288 455 263 458 236 457 c 2
 119 458 l 1
39 20 m 1
 39 78 l 1
 256 78 l 2
 376 78 416 117 416 196 c 0
 416 235 416 281 415 332 c 0
 415 384 415 410 415 410 c 2
 416 476 391 513 340 521 c 1
 401 534 418 576 415 668 c 0
 415 699 416 735 416 767 c 0
 416 815 401 847 371 862 c 0
 342 877 303 885 256 885 c 2
 99 886 l 1
 99 870 l 1
 40 871 l 1
 40 944 l 1
 257 944 l 2
 336 944 393 933 426 911 c 0
 460 889 476 841 474 767 c 0
 473 731 473 709 474 669 c 0
 474 667 473 643 472 597 c 0
 471 551 459 526 437 523 c 1
 470 506 474 464 474 409 c 0
 474 270 474 197 474 197 c 2
 474 128 460 81 432 56 c 0
 405 31 346 19 257 20 c 2
 81 20 l 2
 53 20 39 20 39 20 c 1
EndSplineSet
EndChar

StartChar: four
Encoding: 52 52 21
Width: 661
Flags: W
LayerCount: 2
Fore
SplineSet
549 20 m 1
 419 20 l 1
 419 20 419 37 419 72 c 0
 419 107 419 146 418 188 c 2
 418 304 l 2
 418 339 418 357 418 357 c 2
 418 356 252 353 252 353 c 2
 155 350 95 365 72 396 c 0
 49 426 38 471 39 530 c 0
 40 667 38 805 38 944 c 1
 168 943 l 1
 168 943 168 923 168 884 c 2
 168 754 l 1
 168 625 l 2
 168 586 168 566 168 566 c 2
 169 536 176 514 191 500 c 0
 203 489 225 484 256 484 c 2
 332 484 l 2
 380 484 420 484 420 484 c 1
 418 714 l 2
 417 803 417 879 417 944 c 1
 548 944 l 1
 549 484 l 1
 630 484 l 1
 630 354 l 1
 549 354 l 1
 549 354 549 336 549 301 c 2
 549 186 l 1
 549 72 l 2
 549 37 549 20 549 20 c 1
112 597 m 2
 110 885 l 1
 96 885 l 1
 97 506 l 2
 97 498 98 468 118 447 c 0
 137 424 167 411 207 410 c 0
 247 409 288 408 330 409 c 2
 423 409 l 2
 458 410 476 410 476 410 c 1
 476 410 476 393 476 358 c 2
 476 245 l 2
 477 204 477 166 477 131 c 0
 477 97 477 80 477 80 c 1
 491 80 l 1
 490 409 l 1
 571 410 l 1
 571 426 l 1
 489 426 l 1
 487 885 l 1
 473 885 l 1
 474 732 476 578 476 425 c 1
 476 425 457 425 420 425 c 2
 331 425 l 1
 228 425 l 2
 184 425 153 436 136 458 c 0
 111 490 110 514 113 565 c 0
 113 570 113 581 112 597 c 2
EndSplineSet
EndChar

StartChar: five
Encoding: 53 53 22
Width: 622
Flags: W
LayerCount: 2
Fore
SplineSet
217 946 m 2
 217 946 236 946 273 946 c 2
 395 946 l 1
 518 946 l 2
 555 947 574 947 574 947 c 1
 574 811 l 1
 469 810 363 810 259 810 c 0
 238 810 215 808 190 805 c 0
 166 802 154 785 154 753 c 2
 154 753 151 613 152 613 c 1
 152 581 162 561 183 553 c 0
 204 546 223 542 240 543 c 2
 292 543 l 1
 345 543 l 2
 382 541 424 541 471 542 c 0
 519 543 554 522 576 477 c 0
 589 442 592 406 592 370 c 0
 592 301 592 254 591 231 c 0
 591 208 591 197 591 197 c 2
 591 128 577 82 549 57 c 0
 522 32 464 20 375 20 c 2
 375 20 358 20 323 20 c 2
 208 20 l 1
 92 20 l 2
 57 20 40 20 40 20 c 1
 39 152 l 1
 371 152 l 2
 388 151 406 155 427 162 c 0
 448 170 458 190 458 222 c 2
 458 222 458 244 457 288 c 0
 457 332 457 354 457 354 c 2
 456 406 417 411 380 411 c 0
 331 412 283 412 235 411 c 0
 146 411 88 423 60 448 c 0
 33 473 19 519 19 588 c 2
 19 588 19 601 19 626 c 2
 19 769 l 2
 19 838 32 884 59 909 c 0
 86 934 138 946 217 946 c 2
517 887 m 1
 517 887 502 887 473 887 c 2
 376 887 l 1
 278 887 l 2
 249 887 234 887 235 887 c 2
 235 887 224 887 201 886 c 0
 178 885 159 882 144 876 c 0
 115 865 96 849 89 828 c 0
 83 813 80 788 80 755 c 0
 79 738 79 705 78 658 c 0
 77 611 77 588 77 588 c 2
 77 517 106 480 163 477 c 0
 220 474 284 472 355 471 c 0
 425 469 467 461 482 447 c 0
 497 434 507 417 513 396 c 1
 513 396 514 371 515 320 c 0
 516 269 517 235 517 217 c 2
 517 217 516 206 515 184 c 0
 514 162 507 144 494 131 c 0
 471 107 434 95 382 94 c 2
 382 94 367 94 337 94 c 2
 238 94 l 2
 203 95 170 95 140 95 c 0
 111 95 96 95 96 95 c 1
 96 95 96 79 96 79 c 1
 378 79 l 1
 378 79 393 80 424 82 c 0
 455 84 478 92 495 106 c 0
 527 131 533 162 534 190 c 0
 534 217 530 377 531 376 c 2
 531 376 530 387 527 409 c 0
 525 431 515 448 498 461 c 0
 462 486 416 488 359 488 c 0
 330 488 302 487 277 486 c 0
 252 485 240 485 240 485 c 2
 178 486 138 497 119 518 c 0
 101 540 93 574 94 620 c 1
 93 620 96 783 96 784 c 2
 96 784 97 792 100 808 c 0
 103 824 113 838 131 849 c 0
 164 872 217 871 242 871 c 2
 295 871 l 1
 389 871 l 1
 477 871 l 2
 504 871 517 871 517 871 c 1
 517 871 517 876 517 887 c 1
EndSplineSet
EndChar

StartChar: six
Encoding: 54 54 23
Width: 642
Flags: W
LayerCount: 2
Fore
SplineSet
260 152 m 2
 260 152 279 152 316 151 c 2
 391 151 l 2
 450 150 479 174 479 221 c 2
 479 313 l 1
 479 397 l 2
 479 428 467 446 443 449 c 0
 419 452 396 454 374 454 c 0
 341 454 299 454 248 455 c 0
 198 456 173 456 173 456 c 1
 173 377 172 299 172 222 c 0
 172 187 183 167 206 161 c 0
 229 156 247 153 260 152 c 2
238 946 m 1
 596 944 l 1
 596 886 l 1
 596 871 l 1
 537 871 l 1
 537 886 l 1
 255 887 l 2
 236 886 204 887 175 879 c 0
 154 874 136 863 120 846 c 0
 104 829 97 799 100 755 c 2
 97 190 l 2
 96 138 115 106 153 95 c 0
 192 84 225 78 252 78 c 2
 394 78 l 2
 513 78 554 117 554 196 c 0
 554 235 554 281 553 334 c 0
 553 387 553 413 553 413 c 2
 552 453 541 483 519 503 c 0
 498 524 450 533 375 530 c 0
 375 529 177 532 113 531 c 1
 116 784 l 2
 119 822 135 846 164 856 c 0
 193 866 226 871 263 871 c 2
 596 871 l 1
 596 813 l 1
 241 813 l 2
 226 813 211 810 196 805 c 0
 182 800 175 782 174 753 c 2
 171 590 l 1
 415 590 l 2
 494 590 546 578 572 553 c 0
 598 528 611 482 611 413 c 0
 611 274 611 196 611 196 c 2
 611 127 597 81 569 56 c 0
 542 31 484 19 396 20 c 0
 347 20 300 19 255 20 c 0
 183 21 128 30 91 48 c 0
 54 67 37 116 39 197 c 2
 39 769 l 1
 31 967 172 938 238 946 c 1
114 217 m 2
 113 516 l 1
 113 516 146 515 212 514 c 0
 279 513 339 514 394 515 c 0
 505 516 537 477 537 414 c 2
 537 291 l 2
 537 241 537 216 537 216 c 2
 537 123 495 93 391 93 c 0
 351 93 300 92 252 93 c 0
 219 94 187 101 156 114 c 0
 125 128 111 162 114 217 c 2
EndSplineSet
EndChar

StartChar: seven
Encoding: 55 55 24
Width: 558
Flags: W
LayerCount: 2
Fore
SplineSet
39 945 m 1
 530 945 l 1
 531 20 l 1
 531 20 521 20 501 20 c 0
 481 20 471 20 471 20 c 1
 398 20 l 1
 398 813 l 1
 39 813 l 1
 39 872 l 1
 457 873 l 1
 456 81 l 1
 471 81 l 1
 471 886 l 1
 98 886 l 1
 98 872 l 1
 39 872 l 1
 39 886 l 1
 39 945 l 1
EndSplineSet
EndChar

StartChar: eight
Encoding: 56 56 25
Width: 623
Flags: W
LayerCount: 2
Fore
SplineSet
257 151 m 2
 257 151 273 151 305 151 c 2
 372 151 l 2
 429 150 458 174 459 221 c 2
 459 314 l 1
 459 397 l 2
 459 428 447 446 424 449 c 0
 401 452 377 454 354 454 c 2
 301 454 l 1
 250 454 l 2
 206 454 173 444 173 397 c 2
 173 224 l 2
 172 188 183 167 205 161 c 0
 228 155 245 152 257 151 c 2
114 415 m 0
 114 462 130 490 161 500 c 0
 192 510 224 515 256 515 c 0
 288 515 340 515 376 516 c 0
 485 517 518 478 519 415 c 2
 519 292 l 2
 519 241 519 216 519 216 c 2
 519 123 476 94 373 94 c 2
 282 94 l 2
 251 94 236 94 236 94 c 2
 205 96 177 103 151 116 c 0
 125 129 112 163 113 216 c 0
 113 283 114 348 114 415 c 0
261 586 m 2
 261 586 276 586 307 586 c 0
 338 587 360 587 372 587 c 0
 430 586 459 609 459 657 c 2
 459 708 l 1
 459 750 l 2
 459 781 447 799 423 802 c 0
 400 805 377 807 354 807 c 2
 299 807 l 1
 247 807 l 2
 200 807 175 789 173 753 c 2
 173 657 l 2
 174 622 185 601 208 595 c 0
 231 590 248 587 261 586 c 2
156 850 m 2
 214 866 l 1
 214 866 265 867 376 868 c 0
 485 871 518 829 518 768 c 0
 518 704 518 652 518 652 c 2
 518 559 476 529 373 529 c 2
 299 529 l 2
 271 529 257 529 257 529 c 2
 217 530 182 537 153 551 c 0
 124 565 111 601 113 659 c 1
 114 658 115 671 114 698 c 2
 114 768 l 2
 114 815 128 842 156 850 c 2
234 944 m 2
 377 944 l 2
 459 944 516 933 547 911 c 0
 578 890 594 842 593 768 c 2
 593 673 l 2
 594 570 582 534 555 526 c 1
 555 527 552 529 552 529 c 1
 581 517 593 492 593 421 c 0
 593 282 593 197 593 197 c 2
 593 128 579 82 551 57 c 0
 524 32 466 20 377 20 c 0
 357 20 330 20 296 19 c 0
 263 19 238 19 221 20 c 0
 161 23 116 34 85 53 c 0
 54 73 39 117 39 186 c 2
 39 434 l 2
 40 472 44 496 53 506 c 0
 62 516 69 523 76 527 c 1
 52 533 40 571 39 640 c 0
 39 688 40 738 40 787 c 0
 40 870 63 916 108 925 c 0
 154 935 196 941 234 944 c 2
239 886 m 2
 220 884 192 878 153 869 c 0
 115 860 96 826 97 768 c 2
 98 672 l 2
 97 572 114 538 173 525 c 1
 160 523 144 515 126 500 c 0
 108 486 99 458 98 417 c 0
 98 344 97 270 97 197 c 0
 98 142 115 108 149 97 c 0
 184 86 213 80 236 79 c 2
 375 79 l 2
 404 79 438 84 477 94 c 0
 516 105 536 139 535 197 c 0
 534 254 534 305 534 348 c 0
 534 392 534 414 534 414 c 1
 534 414 536 449 523 477 c 0
 512 499 499 512 483 517 c 0
 467 522 459 525 459 525 c 1
 495 533 516 550 523 575 c 0
 530 600 533 633 534 672 c 2
 534 750 l 2
 535 762 535 768 535 768 c 1
 535 768 534 777 533 795 c 0
 532 813 525 829 514 843 c 0
 489 871 452 886 375 886 c 0
 299 886 239 886 239 886 c 2
EndSplineSet
EndChar

StartChar: nine
Encoding: 57 57 26
Width: 644
Flags: W
LayerCount: 2
Fore
SplineSet
390 812 m 2
 390 812 371 812 333 812 c 0
 296 812 271 812 259 813 c 0
 200 813 171 790 171 743 c 2
 171 650 l 1
 171 567 l 2
 171 536 183 518 206 515 c 0
 230 512 253 510 276 510 c 0
 309 510 351 510 401 509 c 0
 452 508 477 508 477 508 c 1
 477 587 478 665 478 742 c 0
 478 776 466 796 443 802 c 0
 420 808 403 811 390 812 c 2
412 18 m 1
 54 20 l 1
 54 79 l 1
 54 93 l 1
 113 93 l 1
 113 79 l 1
 395 77 l 2
 414 77 446 77 475 84 c 0
 496 89 514 100 530 117 c 0
 546 134 553 165 550 209 c 0
 550 397 552 585 553 774 c 0
 553 826 534 858 495 869 c 0
 457 880 424 886 397 886 c 2
 256 886 l 2
 136 886 96 847 96 768 c 2
 96 629 l 2
 97 577 97 551 97 551 c 2
 98 511 109 481 130 460 c 0
 151 439 200 431 275 434 c 0
 276 433 470 433 537 433 c 1
 533 181 l 2
 530 142 515 118 486 107 c 0
 457 97 424 92 387 93 c 2
 54 93 l 1
 54 151 l 1
 409 150 l 2
 424 150 438 153 452 158 c 0
 467 164 475 182 476 211 c 2
 479 374 l 1
 235 374 l 2
 156 374 103 386 77 411 c 0
 52 436 39 483 39 552 c 2
 39 768 l 2
 39 837 53 883 80 908 c 0
 107 933 165 945 254 945 c 0
 302 944 350 944 395 944 c 0
 466 943 520 934 557 915 c 0
 594 896 612 847 610 767 c 2
 611 195 l 1
 619 -3 475 26 412 18 c 1
536 747 m 2
 537 449 l 1
 537 449 504 449 437 450 c 0
 371 451 310 450 255 449 c 0
 146 448 113 486 113 550 c 2
 113 672 l 2
 113 723 113 748 113 748 c 2
 113 841 155 870 259 871 c 2
 397 871 l 2
 430 870 462 863 493 849 c 0
 524 835 539 801 536 747 c 2
EndSplineSet
EndChar

StartChar: colon
Encoding: 58 58 27
Width: 771
Flags: MW
HStem: 117 21G<427 427>
LayerCount: 2
Fore
SplineSet
483 200 m 1
 427 117 l 1
 419 121 l 2
 414 124 407 126 396 133 c 2
 329 171 l 2
 305 186 283 198 262 209 c 0
 242 220 231 227 229 229 c 0
 150 278 100 336 78 404 c 0
 57 474 56 540 77 601 c 0
 98 663 136 716 193 761 c 0
 250 805 317 827 392 826 c 0
 483 825 557 798 613 745 c 0
 669 692 703 631 715 560 c 0
 728 490 716 420 679 351 c 0
 643 282 578 232 483 200 c 1
194 587 m 1
 162 566 l 1
 194 422 l 1
 203 357 l 1
 225 351 l 1
 269 365 l 1
 229 498 l 1
 303 425 l 1
 337 435 l 1
 362 535 l 1
 383 409 l 1
 399 400 l 1
 447 417 l 1
 382 633 l 1
 340 617 l 1
 304 486 l 1
 194 587 l 1
545 679 m 1
 417 641 l 1
 469 453 l 1
 467 430 l 1
 483 424 l 1
 530 438 l 1
 508 511 l 1
 606 455 l 1
 620 455 l 1
 646 499 l 1
 569 540 l 1
 591 541 l 1
 615 583 l 1
 596 652 l 1
 545 679 l 1
491 567 m 1
 480 608 l 1
 531 624 l 1
 549 614 l 1
 550 594 l 1
 491 567 l 1
355 353 m 1
 335 319 l 1
 339 305 l 1
 333 299 l 1
 341 284 l 1
 348 288 l 1
 364 263 l 1
 384 272 l 1
 368 298 l 1
 378 304 l 1
 374 316 l 1
 360 313 l 1
 357 320 l 1
 373 345 l 1
 355 353 l 1
414 344 m 1
 375 327 l 1
 399 281 l 1
 419 290 l 1
 403 321 l 1
 421 325 l 1
 414 344 l 1
437 361 m 1
 417 349 l 1
 451 308 l 1
 494 329 l 1
 465 376 l 1
 448 367 l 1
 466 336 l 1
 459 328 l 1
 437 361 l 1
480 403 m 1
 461 395 l 1
 502 333 l 1
 516 341 l 1
 512 356 l 1
 527 346 l 1
 537 353 l 1
 538 367 l 1
 517 373 l 1
 524 393 l 1
 508 399 l 1
 500 377 l 1
 480 403 l 1
537 430 m 1
 520 424 l 1
 529 408 l 1
 521 404 l 1
 529 393 l 1
 535 395 l 1
 550 366 l 1
 562 364 l 1
 584 377 l 1
 583 389 l 1
 570 391 l 1
 562 385 l 1
 551 400 l 1
 562 406 l 1
 556 420 l 1
 545 416 l 1
 537 430 l 1
596 446 m 1
 565 427 l 1
 573 412 l 1
 595 427 l 1
 598 422 l 1
 578 409 l 1
 577 400 l 1
 589 384 l 1
 598 384 l 1
 638 405 l 1
 608 446 l 1
 596 446 l 1
601 399 m 1
 598 407 l 1
 609 416 l 1
 612 408 l 1
 601 399 l 1
EndSplineSet
EndChar

StartChar: semicolon
Encoding: 59 59 28
Width: 771
Flags: MW
HStem: 117 21G<427 427>
LayerCount: 2
Fore
SplineSet
483 200 m 1
 427 117 l 1
 419 121 l 2
 414 124 407 126 396 133 c 2
 329 171 l 2
 305 186 283 198 262 209 c 0
 242 220 231 227 229 229 c 0
 150 278 100 336 78 404 c 0
 57 474 56 540 77 601 c 0
 98 663 136 716 193 761 c 0
 250 805 317 827 392 826 c 0
 483 825 557 798 613 745 c 0
 669 692 703 631 715 560 c 0
 728 490 716 420 679 351 c 0
 643 282 578 232 483 200 c 1
194 587 m 1
 162 566 l 1
 194 422 l 1
 203 357 l 1
 225 351 l 1
 269 365 l 1
 229 498 l 1
 303 425 l 1
 337 435 l 1
 362 535 l 1
 383 409 l 1
 399 400 l 1
 447 417 l 1
 382 633 l 1
 340 617 l 1
 304 486 l 1
 194 587 l 1
545 679 m 1
 417 641 l 1
 469 453 l 1
 467 430 l 1
 483 424 l 1
 530 438 l 1
 508 511 l 1
 606 455 l 1
 620 455 l 1
 646 499 l 1
 569 540 l 1
 591 541 l 1
 615 583 l 1
 596 652 l 1
 545 679 l 1
491 567 m 1
 480 608 l 1
 531 624 l 1
 549 614 l 1
 550 594 l 1
 491 567 l 1
355 353 m 1
 335 319 l 1
 339 305 l 1
 333 299 l 1
 341 284 l 1
 348 288 l 1
 364 263 l 1
 384 272 l 1
 368 298 l 1
 378 304 l 1
 374 316 l 1
 360 313 l 1
 357 320 l 1
 373 345 l 1
 355 353 l 1
414 344 m 1
 375 327 l 1
 399 281 l 1
 419 290 l 1
 403 321 l 1
 421 325 l 1
 414 344 l 1
437 361 m 1
 417 349 l 1
 451 308 l 1
 494 329 l 1
 465 376 l 1
 448 367 l 1
 466 336 l 1
 459 328 l 1
 437 361 l 1
480 403 m 1
 461 395 l 1
 502 333 l 1
 516 341 l 1
 512 356 l 1
 527 346 l 1
 537 353 l 1
 538 367 l 1
 517 373 l 1
 524 393 l 1
 508 399 l 1
 500 377 l 1
 480 403 l 1
537 430 m 1
 520 424 l 1
 529 408 l 1
 521 404 l 1
 529 393 l 1
 535 395 l 1
 550 366 l 1
 562 364 l 1
 584 377 l 1
 583 389 l 1
 570 391 l 1
 562 385 l 1
 551 400 l 1
 562 406 l 1
 556 420 l 1
 545 416 l 1
 537 430 l 1
596 446 m 1
 565 427 l 1
 573 412 l 1
 595 427 l 1
 598 422 l 1
 578 409 l 1
 577 400 l 1
 589 384 l 1
 598 384 l 1
 638 405 l 1
 608 446 l 1
 596 446 l 1
601 399 m 1
 598 407 l 1
 609 416 l 1
 612 408 l 1
 601 399 l 1
EndSplineSet
EndChar

StartChar: less
Encoding: 60 60 29
Width: 488
Flags: W
LayerCount: 2
Fore
SplineSet
433 967 m 2
 454 967 l 1
 454 827 l 1
 421 828 l 2
 400 829 382 821 369 804 c 0
 356 788 345 769 336 747 c 0
 329 725 322 703 317 682 c 2
 307 636 l 2
 300 612 287 581 270 544 c 0
 253 509 227 488 193 482 c 1
 224 471 250 443 273 396 c 0
 296 348 313 315 322 294 c 2
 465 29 l 1
 395 29 l 1
 326 29 l 1
 288 87 l 2
 263 124 237 174 209 237 c 2
 170 319 l 2
 155 350 138 375 119 394 c 0
 102 410 91 418 86 418 c 2
 19 420 l 1
 19 420 19 428 19 443 c 0
 20 459 20 471 20 479 c 1
 20 479 25 479 34 480 c 0
 50 480 76 483 76 483 c 1
 76 483 79 478 79 478 c 1
 116 477 145 462 164 433 c 0
 185 399 209 358 235 309 c 0
 258 264 283 220 308 176 c 0
 333 133 349 104 357 89 c 1
 366 89 l 1
 374 89 l 1
 369 99 353 127 326 173 c 0
 297 222 271 268 250 311 c 0
 220 372 195 416 174 442 c 0
 153 469 130 484 105 485 c 2
 116 486 l 2
 122 487 131 490 143 495 c 0
 185 514 215 545 234 589 c 0
 251 630 264 666 273 697 c 0
 279 723 292 761 312 812 c 0
 332 862 360 887 396 887 c 1
 396 900 l 1
 357 899 326 874 305 827 c 0
 284 779 269 736 260 697 c 0
 247 649 228 604 201 561 c 0
 178 521 141 499 92 495 c 1
 92 495 92 477 92 477 c 1
 88 477 79 478 79 478 c 1
 79 478 76 483 76 483 c 1
 76 483 67 482 48 480 c 0
 29 479 20 478 20 479 c 2
 20 555 l 1
 76 556 l 2
 102 555 125 564 144 583 c 0
 163 602 178 624 191 649 c 0
 204 675 213 698 218 717 c 2
 227 748 l 2
 240 791 256 838 272 890 c 0
 287 941 330 967 401 968 c 0
 408 968 417 967 433 967 c 2
EndSplineSet
EndChar

StartChar: equal
Encoding: 61 61 30
Width: 771
Flags: MW
HStem: 117 21G<427 427>
LayerCount: 2
Fore
SplineSet
483 200 m 1
 427 117 l 1
 419 121 l 2
 414 124 407 126 396 133 c 2
 329 171 l 2
 305 186 283 198 262 209 c 0
 242 220 231 227 229 229 c 0
 150 278 100 336 78 404 c 0
 57 474 56 540 77 601 c 0
 98 663 136 716 193 761 c 0
 250 805 317 827 392 826 c 0
 483 825 557 798 613 745 c 0
 669 692 703 631 715 560 c 0
 728 490 716 420 679 351 c 0
 643 282 578 232 483 200 c 1
194 587 m 1
 162 566 l 1
 194 422 l 1
 203 357 l 1
 225 351 l 1
 269 365 l 1
 229 498 l 1
 303 425 l 1
 337 435 l 1
 362 535 l 1
 383 409 l 1
 399 400 l 1
 447 417 l 1
 382 633 l 1
 340 617 l 1
 304 486 l 1
 194 587 l 1
545 679 m 1
 417 641 l 1
 469 453 l 1
 467 430 l 1
 483 424 l 1
 530 438 l 1
 508 511 l 1
 606 455 l 1
 620 455 l 1
 646 499 l 1
 569 540 l 1
 591 541 l 1
 615 583 l 1
 596 652 l 1
 545 679 l 1
491 567 m 1
 480 608 l 1
 531 624 l 1
 549 614 l 1
 550 594 l 1
 491 567 l 1
355 353 m 1
 335 319 l 1
 339 305 l 1
 333 299 l 1
 341 284 l 1
 348 288 l 1
 364 263 l 1
 384 272 l 1
 368 298 l 1
 378 304 l 1
 374 316 l 1
 360 313 l 1
 357 320 l 1
 373 345 l 1
 355 353 l 1
414 344 m 1
 375 327 l 1
 399 281 l 1
 419 290 l 1
 403 321 l 1
 421 325 l 1
 414 344 l 1
437 361 m 1
 417 349 l 1
 451 308 l 1
 494 329 l 1
 465 376 l 1
 448 367 l 1
 466 336 l 1
 459 328 l 1
 437 361 l 1
480 403 m 1
 461 395 l 1
 502 333 l 1
 516 341 l 1
 512 356 l 1
 527 346 l 1
 537 353 l 1
 538 367 l 1
 517 373 l 1
 524 393 l 1
 508 399 l 1
 500 377 l 1
 480 403 l 1
537 430 m 1
 520 424 l 1
 529 408 l 1
 521 404 l 1
 529 393 l 1
 535 395 l 1
 550 366 l 1
 562 364 l 1
 584 377 l 1
 583 389 l 1
 570 391 l 1
 562 385 l 1
 551 400 l 1
 562 406 l 1
 556 420 l 1
 545 416 l 1
 537 430 l 1
596 446 m 1
 565 427 l 1
 573 412 l 1
 595 427 l 1
 598 422 l 1
 578 409 l 1
 577 400 l 1
 589 384 l 1
 598 384 l 1
 638 405 l 1
 608 446 l 1
 596 446 l 1
601 399 m 1
 598 407 l 1
 609 416 l 1
 612 408 l 1
 601 399 l 1
EndSplineSet
EndChar

StartChar: greater
Encoding: 62 62 31
Width: 488
Flags: W
LayerCount: 2
Fore
SplineSet
30 827 m 1
 30 967 l 1
 52 967 l 2
 65 967 76 968 83 968 c 0
 154 967 197 941 213 890 c 0
 228 838 244 791 257 748 c 2
 266 717 l 2
 271 697 280 674 293 649 c 0
 306 625 321 603 340 583 c 0
 359 564 382 555 408 556 c 2
 465 555 l 1
 465 479 l 2
 465 478 455 479 436 480 c 0
 417 482 408 483 408 483 c 1
 408 483 405 478 405 478 c 1
 405 478 397 477 393 477 c 1
 393 477 393 495 393 495 c 1
 344 499 307 521 283 561 c 0
 256 604 236 650 225 697 c 0
 216 734 201 777 179 827 c 0
 157 874 127 899 88 900 c 1
 88 887 l 1
 125 887 153 862 172 812 c 0
 191 763 205 724 212 697 c 0
 220 668 233 632 250 589 c 0
 269 545 300 514 341 495 c 0
 352 490 362 487 369 486 c 2
 379 485 l 2
 355 484 332 469 311 442 c 0
 290 416 264 372 234 311 c 0
 210 263 184 218 159 173 c 2
 110 89 l 1
 119 89 l 1
 127 89 l 1
 176 176 l 2
 201 220 226 264 249 309 c 0
 275 358 299 399 321 433 c 0
 340 462 368 477 405 478 c 1
 405 478 408 483 408 483 c 1
 408 483 433 480 450 480 c 0
 458 479 465 479 465 479 c 1
 465 443 l 2
 465 428 465 420 465 420 c 1
 398 418 l 2
 393 418 383 410 366 394 c 0
 346 375 329 350 314 319 c 0
 299 288 287 260 275 237 c 0
 246 172 219 122 196 87 c 2
 159 29 l 1
 89 29 l 1
 19 29 l 1
 162 294 l 2
 171 315 188 348 211 396 c 0
 234 443 261 471 292 482 c 1
 258 488 232 509 215 544 c 0
 196 581 184 612 177 636 c 2
 167 682 l 2
 162 703 155 725 148 747 c 0
 139 769 128 788 115 804 c 0
 102 821 84 829 63 828 c 2
 30 827 l 1
EndSplineSet
EndChar

StartChar: question
Encoding: 63 63 32
Width: 771
Flags: MW
HStem: 117 21G<427 427>
LayerCount: 2
Fore
SplineSet
483 200 m 1
 427 117 l 1
 419 121 l 2
 414 124 407 126 396 133 c 2
 329 171 l 2
 305 186 283 198 262 209 c 0
 242 220 231 227 229 229 c 0
 150 278 100 336 78 404 c 0
 57 474 56 540 77 601 c 0
 98 663 136 716 193 761 c 0
 250 805 317 827 392 826 c 0
 483 825 557 798 613 745 c 0
 669 692 703 631 715 560 c 0
 728 490 716 420 679 351 c 0
 643 282 578 232 483 200 c 1
194 587 m 1
 162 566 l 1
 194 422 l 1
 203 357 l 1
 225 351 l 1
 269 365 l 1
 229 498 l 1
 303 425 l 1
 337 435 l 1
 362 535 l 1
 383 409 l 1
 399 400 l 1
 447 417 l 1
 382 633 l 1
 340 617 l 1
 304 486 l 1
 194 587 l 1
545 679 m 1
 417 641 l 1
 469 453 l 1
 467 430 l 1
 483 424 l 1
 530 438 l 1
 508 511 l 1
 606 455 l 1
 620 455 l 1
 646 499 l 1
 569 540 l 1
 591 541 l 1
 615 583 l 1
 596 652 l 1
 545 679 l 1
491 567 m 1
 480 608 l 1
 531 624 l 1
 549 614 l 1
 550 594 l 1
 491 567 l 1
355 353 m 1
 335 319 l 1
 339 305 l 1
 333 299 l 1
 341 284 l 1
 348 288 l 1
 364 263 l 1
 384 272 l 1
 368 298 l 1
 378 304 l 1
 374 316 l 1
 360 313 l 1
 357 320 l 1
 373 345 l 1
 355 353 l 1
414 344 m 1
 375 327 l 1
 399 281 l 1
 419 290 l 1
 403 321 l 1
 421 325 l 1
 414 344 l 1
437 361 m 1
 417 349 l 1
 451 308 l 1
 494 329 l 1
 465 376 l 1
 448 367 l 1
 466 336 l 1
 459 328 l 1
 437 361 l 1
480 403 m 1
 461 395 l 1
 502 333 l 1
 516 341 l 1
 512 356 l 1
 527 346 l 1
 537 353 l 1
 538 367 l 1
 517 373 l 1
 524 393 l 1
 508 399 l 1
 500 377 l 1
 480 403 l 1
537 430 m 1
 520 424 l 1
 529 408 l 1
 521 404 l 1
 529 393 l 1
 535 395 l 1
 550 366 l 1
 562 364 l 1
 584 377 l 1
 583 389 l 1
 570 391 l 1
 562 385 l 1
 551 400 l 1
 562 406 l 1
 556 420 l 1
 545 416 l 1
 537 430 l 1
596 446 m 1
 565 427 l 1
 573 412 l 1
 595 427 l 1
 598 422 l 1
 578 409 l 1
 577 400 l 1
 589 384 l 1
 598 384 l 1
 638 405 l 1
 608 446 l 1
 596 446 l 1
601 399 m 1
 598 407 l 1
 609 416 l 1
 612 408 l 1
 601 399 l 1
EndSplineSet
EndChar

StartChar: A
Encoding: 65 65 33
Width: 648
Flags: W
LayerCount: 2
Fore
SplineSet
365 814 m 1
 359 814 l 1
 223 246 l 1
 452 246 l 1
 365 814 l 1
149 187 m 1
 312 872 l 1
 417 872 l 1
 521 187 l 1
 149 187 l 1
112 20 m 1
 146 172 l 1
 523 172 l 1
 546 20 l 1
 488 20 l 1
 473 115 l 1
 189 115 l 1
 169 20 l 1
 112 20 l 1
39 20 m 1
 255 945 l 1
 483 945 l 1
 618 20 l 1
 561 20 l 1
 551 79 l 1
 538 171 l 1
 429 887 l 1
 299 887 l 1
 111 79 l 1
 125 79 l 1
 112 20 l 1
 39 20 l 1
EndSplineSet
EndChar

StartChar: B
Encoding: 66 66 34
Width: 575
Flags: W
LayerCount: 2
Fore
SplineSet
173 455 m 1
 173 151 l 1
 173 151 195 151 240 151 c 2
 326 151 l 2
 384 150 413 174 413 221 c 2
 413 314 l 2
 414 351 414 378 414 397 c 0
 414 428 402 446 378 449 c 0
 354 452 331 454 309 454 c 2
 216 454 l 2
 187 455 173 455 173 455 c 1
113 94 m 1
 114 516 l 1
 114 516 136 516 180 515 c 0
 225 514 275 515 330 516 c 0
 439 517 472 478 472 415 c 2
 472 291 l 2
 472 241 472 216 472 216 c 2
 472 123 430 94 327 94 c 0
 276 93 227 93 181 93 c 0
 136 94 113 94 113 94 c 1
173 808 m 1
 173 587 l 1
 173 587 195 587 240 587 c 2
 326 587 l 2
 384 586 413 609 413 657 c 2
 413 708 l 1
 413 750 l 2
 413 781 401 799 377 802 c 0
 354 805 331 807 309 807 c 2
 216 807 l 2
 187 808 173 808 173 808 c 1
113 529 m 1
 114 868 l 1
 114 868 136 868 180 867 c 0
 225 867 275 867 330 868 c 0
 439 871 472 829 472 768 c 0
 472 704 472 652 472 652 c 2
 472 559 430 529 327 529 c 2
 181 529 l 2
 136 529 113 529 113 529 c 1
40 945 m 1
 331 944 l 2
 413 944 470 933 501 911 c 0
 532 890 548 842 547 768 c 2
 547 673 l 2
 548 570 536 534 509 526 c 1
 509 526 506 529 506 529 c 1
 535 517 547 492 547 421 c 0
 547 282 547 197 547 197 c 2
 547 128 533 82 505 57 c 0
 478 32 420 20 331 20 c 0
 154 20 39 20 39 20 c 1
 40 945 l 1
99 886 m 1
 99 79 l 1
 329 79 l 2
 358 79 392 84 431 94 c 0
 470 105 490 139 489 197 c 0
 488 254 488 305 488 348 c 0
 488 392 488 414 488 414 c 1
 488 414 490 449 478 477 c 0
 467 499 453 512 437 517 c 0
 421 522 413 525 413 525 c 1
 449 533 470 550 477 575 c 0
 484 600 487 633 488 672 c 2
 488 750 l 2
 489 762 489 768 489 768 c 1
 489 768 488 777 487 795 c 0
 486 813 479 829 467 843 c 0
 443 871 405 886 329 886 c 2
 185 886 l 2
 128 886 99 886 99 886 c 1
EndSplineSet
EndChar

StartChar: C
Encoding: 67 67 35
Width: 649
Flags: W
LayerCount: 2
Fore
SplineSet
396 868 m 2
 436 868 470 862 497 849 c 0
 524 837 538 810 539 767 c 2
 539 766 l 1
 558 766 l 1
 557 707 l 1
 538 707 l 1
 480 707 l 1
 480 750 l 2
 479 803 444 808 375 807 c 2
 327 807 l 1
 280 807 l 2
 259 807 236 805 211 802 c 0
 187 799 175 782 175 750 c 0
 174 574 173 397 173 220 c 0
 173 188 183 168 203 160 c 0
 224 153 243 149 260 150 c 2
 313 150 l 1
 366 150 l 2
 397 148 424 151 447 159 c 0
 470 167 482 187 482 220 c 2
 482 254 l 1
 557 254 l 1
 558 195 l 1
 558 195 540 195 540 195 c 1
 536 150 521 122 495 110 c 0
 470 99 436 93 395 92 c 2
 395 92 361 91 260 92 c 0
 156 92 114 122 114 215 c 2
 114 215 114 241 114 292 c 0
 115 344 115 402 115 467 c 2
 115 654 l 2
 116 713 116 751 116 767 c 0
 116 830 148 869 259 868 c 0
 314 867 350 866 368 867 c 0
 387 868 396 868 396 868 c 2
558 195 m 2
 557 254 l 1
 557 254 567 254 586 254 c 0
 605 254 615 254 615 254 c 1
 615 195 l 2
 615 130 602 84 575 57 c 0
 549 30 490 17 399 18 c 2
 347 18 l 1
 256 18 l 2
 167 18 109 30 81 55 c 0
 54 80 40 126 40 195 c 2
 40 195 40 218 39 264 c 2
 39 428 l 1
 39 617 l 1
 39 766 l 2
 39 835 52 881 79 906 c 0
 106 931 159 943 238 943 c 2
 399 943 l 2
 472 942 527 932 564 912 c 0
 601 893 618 844 615 766 c 2
 615 707 l 1
 557 707 l 1
 558 766 l 2
 563 894 414 884 397 884 c 0
 370 884 350 884 337 883 c 2
 278 883 l 2
 203 886 154 877 133 856 c 0
 112 836 101 806 101 766 c 2
 101 766 101 740 100 687 c 0
 100 635 100 576 99 509 c 0
 98 443 98 379 98 317 c 2
 98 195 l 2
 98 116 137 77 257 77 c 2
 397 77 l 2
 474 76 520 90 535 119 c 0
 550 148 557 173 558 195 c 2
EndSplineSet
EndChar

StartChar: D
Encoding: 68 68 36
Width: 636
Flags: W
LayerCount: 2
Fore
SplineSet
173 151 m 1
 354 152 l 2
 405 149 436 154 449 168 c 0
 462 183 470 200 471 221 c 2
 471 221 471 249 470 304 c 2
 470 486 l 2
 470 552 470 613 469 668 c 0
 469 723 469 751 469 751 c 2
 468 799 445 811 364 808 c 2
 238 808 l 2
 196 809 175 809 175 809 c 1
 173 151 l 1
430 885 m 1
 430 944 l 1
 491 942 535 930 563 907 c 0
 592 885 605 838 604 767 c 2
 604 196 l 2
 604 131 591 85 564 58 c 0
 538 31 479 19 388 20 c 2
 311 20 l 1
 193 20 l 1
 86 20 l 2
 55 20 39 20 39 20 c 2
 39 19 39 67 39 163 c 2
 39 481 l 1
 39 800 l 2
 39 897 39 945 39 945 c 1
 114 944 179 943 234 943 c 0
 289 944 355 944 430 944 c 1
 430 885 l 1
 320 884 98 886 99 886 c 2
 99 886 99 844 99 759 c 2
 99 482 l 1
 99 205 l 2
 99 121 99 79 99 79 c 1
 99 79 114 79 143 78 c 2
 242 78 l 1
 341 78 l 2
 371 78 386 78 386 78 c 2
 463 77 509 90 523 119 c 0
 538 148 545 174 546 196 c 2
 543 767 l 2
 544 827 528 861 495 869 c 0
 462 878 441 883 430 885 c 1
385 869 m 2
 425 869 459 863 486 850 c 0
 513 838 527 811 527 768 c 2
 529 216 l 2
 529 162 516 128 489 115 c 0
 463 102 428 94 384 93 c 2
 384 93 370 93 341 93 c 2
 248 93 l 2
 215 94 184 94 156 94 c 0
 128 94 114 94 114 94 c 1
 114 94 114 134 114 215 c 2
 114 481 l 2
 115 578 115 667 115 748 c 0
 116 829 116 870 116 870 c 1
 116 870 130 870 158 869 c 2
 250 869 l 1
 342 869 l 2
 371 869 385 869 385 869 c 2
EndSplineSet
EndChar

StartChar: E
Encoding: 69 69 37
Width: 558
Flags: W
LayerCount: 2
Fore
SplineSet
40 945 m 1
 531 945 l 1
 531 886 l 1
 532 871 l 1
 472 871 l 1
 472 886 l 1
 99 886 l 1
 99 80 l 1
 473 79 l 1
 473 93 l 1
 113 93 l 1
 113 517 l 1
 472 517 l 1
 472 530 l 1
 113 532 l 1
 113 871 l 1
 532 871 l 1
 531 812 l 1
 172 812 l 1
 172 591 l 1
 531 590 l 1
 531 457 l 1
 172 457 l 1
 173 152 l 1
 531 151 l 1
 531 21 l 1
 367 21 203 20 39 20 c 1
 40 945 l 1
EndSplineSet
EndChar

StartChar: F
Encoding: 70 70 38
Width: 558
Flags: W
LayerCount: 2
Fore
SplineSet
40 945 m 1
 531 945 l 1
 531 886 l 1
 532 871 l 1
 472 871 l 1
 472 886 l 1
 99 886 l 1
 99 80 l 1
 113 80 l 1
 113 517 l 1
 472 516 l 1
 472 530 l 1
 113 532 l 1
 113 871 l 1
 532 871 l 1
 531 812 l 1
 172 812 l 1
 172 591 l 1
 531 590 l 1
 531 457 l 1
 172 457 l 1
 172 20 l 1
 172 20 150 20 105 20 c 0
 61 20 39 20 39 20 c 1
 40 945 l 1
EndSplineSet
EndChar

StartChar: G
Encoding: 71 71 39
Width: 649
Flags: W
LayerCount: 2
Fore
SplineSet
396 869 m 2
 396 869 387 869 368 868 c 0
 350 868 314 868 259 869 c 0
 148 872 116 830 116 769 c 0
 116 753 116 715 115 655 c 2
 115 468 l 2
 115 403 115 345 114 293 c 0
 114 242 114 216 114 216 c 2
 114 123 156 94 260 93 c 0
 360 93 395 93 395 93 c 2
 436 94 469 101 494 112 c 0
 520 123 535 152 540 197 c 0
 541 208 541 229 540 260 c 0
 540 291 540 307 540 307 c 1
 540 307 539 335 523 355 c 0
 517 362 504 371 485 382 c 0
 466 393 428 397 371 394 c 0
 370 394 370 411 370 410 c 0
 371 409 385 409 410 410 c 0
 435 412 463 408 492 399 c 0
 532 387 544 364 551 339 c 0
 556 311 556 281 556 278 c 2
 556 278 566 278 586 278 c 0
 607 278 617 278 617 278 c 1
 615 325 607 370 594 411 c 0
 581 453 523 472 418 469 c 2
 313 469 l 1
 314 333 l 1
 394 333 l 2
 467 336 485 312 482 256 c 2
 482 222 l 2
 481 189 469 169 446 160 c 0
 423 152 397 149 366 152 c 0
 341 152 323 152 313 151 c 2
 260 151 l 2
 243 151 224 155 203 162 c 0
 182 169 172 189 172 222 c 0
 173 398 174 575 174 751 c 0
 175 783 187 800 211 803 c 0
 235 806 258 808 279 808 c 2
 327 808 l 1
 375 808 l 2
 443 809 479 806 480 751 c 2
 480 708 l 1
 538 708 l 1
 557 708 l 1
 557 768 l 1
 538 768 l 1
 538 769 l 2
 538 811 524 838 497 851 c 0
 470 864 436 870 396 869 c 2
556 278 m 1
 556 278 566 278 586 278 c 0
 607 278 617 278 617 278 c 1
 615 197 l 2
 615 131 602 85 575 58 c 0
 549 32 490 19 399 20 c 2
 347 20 l 1
 255 20 l 2
 166 19 108 31 81 56 c 0
 54 81 40 128 40 197 c 2
 40 197 40 220 39 266 c 2
 39 430 l 1
 39 619 l 1
 39 767 l 2
 39 836 52 882 79 907 c 0
 106 932 159 944 238 944 c 2
 399 944 l 2
 472 943 527 933 564 913 c 0
 601 894 618 845 615 767 c 2
 615 708 l 1
 557 708 l 1
 557 768 l 1
 565 894 413 885 397 885 c 2
 337 885 l 1
 278 885 l 2
 203 888 154 879 133 858 c 0
 112 837 101 807 101 767 c 2
 101 767 101 741 100 688 c 2
 98 510 l 2
 98 444 98 380 97 318 c 2
 97 196 l 2
 97 117 137 79 257 79 c 2
 397 79 l 2
 474 78 520 92 534 123 c 0
 549 154 556 179 557 196 c 2
 556 278 l 1
EndSplineSet
EndChar

StartChar: H
Encoding: 72 72 40
Width: 670
Flags: W
LayerCount: 2
Fore
SplineSet
170 437 m 1
 112 438 l 1
 112 416 l 1
 112 495 l 1
 564 495 l 1
 565 79 l 1
 578 79 l 1
 578 886 l 1
 564 886 l 1
 564 509 l 1
 112 509 l 1
 112 945 l 1
 171 945 l 1
 171 569 l 1
 505 570 l 1
 505 945 l 1
 638 945 l 1
 638 20 l 1
 505 20 l 1
 505 436 l 1
 170 437 l 1
112 886 m 1
 98 886 l 1
 98 79 l 1
 112 79 l 1
 112 438 l 1
 118 438 l 1
 170 428 l 1
 171 20 l 1
 92 20 l 1
 40 20 l 1
 40 945 l 1
 112 945 l 1
 112 886 l 1
EndSplineSet
EndChar

StartChar: I
Encoding: 73 73 41
Width: -32768
Flags: HW
LayerCount: 2
Fore
SplineSet
174.969726562 28.2998046875 m 1
 174.969726562 -52.3603515625 l 1
 34.0595703125 -52.3603515625 l 1
 32.9921875 955.889648438 l 1
 32.9921875 955.889648438 56.4775390625 955.889648438 103.447265625 955.889648438 c 0
 151.485351562 955.889648438 174.969726562 955.889648438 174.969726562 955.889648438 c 1
 174.969726562 28.2998046875 l 1
 111.987304688 28.2998046875 l 1
 111.987304688 890.490234375 l 1
 97.04296875 890.490234375 l 1
 97.04296875 11.9501953125 l 1
 111.987304688 11.9501953125 l 1
 111.987304688 28.2998046875 l 1
 174.969726562 28.2998046875 l 1
EndSplineSet
EndChar

StartChar: J
Encoding: 74 74 42
Width: 583
Flags: W
LayerCount: 2
Fore
SplineSet
478 945 m 1
 494 945 l 1
 494 886 l 1
 494 886 478 886 478 886 c 1
 478 886 478 851 478 781 c 0
 479 712 479 635 479 551 c 0
 480 467 480 390 480 320 c 0
 481 251 481 216 481 216 c 2
 481 123 439 94 335 93 c 0
 284 93 259 93 259 93 c 2
 260 93 260 93 260 93 c 2
 219 94 185 101 159 112 c 0
 133 123 118 152 115 197 c 1
 115 197 97 197 97 197 c 1
 97 256 l 1
 172 256 l 1
 172 222 l 2
 172 189 184 169 207 161 c 0
 230 153 258 150 289 152 c 0
 314 152 322 152 312 151 c 0
 302 151 310 151 335 151 c 0
 352 151 370 155 391 162 c 0
 412 169 422 189 423 222 c 2
 423 222 423 259 422 334 c 2
 422 583 l 1
 422 832 l 2
 422 907 422 945 422 945 c 1
 422 945 431 945 450 945 c 0
 469 945 478 945 478 945 c 1
97 256 m 1
 97 196 l 2
 98 174 105 149 120 120 c 0
 135 91 180 78 257 79 c 2
 338 79 l 2
 458 79 498 117 498 196 c 0
 498 221 498 264 497 325 c 2
 497 530 l 1
 495 683 l 2
 495 739 495 767 495 767 c 2
 494 791 494 827 494 874 c 0
 494 921 494 945 494 945 c 1
 494 945 504 945 524 945 c 0
 545 945 555 945 555 945 c 1
 555 945 555 932 555 907 c 0
 556 882 556 836 556 767 c 2
 556 619 l 1
 556 430 l 1
 556 266 l 2
 556 220 556 197 556 197 c 2
 556 128 542 81 514 56 c 0
 487 31 428 19 339 20 c 2
 255 20 l 2
 164 19 105 32 78 58 c 0
 52 85 39 131 40 197 c 2
 40 256 l 1
 40 256 49 256 68 256 c 0
 87 256 97 256 97 256 c 1
EndSplineSet
EndChar

StartChar: K
Encoding: 75 75 43
Width: 581
Flags: W
LayerCount: 2
Fore
SplineSet
40 945 m 1
 112 945 l 1
 112 919 l 1
 112 886 l 1
 99 886 l 1
 100 617 100 348 99 79 c 1
 99 79 112 79 112 79 c 1
 113 20 l 1
 39 20 l 1
 40 328 40 636 40 945 c 1
112 886 m 1
 112 945 l 1
 172 945 l 1
 170 540 l 1
 222 537 259 584 283 632 c 0
 308 680 319 729 319 729 c 2
 333 772 348 818 363 869 c 0
 378 920 421 945 491 946 c 0
 497 946 507 946 521 945 c 0
 536 945 543 945 543 945 c 1
 543 807 l 1
 510 808 l 2
 428 812 408 655 398 619 c 0
 391 594 378 563 361 528 c 0
 344 493 318 473 285 467 c 1
 285 467 284 467 285 467 c 1
 316 456 342 428 364 381 c 2
 413 282 l 1
 554 20 l 1
 484 20 l 1
 416 20 l 1
 416 20 404 39 379 77 c 0
 354 115 328 164 301 225 c 2
 262 306 l 2
 247 337 231 362 212 380 c 0
 183 409 170 407 170 407 c 1
 170 407 170 387 170 346 c 2
 170 213 l 2
 171 165 171 121 171 80 c 0
 172 40 172 20 172 20 c 1
 113 20 l 1
 112 99 112 173 112 243 c 2
 112 468 l 1
 146 468 l 2
 162 468 170 468 170 468 c 2
 206 468 235 451 256 418 c 0
 278 385 302 345 327 296 c 0
 378 200 428 116 447 79 c 1
 447 79 464 79 464 79 c 1
 458 91 442 119 416 162 c 0
 390 206 365 251 342 298 c 0
 283 418 247 467 199 470 c 1
 199 470 213 469 236 480 c 0
 277 499 307 530 325 573 c 0
 344 616 357 652 364 679 c 0
 371 706 384 743 403 792 c 0
 422 841 450 866 486 866 c 1
 486 879 l 1
 447 878 417 854 396 807 c 0
 375 760 360 717 351 679 c 0
 339 632 320 587 293 544 c 0
 267 501 226 480 170 479 c 2
 112 479 l 1
 112 886 l 1
EndSplineSet
EndChar

StartChar: L
Encoding: 76 76 44
Width: 558
Flags: W
LayerCount: 2
Fore
SplineSet
531 79 m 1
 531 20 l 1
 40 20 l 1
 39 945 l 1
 39 945 61 945 105 945 c 0
 150 945 172 945 172 945 c 1
 172 152 l 1
 531 152 l 1
 532 94 l 1
 113 93 l 1
 113 885 l 1
 99 885 l 1
 99 79 l 1
 472 79 l 1
 472 94 l 1
 532 94 l 1
 531 79 l 1
EndSplineSet
EndChar

StartChar: M
Encoding: 77 77 45
Width: 918
Flags: W
LayerCount: 2
Fore
SplineSet
39 20 m 1
 40 945 l 1
 217 945 l 1
 275 708 l 1
 457 196 l 1
 638 709 l 1
 700 945 l 1
 875 945 l 1
 874 20 l 1
 743 20 l 1
 742 669 l 1
 751 708 l 1
 795 828 l 1
 742 709 l 1
 525 20 l 1
 388 20 l 1
 171 709 l 1
 119 828 l 1
 162 708 l 1
 171 669 l 1
 171 20 l 1
 39 20 l 1
99 79 m 1
 112 79 l 1
 112 871 l 1
 141 871 l 1
 208 710 l 1
 449 79 l 1
 464 79 l 1
 706 708 l 1
 772 871 l 1
 801 871 l 1
 801 79 l 1
 815 79 l 1
 815 886 l 1
 762 886 l 1
 691 708 l 1
 457 94 l 1
 222 711 l 1
 151 886 l 1
 99 886 l 1
 99 79 l 1
EndSplineSet
EndChar

StartChar: N
Encoding: 78 78 46
Width: 682
Flags: W
LayerCount: 2
Fore
SplineSet
575 945 m 1
 649 945 l 1
 649 20 l 1
 589 20 l 1
 491 20 l 1
 186 610 l 1
 133 729 l 1
 176 609 l 1
 176 20 l 1
 39 20 l 1
 39 945 l 1
 196 945 l 1
 501 315 l 1
 554 196 l 1
 511 316 l 1
 511 945 l 1
 575 945 l 1
 570 103 l 1
 119 886 l 1
 104 886 l 1
 104 689 l 1
 104 79 l 1
 117 79 l 1
 117 669 l 1
 117 865 l 1
 570 79 l 1
 585 79 l 1
 586 886 l 1
 575 886 l 1
 575 945 l 1
EndSplineSet
EndChar

StartChar: O
Encoding: 79 79 47
Width: 697
Flags: W
LayerCount: 2
Fore
SplineSet
413 152 m 2
 464 149 495 154 508 169 c 0
 521 184 528 201 529 222 c 2
 529 222 529 249 528 304 c 2
 528 486 l 2
 528 552 528 613 527 668 c 0
 527 723 527 751 527 751 c 2
 526 799 503 810 422 809 c 2
 422 809 406 809 375 809 c 2
 279 809 l 2
 256 809 233 807 209 803 c 0
 186 800 174 782 174 751 c 0
 174 742 174 711 173 660 c 2
 173 491 l 2
 173 430 173 373 172 320 c 2
 172 222 l 2
 172 174 201 151 260 152 c 2
 345 152 l 2
 390 152 413 152 413 152 c 2
488 885 m 1
 488 944 l 1
 549 943 594 931 622 908 c 0
 650 885 664 838 663 767 c 2
 663 197 l 2
 663 131 650 85 623 58 c 0
 596 32 537 19 446 20 c 2
 371 20 l 1
 256 20 l 2
 167 20 109 32 81 57 c 0
 54 82 40 128 40 197 c 2
 40 197 40 220 39 266 c 2
 39 430 l 1
 39 619 l 1
 39 767 l 2
 39 836 52 883 79 907 c 0
 106 932 159 944 238 944 c 2
 488 944 l 1
 488 885 l 1
 278 885 l 2
 203 888 154 879 133 858 c 0
 112 837 101 807 101 767 c 2
 101 767 101 741 100 689 c 2
 98 511 l 2
 98 445 98 381 97 319 c 2
 97 197 l 2
 97 118 137 78 257 78 c 2
 445 78 l 2
 522 77 568 91 582 120 c 0
 597 149 604 174 604 197 c 2
 602 767 l 2
 603 828 586 862 553 870 c 0
 520 878 499 883 488 885 c 1
443 869 m 2
 483 870 517 864 544 851 c 0
 571 839 585 812 586 769 c 2
 588 216 l 2
 587 163 574 129 547 115 c 0
 521 102 486 95 442 94 c 2
 442 94 424 94 388 93 c 0
 353 93 310 93 260 94 c 0
 156 94 114 123 114 216 c 2
 114 216 114 242 114 293 c 0
 115 345 115 403 115 468 c 2
 115 655 l 2
 116 715 116 753 116 769 c 0
 116 830 148 872 259 869 c 0
 368 868 443 869 443 869 c 2
EndSplineSet
EndChar

StartChar: P
Encoding: 80 80 48
Width: 574
Flags: W
LayerCount: 2
Fore
SplineSet
173 812 m 1
 173 509 l 1
 173 509 187 509 216 509 c 0
 245 510 276 510 309 510 c 0
 332 510 355 512 378 515 c 0
 402 518 414 535 414 566 c 2
 414 649 l 1
 414 742 l 2
 413 789 384 813 326 812 c 2
 241 812 l 2
 196 812 173 812 173 812 c 1
172 78 m 1
 172 20 l 1
 39 20 l 1
 39 945 l 1
 39 945 152 944 331 944 c 0
 420 944 478 932 505 907 c 0
 533 882 547 836 547 767 c 2
 547 767 547 688 547 551 c 0
 547 482 534 435 507 410 c 0
 481 386 429 374 350 374 c 2
 173 374 l 1
 172 92 l 1
 113 92 l 1
 113 433 l 1
 236 433 l 2
 285 433 310 433 310 433 c 2
 385 430 434 439 455 460 c 0
 476 481 487 511 488 551 c 2
 488 551 488 577 488 629 c 0
 489 682 489 728 489 768 c 0
 489 845 449 886 329 886 c 2
 98 886 l 1
 98 78 l 1
 113 78 l 1
 113 92 l 1
 172 92 l 1
 172 78 l 1
114 449 m 1
 113 871 l 1
 113 871 136 871 181 871 c 2
 326 871 l 2
 430 870 472 841 472 748 c 2
 472 748 472 723 472 672 c 2
 472 549 l 2
 472 486 439 446 330 449 c 0
 275 450 225 450 180 449 c 0
 136 449 114 449 114 449 c 1
EndSplineSet
EndChar

StartChar: Q
Encoding: 81 81 49
Width: 696
Flags: W
LayerCount: 2
Fore
SplineSet
313 348 m 1
 313 348 320 338 334 317 c 2
 380 249 l 2
 397 225 413 203 427 182 c 0
 442 162 449 152 449 152 c 1
 483 153 504 161 513 174 c 0
 522 188 528 204 529 222 c 2
 529 222 529 249 528 304 c 0
 528 359 528 420 527 486 c 2
 527 668 l 2
 527 723 527 751 527 751 c 2
 524 799 503 810 422 809 c 2
 422 809 406 809 375 809 c 2
 279 809 l 2
 256 809 233 807 209 803 c 0
 186 800 174 782 174 751 c 0
 174 742 174 711 173 660 c 0
 173 609 173 552 172 491 c 2
 172 320 l 1
 172 222 l 2
 172 174 201 151 260 152 c 2
 287 152 l 1
 287 152 203 271 204 271 c 2
 204 271 222 284 258 309 c 0
 295 335 313 348 313 348 c 1
488 885 m 1
 487 944 l 1
 549 943 594 931 622 908 c 0
 650 885 663 838 662 767 c 2
 662 197 l 2
 662 144 654 104 638 77 c 0
 622 50 588 32 537 25 c 1
 537 25 549 8 572 -26 c 0
 596 -61 608 -78 608 -78 c 1
 608 -78 457 -96 459 -99 c 1
 458 -99 378 20 377 20 c 2
 377 20 361 20 328 20 c 2
 255 20 l 2
 166 20 108 32 80 57 c 0
 53 82 39 128 39 197 c 2
 39 197 39 220 39 266 c 2
 39 430 l 1
 39 619 l 1
 39 767 l 2
 39 836 52 883 79 907 c 0
 106 932 159 944 238 944 c 2
 487 944 l 1
 488 885 l 1
 278 885 l 2
 203 888 154 879 132 858 c 0
 111 837 100 807 100 767 c 2
 100 767 100 741 99 689 c 0
 99 637 99 578 98 511 c 0
 98 445 98 381 97 319 c 2
 97 197 l 2
 97 118 136 78 257 79 c 2
 408 79 l 1
 489 -40 l 1
 506 -37 l 1
 426 79 l 1
 444 79 l 2
 521 78 567 91 582 120 c 0
 597 149 604 175 604 197 c 2
 601 767 l 2
 602 828 586 862 553 870 c 0
 520 878 499 883 488 885 c 1
442 870 m 2
 482 870 516 864 543 851 c 0
 570 839 584 812 585 769 c 2
 587 216 l 2
 586 163 573 129 546 115 c 0
 520 102 485 95 441 94 c 2
 441 94 432 93 416 93 c 1
 416 93 298 263 299 263 c 2
 299 263 287 255 287 255 c 2
 286 255 313 214 341 174 c 0
 369 134 397 93 397 93 c 1
 365 93 315 93 259 94 c 0
 155 94 113 123 114 216 c 2
 114 216 114 242 114 293 c 2
 114 468 l 2
 115 533 115 596 115 655 c 0
 116 715 116 753 116 769 c 0
 116 832 149 871 258 870 c 0
 367 867 442 870 442 870 c 2
EndSplineSet
EndChar

StartChar: R
Encoding: 82 82 50
Width: 619
Flags: W
LayerCount: 2
Fore
SplineSet
174 812 m 1
 174 508 l 1
 174 508 188 508 217 509 c 0
 246 510 276 510 309 510 c 0
 332 510 356 512 379 515 c 0
 402 518 414 535 414 566 c 2
 414 649 l 1
 414 742 l 2
 414 789 385 813 327 812 c 2
 241 812 l 2
 196 812 174 812 174 812 c 1
173 20 m 1
 40 20 l 1
 40 944 l 1
 40 944 154 943 331 944 c 0
 420 944 478 932 505 907 c 0
 533 882 547 836 547 767 c 2
 547 767 547 688 547 551 c 0
 547 492 538 449 519 423 c 0
 501 397 465 381 410 376 c 1
 410 376 429 340 449 291 c 1
 449 291 456 277 471 248 c 2
 519 155 l 1
 567 62 l 2
 582 34 589 20 589 20 c 1
 452 20 l 1
 415 76 372 151 337 232 c 0
 317 280 296 331 264 374 c 1
 173 374 l 1
 173 92 l 1
 114 91 l 1
 114 433 l 1
 206 433 l 1
 292 433 l 2
 293 433 301 420 316 395 c 0
 331 370 347 340 363 306 c 0
 386 259 410 215 433 173 c 0
 457 132 474 101 483 81 c 1
 483 81 500 81 500 81 c 1
 486 108 467 142 443 182 c 0
 420 223 398 265 379 308 c 0
 340 391 309 433 309 433 c 2
 310 433 311 433 311 433 c 2
 386 430 435 439 456 460 c 0
 477 481 488 511 488 551 c 2
 488 551 488 577 488 629 c 0
 489 682 489 728 489 767 c 0
 489 846 450 886 330 886 c 2
 99 886 l 1
 99 78 l 1
 114 78 l 1
 114 91 l 1
 173 92 l 1
 173 77 l 1
 173 20 l 1
114 449 m 1
 113 870 l 1
 113 870 136 870 182 870 c 0
 228 871 276 871 327 871 c 0
 431 870 473 841 473 748 c 2
 473 748 473 723 473 672 c 2
 473 549 l 2
 473 518 463 493 443 474 c 0
 423 456 385 448 330 449 c 0
 275 450 226 450 181 449 c 0
 136 449 114 449 114 449 c 1
EndSplineSet
EndChar

StartChar: S
Encoding: 83 83 51
Width: 652
Flags: W
LayerCount: 2
Fore
SplineSet
241 945 m 2
 402 945 l 2
 475 944 530 934 566 914 c 0
 603 895 620 846 618 768 c 2
 618 709 l 1
 483 709 l 1
 483 752 l 2
 480 807 446 810 378 810 c 2
 282 810 l 2
 261 809 238 807 214 804 c 0
 190 801 178 784 177 752 c 0
 176 752 176 612 175 612 c 1
 175 580 185 560 206 553 c 0
 227 546 246 542 263 542 c 2
 315 542 l 2
 325 543 343 543 369 543 c 0
 405 540 447 540 495 541 c 0
 543 542 578 521 599 476 c 0
 612 441 616 406 616 369 c 0
 616 300 616 254 615 231 c 0
 615 208 615 197 615 197 c 2
 615 128 601 81 573 56 c 0
 546 31 488 19 399 20 c 2
 306 20 l 1
 255 20 l 2
 164 19 105 32 78 58 c 0
 52 85 39 131 40 197 c 2
 39 256 l 1
 172 256 l 1
 172 221 l 2
 172 189 184 169 207 160 c 0
 230 152 258 149 289 152 c 0
 314 152 332 152 341 151 c 2
 395 151 l 2
 412 151 430 155 451 162 c 0
 472 169 482 189 482 221 c 2
 482 221 482 243 481 287 c 0
 480 332 480 354 480 354 c 2
 479 379 471 395 455 401 c 0
 439 407 422 410 403 411 c 2
 259 411 l 2
 170 410 111 422 83 447 c 0
 56 472 42 518 42 587 c 2
 42 626 l 1
 42 768 l 2
 42 837 55 883 82 908 c 0
 109 933 162 945 241 945 c 2
541 769 m 1
 560 769 l 1
 562 820 546 852 513 867 c 0
 480 882 442 889 400 887 c 0
 355 883 304 887 259 887 c 2
 259 887 248 886 225 885 c 0
 202 884 183 881 167 875 c 0
 138 864 120 849 112 828 c 0
 107 812 104 787 103 754 c 0
 102 737 102 705 101 658 c 0
 101 611 101 588 101 588 c 2
 101 517 129 479 186 476 c 0
 243 473 307 471 378 470 c 0
 449 468 491 460 506 446 c 0
 521 433 531 416 537 396 c 1
 537 396 537 370 538 319 c 2
 541 216 l 1
 541 216 540 205 538 183 c 0
 537 162 530 144 517 130 c 0
 495 106 458 94 405 93 c 0
 381 93 346 93 299 94 c 0
 252 95 229 95 229 95 c 2
 168 96 119 130 115 197 c 1
 115 197 97 197 97 197 c 1
 103 146 120 113 147 99 c 0
 175 86 208 79 247 79 c 2
 340 79 l 2
 381 79 402 79 402 79 c 1
 402 79 417 80 448 82 c 0
 479 84 502 92 519 105 c 0
 550 132 557 162 557 189 c 0
 557 216 554 376 554 376 c 1
 554 376 553 387 551 408 c 0
 549 430 539 447 521 460 c 0
 486 485 440 487 383 487 c 0
 354 487 326 487 301 486 c 0
 276 485 263 485 263 485 c 2
 202 485 162 496 143 518 c 0
 124 540 116 574 117 620 c 1
 117 619 120 783 120 783 c 1
 120 783 121 791 124 807 c 0
 127 824 137 838 154 849 c 0
 189 870 239 871 266 871 c 0
 279 870 303 870 340 870 c 0
 377 870 396 870 396 870 c 1
 396 870 407 870 429 869 c 0
 452 869 471 866 486 859 c 0
 517 846 525 833 530 822 c 0
 534 811 541 798 541 769 c 1
EndSplineSet
EndChar

StartChar: T
Encoding: 84 84 52
Width: 800
Flags: W
LayerCount: 2
Fore
SplineSet
40 945 m 1
 762 945 l 1
 762 886 l 1
 762 872 l 1
 703 872 l 1
 703 886 l 1
 394 886 l 1
 99 886 l 1
 99 872 l 1
 394 873 l 1
 394 81 l 1
 409 81 l 1
 409 873 l 1
 762 872 l 1
 762 813 l 1
 467 813 l 1
 416 814 l 1
 467 805 l 1
 467 20 l 1
 394 20 l 1
 394 20 384 20 364 20 c 0
 344 20 334 20 334 20 c 1
 334 813 l 1
 40 813 l 1
 40 945 l 1
EndSplineSet
EndChar

StartChar: U
Encoding: 85 85 53
Width: 645
Flags: W
LayerCount: 2
Fore
SplineSet
174 869 m 1
 175 653 172 437 172 222 c 0
 172 190 182 170 203 162 c 0
 224 155 243 151 260 152 c 2
 312 152 l 1
 365 152 l 2
 396 150 423 153 446 161 c 0
 469 169 481 189 481 222 c 2
 481 919 l 1
 481 935 l 1
 481 945 l 1
 557 945 l 1
 557 905 l 1
 542 906 l 1
 542 906 542 869 541 795 c 0
 541 721 541 640 540 551 c 0
 540 462 540 381 539 307 c 0
 539 234 539 197 539 197 c 1
 535 152 520 124 494 112 c 0
 469 101 435 95 394 94 c 2
 394 94 360 93 260 94 c 0
 155 94 113 123 114 216 c 2
 114 216 114 250 114 318 c 2
 114 542 l 2
 115 624 115 699 115 767 c 0
 116 835 116 869 116 869 c 1
 116 869 126 869 145 869 c 0
 164 869 174 869 174 869 c 1
557 197 m 2
 557 945 l 1
 557 945 566 945 585 945 c 0
 604 945 614 945 614 945 c 1
 614 936 l 1
 614 918 l 1
 615 197 l 2
 615 132 602 86 575 59 c 0
 549 32 490 19 398 20 c 2
 347 20 l 1
 255 20 l 2
 166 20 108 32 80 57 c 0
 53 82 39 128 39 197 c 2
 39 197 39 236 39 314 c 2
 39 571 l 1
 39 828 l 2
 39 906 39 945 39 945 c 2
 38 945 174 945 175 945 c 1
 175 920 174 894 174 869 c 1
 116 869 l 1
 116 886 l 1
 99 886 l 1
 99 886 99 854 98 789 c 0
 98 724 98 651 97 570 c 2
 97 337 l 1
 97 197 l 2
 97 118 136 79 257 79 c 2
 397 79 l 2
 474 78 520 91 534 120 c 0
 549 149 556 175 557 197 c 2
EndSplineSet
EndChar

StartChar: V
Encoding: 86 86 54
Width: 648
Flags: W
LayerCount: 2
Fore
SplineSet
453 20 m 1
 225 20 l 1
 40 945 l 1
 112 945 l 1
 125 886 l 1
 111 885 l 1
 269 78 l 1
 399 78 l 1
 538 793 l 1
 552 886 l 1
 561 944 l 1
 618 945 l 1
 453 20 l 1
282 93 m 1
 112 945 l 1
 169 945 l 1
 330 150 l 1
 335 150 l 1
 473 850 l 1
 488 945 l 1
 561 944 l 1
 552 886 l 1
 537 886 l 1
 523 792 l 1
 387 93 l 1
 282 93 l 1
EndSplineSet
EndChar

StartChar: W
Encoding: 87 87 55
Width: 1096
Flags: W
LayerCount: 2
Fore
SplineSet
899 850 m 1
 914 945 l 1
 987 945 l 1
 1044 945 l 1
 879 20 l 1
 651 20 l 1
 546 543 l 1
 453 20 l 1
 225 20 l 1
 40 945 l 1
 112 945 l 1
 169 945 l 1
 330 150 l 1
 335 150 l 1
 473 850 l 1
 478 882 l 1
 466 945 l 1
 538 945 l 1
 595 945 l 1
 595 945 l 1
 595 945 l 1
 756 150 l 1
 762 150 l 1
 899 850 l 1
282 93 m 1
 124 886 l 1
 111 885 l 1
 269 78 l 1
 399 78 l 1
 538 793 l 1
 545 842 l 1
 555 793 l 1
 695 78 l 1
 826 78 l 1
 965 793 l 1
 978 886 l 1
 963 886 l 1
 950 792 l 1
 813 93 l 1
 708 93 l 1
 550 886 l 1
 537 886 l 1
 523 792 l 1
 387 93 l 1
 282 93 l 1
EndSplineSet
EndChar

StartChar: X
Encoding: 88 88 56
Width: 847
Flags: W
LayerCount: 2
Fore
SplineSet
423 488 m 1
 423 551 l 1
 445 552 l 2
 448 552 462 566 466 570 c 0
 503 613 530 671 555 731 c 0
 578 786 602 835 629 878 c 0
 656 921 669 943 669 943 c 1
 742 943 l 2
 785 943 807 943 807 943 c 1
 807 943 800 929 785 900 c 2
 736 807 l 1
 688 714 l 2
 674 686 667 672 667 672 c 1
 667 672 589 480 538 475 c 1
 569 464 595 434 618 386 c 0
 641 339 657 304 667 283 c 2
 807 12 l 1
 669 12 l 1
 669 12 657 32 632 71 c 0
 608 110 582 162 555 225 c 2
 516 309 l 2
 501 341 484 366 466 385 c 0
 437 416 424 413 424 413 c 1
 424 413 424 423 423 444 c 0
 423 465 423 476 423 476 c 1
 460 475 489 458 510 424 c 0
 531 390 555 348 580 298 c 0
 631 198 681 113 701 73 c 1
 701 73 717 73 717 73 c 1
 711 86 695 114 669 159 c 0
 644 204 619 251 596 300 c 0
 537 424 501 475 452 478 c 1
 483 477 512 499 538 546 c 0
 564 593 583 630 596 655 c 0
 632 727 678 809 717 882 c 1
 701 882 l 1
 701 882 686 854 655 797 c 0
 624 741 599 694 580 657 c 0
 551 598 521 534 482 501 c 0
 481 501 481 501 481 501 c 1
 464 492 444 488 423 488 c 1
423 415 m 1
 423 413 l 1
 401 412 l 2
 396 408 389 402 380 393 c 0
 343 350 317 292 292 232 c 0
 268 177 243 127 216 84 c 0
 190 41 177 20 177 20 c 1
 103 20 l 2
 60 20 39 20 39 20 c 1
 39 20 46 34 61 62 c 2
 109 155 l 1
 158 248 l 2
 173 277 180 291 180 291 c 1
 180 291 257 483 308 488 c 1
 277 499 251 529 228 576 c 0
 205 624 189 659 180 680 c 2
 39 951 l 1
 177 951 l 1
 177 951 189 931 213 892 c 0
 238 853 264 802 292 739 c 0
 302 714 315 686 330 654 c 0
 345 622 362 597 380 578 c 0
 409 547 423 551 423 551 c 1
 423 551 423 550 423 550 c 2
 423 522 423 488 423 488 c 1
 387 488 358 505 336 539 c 0
 315 573 291 615 266 665 c 0
 215 765 165 851 146 890 c 1
 146 890 129 890 129 890 c 1
 135 877 151 848 176 803 c 0
 202 758 227 711 250 663 c 0
 309 540 345 488 394 485 c 1
 363 486 334 463 308 416 c 0
 282 369 263 333 250 308 c 0
 215 235 168 154 129 81 c 1
 146 81 l 1
 146 81 161 109 191 165 c 0
 222 222 247 269 266 306 c 0
 297 365 325 429 365 462 c 0
 382 471 401 475 423 476 c 1
 423 415 l 1
EndSplineSet
EndChar

StartChar: Y
Encoding: 89 89 57
Width: 982
Flags: W
LayerCount: 2
Fore
SplineSet
495 20 m 1
 422 20 l 1
 423 424 l 1
 368 425 325 445 293 485 c 0
 262 526 224 592 180 683 c 1
 40 945 l 1
 108 945 l 1
 178 945 l 1
 178 945 190 926 214 887 c 0
 239 849 265 800 292 739 c 2
 331 657 l 2
 346 626 363 602 381 584 c 0
 410 555 423 558 423 558 c 1
 447 557 471 557 494 557 c 1
 494 497 l 1
 424 497 l 2
 387 497 358 513 337 546 c 0
 316 579 292 619 267 668 c 0
 215 764 165 847 146 886 c 1
 146 886 129 886 129 886 c 1
 135 873 151 845 177 801 c 0
 203 758 228 713 251 666 c 0
 276 617 301 574 326 537 c 0
 351 500 384 483 424 485 c 2
 482 483 l 1
 481 79 l 1
 495 79 l 1
 495 45 l 1
 495 20 l 1
495 20 m 1
 554 20 l 1
 552 424 l 1
 668 421 758 603 795 683 c 1
 936 945 l 1
 798 945 l 1
 798 945 786 926 761 887 c 0
 737 849 711 800 684 739 c 2
 644 657 l 2
 629 626 613 602 595 584 c 0
 566 555 552 558 552 558 c 1
 552 558 544 558 528 557 c 2
 494 557 l 1
 494 518 494 500 494 503 c 2
 494 526 l 1
 494 550 l 2
 494 554 494 536 494 497 c 1
 528 497 l 2
 544 497 552 497 552 497 c 2
 588 497 617 513 638 546 c 0
 660 579 684 619 709 668 c 0
 760 764 810 847 829 886 c 1
 829 886 846 886 846 886 c 1
 840 873 824 845 798 801 c 0
 772 758 748 713 725 666 c 0
 713 639 700 616 689 597 c 0
 655 536 624 502 597 495 c 0
 570 488 555 485 552 485 c 2
 494 483 l 1
 495 79 l 1
 495 20 l 1
EndSplineSet
EndChar

StartChar: Z
Encoding: 90 90 58
Width: 642
Flags: W
LayerCount: 2
Fore
SplineSet
251 945 m 2
 412 945 l 2
 491 945 543 933 570 908 c 0
 597 884 611 837 611 768 c 2
 611 768 611 758 610 738 c 0
 610 718 610 708 610 708 c 1
 586 678 550 636 501 581 c 2
 354 420 l 2
 305 367 263 320 226 281 c 0
 189 242 171 222 171 222 c 1
 171 189 181 169 202 162 c 0
 223 155 242 151 259 152 c 2
 311 152 l 1
 364 152 l 1
 364 152 376 152 399 151 c 2
 477 151 l 1
 555 151 l 2
 578 151 590 151 590 151 c 1
 590 20 l 1
 590 20 581 20 562 19 c 0
 544 19 489 19 397 20 c 2
 346 20 l 1
 254 20 l 2
 165 20 107 32 79 56 c 0
 52 81 38 128 38 197 c 2
 38 197 38 210 39 236 c 0
 40 262 40 275 40 275 c 1
 40 275 63 300 108 349 c 2
 257 514 l 1
 407 678 l 2
 453 728 476 753 476 753 c 1
 475 784 463 801 439 804 c 0
 415 807 392 809 371 810 c 2
 275 810 l 1
 275 810 264 810 241 810 c 2
 166 810 l 1
 90 810 l 2
 67 810 56 810 56 810 c 1
 56 946 l 1
 56 946 104 945 251 945 c 2
112 887 m 1
 113 876 113 871 113 871 c 1
 113 871 126 871 152 870 c 2
 240 870 l 1
 333 870 l 2
 362 870 381 870 388 871 c 0
 401 871 418 870 440 868 c 0
 462 866 482 860 499 849 c 0
 516 838 526 824 529 807 c 0
 532 791 534 783 534 783 c 1
 534 783 534 775 533 759 c 0
 533 743 533 735 533 735 c 1
 533 735 510 710 464 659 c 0
 419 608 369 553 314 492 c 2
 165 325 l 2
 120 275 97 250 97 250 c 1
 97 250 97 240 96 220 c 0
 96 200 96 190 96 190 c 2
 96 162 102 132 135 105 c 0
 151 92 174 84 205 82 c 0
 236 80 251 79 251 79 c 1
 251 79 271 79 312 79 c 2
 406 79 l 2
 482 79 534 79 534 79 c 1
 534 79 534 95 534 95 c 1
 534 95 515 95 478 95 c 0
 441 95 423 95 423 95 c 1
 423 95 400 95 353 94 c 0
 307 93 272 93 248 94 c 0
 195 94 158 106 136 130 c 0
 123 144 116 162 115 183 c 0
 114 205 113 216 113 216 c 1
 113 216 113 221 114 230 c 0
 115 240 115 245 115 245 c 1
 115 245 138 270 183 320 c 0
 228 371 278 426 332 486 c 2
 482 652 l 2
 528 703 551 728 551 728 c 1
 551 728 550 755 550 755 c 2
 549 788 546 813 541 828 c 0
 533 849 515 864 486 875 c 0
 470 882 451 885 428 886 c 0
 406 887 395 887 395 887 c 1
 395 887 380 887 350 887 c 2
 253 887 l 1
 156 887 l 2
 127 887 112 887 112 887 c 1
EndSplineSet
EndChar

StartChar: bracketleft
Encoding: 91 91 59
Width: 488
Flags: W
LayerCount: 2
Fore
SplineSet
433 967 m 2
 454 967 l 1
 454 827 l 1
 421 828 l 2
 400 829 382 821 369 804 c 0
 356 788 345 769 336 747 c 0
 329 725 322 703 317 682 c 2
 307 636 l 2
 300 612 287 581 270 544 c 0
 253 509 227 488 193 482 c 1
 224 471 250 443 273 396 c 0
 296 348 313 315 322 294 c 2
 465 29 l 1
 395 29 l 1
 326 29 l 1
 288 87 l 2
 263 124 237 174 209 237 c 2
 170 319 l 2
 155 350 138 375 119 394 c 0
 102 410 91 418 86 418 c 2
 19 420 l 1
 19 420 19 428 19 443 c 0
 20 459 20 471 20 479 c 1
 20 479 25 479 34 480 c 0
 50 480 76 483 76 483 c 1
 76 483 79 478 79 478 c 1
 116 477 145 462 164 433 c 0
 185 399 209 358 235 309 c 0
 258 264 283 220 308 176 c 0
 333 133 349 104 357 89 c 1
 366 89 l 1
 374 89 l 1
 369 99 353 127 326 173 c 0
 297 222 271 268 250 311 c 0
 220 372 195 416 174 442 c 0
 153 469 130 484 105 485 c 2
 116 486 l 2
 122 487 131 490 143 495 c 0
 185 514 215 545 234 589 c 0
 251 630 264 666 273 697 c 0
 279 723 292 761 312 812 c 0
 332 862 360 887 396 887 c 1
 396 900 l 1
 357 899 326 874 305 827 c 0
 284 779 269 736 260 697 c 0
 247 649 228 604 201 561 c 0
 178 521 141 499 92 495 c 1
 92 495 92 477 92 477 c 1
 88 477 79 478 79 478 c 1
 79 478 76 483 76 483 c 1
 76 483 67 482 48 480 c 0
 29 479 20 478 20 479 c 2
 20 555 l 1
 76 556 l 2
 102 555 125 564 144 583 c 0
 163 602 178 624 191 649 c 0
 204 675 213 698 218 717 c 2
 227 748 l 2
 240 791 256 838 272 890 c 0
 287 941 330 967 401 968 c 0
 408 968 417 967 433 967 c 2
EndSplineSet
EndChar

StartChar: backslash
Encoding: 92 92 60
Width: 771
Flags: MW
HStem: 117 21G<427 427>
LayerCount: 2
Fore
SplineSet
483 200 m 1
 427 117 l 1
 419 121 l 2
 414 124 407 126 396 133 c 2
 329 171 l 2
 305 186 283 198 262 209 c 0
 242 220 231 227 229 229 c 0
 150 278 100 336 78 404 c 0
 57 474 56 540 77 601 c 0
 98 663 136 716 193 761 c 0
 250 805 317 827 392 826 c 0
 483 825 557 798 613 745 c 0
 669 692 703 631 715 560 c 0
 728 490 716 420 679 351 c 0
 643 282 578 232 483 200 c 1
194 587 m 1
 162 566 l 1
 194 422 l 1
 203 357 l 1
 225 351 l 1
 269 365 l 1
 229 498 l 1
 303 425 l 1
 337 435 l 1
 362 535 l 1
 383 409 l 1
 399 400 l 1
 447 417 l 1
 382 633 l 1
 340 617 l 1
 304 486 l 1
 194 587 l 1
545 679 m 1
 417 641 l 1
 469 453 l 1
 467 430 l 1
 483 424 l 1
 530 438 l 1
 508 511 l 1
 606 455 l 1
 620 455 l 1
 646 499 l 1
 569 540 l 1
 591 541 l 1
 615 583 l 1
 596 652 l 1
 545 679 l 1
491 567 m 1
 480 608 l 1
 531 624 l 1
 549 614 l 1
 550 594 l 1
 491 567 l 1
355 353 m 1
 335 319 l 1
 339 305 l 1
 333 299 l 1
 341 284 l 1
 348 288 l 1
 364 263 l 1
 384 272 l 1
 368 298 l 1
 378 304 l 1
 374 316 l 1
 360 313 l 1
 357 320 l 1
 373 345 l 1
 355 353 l 1
414 344 m 1
 375 327 l 1
 399 281 l 1
 419 290 l 1
 403 321 l 1
 421 325 l 1
 414 344 l 1
437 361 m 1
 417 349 l 1
 451 308 l 1
 494 329 l 1
 465 376 l 1
 448 367 l 1
 466 336 l 1
 459 328 l 1
 437 361 l 1
480 403 m 1
 461 395 l 1
 502 333 l 1
 516 341 l 1
 512 356 l 1
 527 346 l 1
 537 353 l 1
 538 367 l 1
 517 373 l 1
 524 393 l 1
 508 399 l 1
 500 377 l 1
 480 403 l 1
537 430 m 1
 520 424 l 1
 529 408 l 1
 521 404 l 1
 529 393 l 1
 535 395 l 1
 550 366 l 1
 562 364 l 1
 584 377 l 1
 583 389 l 1
 570 391 l 1
 562 385 l 1
 551 400 l 1
 562 406 l 1
 556 420 l 1
 545 416 l 1
 537 430 l 1
596 446 m 1
 565 427 l 1
 573 412 l 1
 595 427 l 1
 598 422 l 1
 578 409 l 1
 577 400 l 1
 589 384 l 1
 598 384 l 1
 638 405 l 1
 608 446 l 1
 596 446 l 1
601 399 m 1
 598 407 l 1
 609 416 l 1
 612 408 l 1
 601 399 l 1
EndSplineSet
EndChar

StartChar: bracketright
Encoding: 93 93 61
Width: 488
Flags: W
LayerCount: 2
Fore
SplineSet
30 827 m 1
 30 967 l 1
 52 967 l 2
 65 967 76 968 83 968 c 0
 154 967 197 941 213 890 c 0
 228 838 244 791 257 748 c 2
 266 717 l 2
 271 697 280 674 293 649 c 0
 306 625 321 603 340 583 c 0
 359 564 382 555 408 556 c 2
 465 555 l 1
 465 479 l 2
 465 478 455 479 436 480 c 0
 417 482 408 483 408 483 c 1
 408 483 405 478 405 478 c 1
 405 478 397 477 393 477 c 1
 393 477 393 495 393 495 c 1
 344 499 307 521 283 561 c 0
 256 604 236 650 225 697 c 0
 216 734 201 777 179 827 c 0
 157 874 127 899 88 900 c 1
 88 887 l 1
 125 887 153 862 172 812 c 0
 191 763 205 724 212 697 c 0
 220 668 233 632 250 589 c 0
 269 545 300 514 341 495 c 0
 352 490 362 487 369 486 c 2
 379 485 l 2
 355 484 332 469 311 442 c 0
 290 416 264 372 234 311 c 0
 210 263 184 218 159 173 c 2
 110 89 l 1
 119 89 l 1
 127 89 l 1
 176 176 l 2
 201 220 226 264 249 309 c 0
 275 358 299 399 321 433 c 0
 340 462 368 477 405 478 c 1
 405 478 408 483 408 483 c 1
 408 483 433 480 450 480 c 0
 458 479 465 479 465 479 c 1
 465 443 l 2
 465 428 465 420 465 420 c 1
 398 418 l 2
 393 418 383 410 366 394 c 0
 346 375 329 350 314 319 c 0
 299 288 287 260 275 237 c 0
 246 172 219 122 196 87 c 2
 159 29 l 1
 89 29 l 1
 19 29 l 1
 162 294 l 2
 171 315 188 348 211 396 c 0
 234 443 261 471 292 482 c 1
 258 488 232 509 215 544 c 0
 196 581 184 612 177 636 c 2
 167 682 l 2
 162 703 155 725 148 747 c 0
 139 769 128 788 115 804 c 0
 102 821 84 829 63 828 c 2
 30 827 l 1
EndSplineSet
EndChar

StartChar: a
Encoding: 97 97 62
Width: 518
Flags: W
LayerCount: 2
Fore
SplineSet
292 651 m 1
 287 651 l 1
 178 197 l 1
 362 197 l 1
 292 651 l 1
119 150 m 1
 250 698 l 1
 334 698 l 1
 417 150 l 1
 119 150 l 1
90 16 m 1
 117 138 l 1
 418 138 l 1
 437 16 l 1
 390 16 l 1
 378 92 l 1
 151 92 l 1
 135 16 l 1
 90 16 l 1
31 16 m 1
 204 756 l 1
 386 756 l 1
 494 16 l 1
 449 16 l 1
 441 63 l 1
 430 137 l 1
 343 710 l 1
 239 710 l 1
 89 63 l 1
 100 63 l 1
 90 16 l 1
 31 16 l 1
EndSplineSet
EndChar

StartChar: b
Encoding: 98 98 63
Width: 460
Flags: W
LayerCount: 2
Fore
SplineSet
138 364 m 1
 138 121 l 1
 138 121 156 121 192 121 c 2
 261 121 l 2
 307 120 330 139 330 177 c 2
 330 251 l 2
 331 280 331 303 331 318 c 0
 331 343 321 356 302 359 c 0
 283 362 265 363 247 363 c 2
 172 363 l 2
 149 364 138 364 138 364 c 1
90 75 m 1
 91 413 l 1
 91 413 109 413 144 412 c 0
 180 411 220 412 264 413 c 0
 352 414 378 383 378 332 c 2
 378 233 l 2
 378 193 378 173 378 173 c 2
 378 98 343 75 262 75 c 0
 221 74 182 74 145 74 c 0
 108 75 90 75 90 75 c 1
138 646 m 1
 138 470 l 1
 138 470 156 470 192 470 c 2
 261 470 l 2
 307 469 330 487 330 526 c 2
 330 566 l 1
 330 600 l 2
 330 625 321 639 302 642 c 0
 283 645 265 646 247 646 c 2
 172 646 l 2
 149 646 138 646 138 646 c 1
90 423 m 1
 91 694 l 1
 91 694 109 694 144 694 c 2
 264 694 l 2
 352 697 378 663 378 614 c 0
 378 563 378 522 378 522 c 2
 378 447 343 423 262 423 c 2
 145 423 l 2
 108 423 90 423 90 423 c 1
32 756 m 1
 265 755 l 2
 330 755 375 746 400 729 c 0
 425 712 438 673 438 614 c 2
 438 538 l 2
 438 457 428 428 407 421 c 1
 407 421 405 423 405 423 c 1
 428 414 438 393 438 337 c 0
 438 226 438 158 438 158 c 2
 438 103 427 65 404 45 c 0
 382 26 336 16 265 16 c 0
 122 16 31 16 31 16 c 1
 32 756 l 1
79 709 m 1
 79 63 l 1
 263 63 l 2
 286 63 314 67 345 75 c 0
 376 84 392 111 391 158 c 0
 390 203 390 243 390 278 c 0
 390 313 390 331 390 331 c 1
 390 331 393 359 382 382 c 0
 373 399 362 410 349 414 c 0
 336 418 330 420 330 420 c 1
 359 427 377 440 382 460 c 0
 387 480 390 506 390 538 c 0
 390 602 391 614 391 614 c 1
 391 614 390 621 389 636 c 0
 388 651 383 663 374 674 c 0
 354 697 324 709 263 709 c 2
 148 709 l 2
 102 709 79 709 79 709 c 1
EndSplineSet
EndChar

StartChar: c
Encoding: 99 99 64
Width: 519
Flags: W
LayerCount: 2
Fore
SplineSet
317 694 m 2
 349 694 376 689 397 679 c 0
 419 670 430 648 431 614 c 2
 431 613 l 1
 446 613 l 1
 446 566 l 1
 430 566 l 1
 384 566 l 1
 384 600 l 2
 383 643 356 646 300 646 c 2
 261 646 l 1
 224 646 l 2
 207 646 188 645 169 642 c 0
 150 639 140 625 140 600 c 0
 139 459 138 317 138 176 c 0
 138 151 146 135 162 128 c 0
 179 122 194 119 208 120 c 2
 250 120 l 1
 293 120 l 2
 342 117 386 124 386 176 c 2
 386 203 l 1
 446 203 l 1
 446 156 l 1
 446 156 432 156 432 156 c 1
 425 84 383 74 316 74 c 2
 316 74 289 73 208 74 c 0
 125 74 91 97 91 172 c 2
 91 172 91 193 91 234 c 0
 92 275 92 322 92 374 c 2
 92 523 l 2
 93 570 93 601 93 614 c 0
 93 663 119 695 207 694 c 0
 295 693 317 694 317 694 c 2
446 156 m 2
 446 203 l 1
 446 203 454 203 469 203 c 0
 484 203 492 203 492 203 c 1
 492 156 l 2
 492 104 481 67 460 46 c 0
 439 25 392 14 319 14 c 2
 278 14 l 1
 205 14 l 2
 134 14 87 24 65 44 c 0
 43 64 32 101 32 156 c 2
 32 156 32 174 31 211 c 2
 31 342 l 1
 31 494 l 1
 31 613 l 2
 31 668 42 705 63 724 c 0
 85 744 127 754 190 754 c 2
 319 754 l 2
 378 754 422 746 451 730 c 0
 480 714 494 675 492 613 c 2
 492 566 l 1
 446 566 l 1
 446 613 l 1
 451 714 331 707 318 707 c 0
 296 707 280 707 270 706 c 2
 222 706 l 2
 162 709 123 702 106 685 c 0
 89 669 81 645 81 613 c 2
 81 613 81 592 80 550 c 0
 80 508 80 460 79 407 c 0
 78 354 78 303 78 254 c 2
 78 156 l 2
 78 93 110 62 206 62 c 2
 318 62 l 2
 379 61 416 72 428 95 c 0
 440 118 446 139 446 156 c 2
EndSplineSet
EndChar

StartChar: d
Encoding: 100 100 65
Width: 509
Flags: W
LayerCount: 2
Fore
SplineSet
138 121 m 1
 283 122 l 2
 324 119 349 124 359 135 c 0
 370 146 376 160 377 177 c 2
 377 177 377 199 376 243 c 2
 376 389 l 2
 376 442 376 490 375 534 c 0
 375 579 375 601 375 601 c 2
 374 640 356 649 291 646 c 2
 191 646 l 2
 157 647 140 647 140 647 c 1
 138 121 l 1
344 708 m 1
 344 755 l 1
 393 754 428 744 451 726 c 0
 474 708 484 671 483 614 c 2
 483 157 l 2
 483 104 472 67 451 46 c 0
 430 25 383 15 310 16 c 2
 154 16 l 2
 90 16 31 16 31 16 c 2
 31 15 31 53 31 130 c 2
 31 385 l 1
 31 640 l 2
 31 717 31 756 31 756 c 1
 91 755 143 754 187 754 c 0
 232 755 284 755 344 755 c 1
 344 708 l 1
 256 707 79 709 79 709 c 1
 79 709 79 675 79 607 c 2
 79 385 l 1
 79 164 l 2
 79 97 79 63 79 63 c 1
 79 63 91 63 114 62 c 2
 193 62 l 1
 273 62 l 2
 297 62 309 62 309 62 c 2
 371 61 408 72 419 95 c 0
 430 118 436 139 437 157 c 2
 434 614 l 2
 435 662 422 689 396 696 c 0
 370 703 353 707 344 708 c 1
308 695 m 2
 340 695 367 690 389 680 c 0
 411 671 422 649 422 614 c 2
 423 173 l 2
 423 130 412 103 391 92 c 0
 370 81 342 75 307 74 c 2
 307 74 296 74 273 74 c 2
 198 74 l 2
 171 75 147 75 124 75 c 0
 102 75 91 75 91 75 c 1
 91 75 91 107 91 172 c 2
 91 385 l 2
 92 463 92 534 92 599 c 0
 93 664 93 696 93 696 c 1
 93 696 104 696 126 695 c 2
 200 695 l 1
 274 695 l 2
 297 695 308 695 308 695 c 2
EndSplineSet
EndChar

StartChar: e
Encoding: 101 101 66
Width: 446
Flags: W
LayerCount: 2
Fore
SplineSet
32 756 m 1
 425 756 l 1
 425 709 l 1
 426 697 l 1
 378 697 l 1
 378 709 l 1
 79 709 l 1
 79 64 l 1
 378 63 l 1
 378 74 l 1
 90 74 l 1
 90 414 l 1
 378 414 l 1
 378 424 l 1
 90 426 l 1
 90 697 l 1
 426 697 l 1
 425 650 l 1
 138 650 l 1
 138 473 l 1
 425 472 l 1
 425 366 l 1
 138 366 l 1
 138 122 l 1
 425 121 l 1
 425 17 l 1
 293 17 163 16 31 16 c 1
 32 756 l 1
EndSplineSet
EndChar

StartChar: f
Encoding: 102 102 67
Width: 446
Flags: W
LayerCount: 2
Fore
SplineSet
32 756 m 1
 425 756 l 1
 425 709 l 1
 426 697 l 1
 378 697 l 1
 378 709 l 1
 79 709 l 1
 79 64 l 1
 90 64 l 1
 90 414 l 1
 378 413 l 1
 378 424 l 1
 90 426 l 1
 90 697 l 1
 426 697 l 1
 425 650 l 1
 138 650 l 1
 138 473 l 1
 425 472 l 1
 425 366 l 1
 138 366 l 1
 138 16 l 1
 138 16 120 16 84 16 c 0
 49 16 31 16 31 16 c 1
 32 756 l 1
EndSplineSet
EndChar

StartChar: g
Encoding: 103 103 68
Width: 519
Flags: W
LayerCount: 2
Fore
SplineSet
317 695 m 2
 317 695 295 694 207 695 c 0
 119 698 93 664 93 615 c 0
 93 602 93 572 92 524 c 2
 92 375 l 2
 92 323 92 276 91 235 c 0
 91 194 91 173 91 173 c 2
 91 98 125 75 208 74 c 0
 288 74 316 74 316 74 c 2
 349 75 375 80 395 89 c 0
 416 98 428 121 432 158 c 0
 433 166 433 183 432 208 c 0
 432 233 432 246 432 246 c 1
 432 246 431 268 418 284 c 0
 413 289 403 296 388 305 c 0
 373 314 342 318 297 315 c 0
 296 315 296 329 296 328 c 0
 297 327 308 327 328 328 c 0
 348 329 370 326 394 319 c 0
 426 310 436 291 441 271 c 0
 445 248 445 225 445 222 c 2
 445 222 453 222 469 222 c 0
 486 222 494 222 494 222 c 1
 492 260 486 296 475 329 c 0
 465 362 418 378 334 375 c 2
 250 375 l 1
 251 266 l 1
 315 266 l 2
 374 269 387 249 386 205 c 2
 386 178 l 2
 385 125 342 117 293 122 c 0
 272 122 258 122 250 121 c 2
 208 121 l 2
 194 121 179 124 162 129 c 0
 146 135 138 151 138 178 c 0
 138 318 139 460 139 601 c 0
 140 626 150 640 169 642 c 0
 188 645 206 646 223 646 c 2
 261 646 l 1
 300 646 l 2
 355 647 383 645 384 601 c 2
 384 566 l 1
 430 566 l 1
 446 566 l 1
 446 614 l 1
 430 614 l 1
 430 615 l 2
 430 683 381 696 317 695 c 2
445 222 m 1
 445 222 453 222 469 222 c 0
 486 222 494 222 494 222 c 1
 492 158 l 2
 492 105 481 67 460 46 c 0
 439 25 392 15 319 16 c 2
 278 16 l 1
 204 16 l 2
 133 15 87 25 65 44 c 0
 43 64 32 102 32 158 c 2
 32 158 32 176 31 213 c 2
 31 344 l 1
 31 495 l 1
 31 614 l 2
 31 669 42 706 63 725 c 0
 85 745 127 755 190 755 c 2
 319 755 l 2
 378 754 422 746 451 730 c 0
 480 715 494 676 492 614 c 2
 492 566 l 1
 446 566 l 1
 446 614 l 1
 451 715 331 708 318 708 c 2
 270 708 l 1
 222 708 l 2
 162 710 123 703 106 686 c 0
 89 670 81 646 81 614 c 2
 81 614 81 593 80 551 c 2
 78 408 l 1
 78 255 l 1
 78 157 l 2
 78 94 110 63 206 63 c 2
 318 63 l 2
 379 62 416 74 427 99 c 0
 439 124 445 143 446 157 c 2
 445 222 l 1
EndSplineSet
EndChar

StartChar: h
Encoding: 104 104 69
Width: 536
Flags: W
LayerCount: 2
Fore
SplineSet
136 350 m 1
 90 350 l 1
 90 333 l 1
 90 396 l 1
 451 396 l 1
 452 63 l 1
 462 63 l 1
 462 709 l 1
 451 709 l 1
 451 407 l 1
 90 407 l 1
 90 756 l 1
 137 756 l 1
 137 455 l 1
 404 456 l 1
 404 756 l 1
 510 756 l 1
 510 16 l 1
 404 16 l 1
 404 349 l 1
 136 350 l 1
90 709 m 1
 78 709 l 1
 78 63 l 1
 90 63 l 1
 90 350 l 1
 94 350 l 1
 136 342 l 1
 137 16 l 1
 74 16 l 1
 32 16 l 1
 32 756 l 1
 90 756 l 1
 90 709 l 1
EndSplineSet
EndChar

StartChar: i
Encoding: 105 105 70
Width: 145
Flags: W
LayerCount: 2
Fore
SplineSet
138 75 m 1
 138 16 l 1
 32 16 l 1
 31 756 l 1
 31 756 49 756 84 756 c 0
 120 756 138 756 138 756 c 1
 138 75 l 1
 90 75 l 1
 90 708 l 1
 79 708 l 1
 79 63 l 1
 90 63 l 1
 90 75 l 1
 138 75 l 1
EndSplineSet
EndChar

StartChar: j
Encoding: 106 106 71
Width: 466
Flags: W
LayerCount: 2
Fore
SplineSet
382 756 m 1
 395 756 l 1
 395 709 l 1
 395 709 382 709 382 709 c 1
 382 709 382 681 382 625 c 0
 383 570 383 508 383 441 c 0
 384 374 384 312 384 256 c 0
 385 201 385 173 385 173 c 2
 385 98 351 75 268 74 c 0
 227 74 207 74 207 74 c 2
 208 74 208 74 208 74 c 2
 175 75 148 80 127 89 c 0
 106 98 95 121 92 158 c 1
 92 158 78 158 78 158 c 1
 78 205 l 1
 138 205 l 1
 138 178 l 2
 138 151 147 135 166 128 c 0
 185 122 206 120 231 122 c 0
 252 122 258 122 250 121 c 0
 242 121 248 121 268 121 c 0
 281 121 296 124 313 129 c 0
 330 135 338 151 338 178 c 2
 338 178 338 208 338 268 c 2
 338 466 l 1
 338 665 l 2
 338 726 338 756 338 756 c 1
 338 756 345 756 360 756 c 0
 375 756 382 756 382 756 c 1
78 205 m 1
 78 157 l 2
 78 139 84 119 96 96 c 0
 108 73 145 62 206 63 c 2
 270 63 l 2
 366 63 398 94 398 157 c 2
 398 260 l 1
 398 424 l 1
 396 546 l 2
 396 591 396 614 396 614 c 2
 395 633 395 661 395 699 c 0
 395 737 395 756 395 756 c 1
 395 756 403 756 419 756 c 0
 436 756 444 756 444 756 c 1
 444 756 445 723 445 614 c 2
 445 495 l 1
 445 344 l 1
 445 213 l 2
 445 176 445 158 445 158 c 2
 445 102 434 64 411 44 c 0
 389 25 342 15 271 16 c 2
 204 16 l 2
 131 15 83 25 62 46 c 0
 41 67 31 105 32 158 c 2
 32 205 l 1
 32 205 40 205 55 205 c 0
 70 205 78 205 78 205 c 1
EndSplineSet
EndChar

StartChar: k
Encoding: 107 107 72
Width: 465
Flags: W
LayerCount: 2
Fore
SplineSet
32 756 m 1
 90 756 l 1
 90 735 l 1
 90 709 l 1
 79 709 l 1
 80 494 80 278 79 63 c 1
 79 63 90 63 90 63 c 1
 90 16 l 1
 31 16 l 1
 32 263 32 508 32 756 c 1
90 709 m 1
 90 756 l 1
 138 756 l 1
 136 432 l 1
 218 427 256 582 255 583 c 0
 266 617 278 654 290 695 c 0
 303 736 337 756 393 757 c 0
 398 757 406 757 417 756 c 0
 428 756 434 756 434 756 c 1
 434 646 l 1
 408 646 l 2
 342 649 326 525 318 495 c 0
 313 475 303 451 289 423 c 0
 275 395 255 379 228 374 c 1
 228 374 227 374 228 374 c 1
 253 365 274 342 291 305 c 2
 330 226 l 1
 443 16 l 1
 333 16 l 1
 333 16 323 31 303 61 c 0
 284 92 263 131 241 180 c 0
 224 217 199 275 170 304 c 0
 146 328 136 326 136 326 c 1
 136 326 136 310 136 277 c 2
 136 171 l 2
 137 132 137 97 137 64 c 0
 138 32 138 16 138 16 c 1
 90 16 l 1
 90 374 l 1
 117 374 l 2
 130 374 136 374 136 374 c 2
 165 374 188 361 205 334 c 0
 222 308 241 276 262 237 c 0
 302 160 342 94 358 63 c 1
 358 63 371 63 371 63 c 1
 366 73 354 95 333 130 c 0
 312 165 293 201 274 238 c 0
 226 334 198 373 159 376 c 1
 159 376 170 376 189 384 c 0
 222 399 245 423 260 458 c 0
 275 493 285 521 291 543 c 0
 296 564 307 595 322 634 c 0
 338 673 360 693 389 693 c 1
 389 703 l 1
 358 702 333 683 316 645 c 0
 299 608 288 574 281 543 c 0
 271 506 255 470 234 435 c 0
 213 401 181 384 136 383 c 2
 90 383 l 1
 90 709 l 1
EndSplineSet
EndChar

StartChar: l
Encoding: 108 108 73
Width: 446
Flags: W
LayerCount: 2
Fore
SplineSet
425 63 m 1
 425 16 l 1
 32 16 l 1
 31 756 l 1
 31 756 49 756 84 756 c 0
 120 756 138 756 138 756 c 1
 138 122 l 1
 425 122 l 1
 426 75 l 1
 90 74 l 1
 90 708 l 1
 79 708 l 1
 79 63 l 1
 378 63 l 1
 378 75 l 1
 426 75 l 1
 425 63 l 1
EndSplineSet
EndChar

StartChar: m
Encoding: 109 109 74
Width: 734
Flags: W
LayerCount: 2
Fore
SplineSet
31 16 m 1
 32 756 l 1
 174 756 l 1
 220 566 l 1
 366 157 l 1
 510 567 l 1
 560 756 l 1
 700 756 l 1
 699 16 l 1
 594 16 l 1
 594 535 l 1
 601 566 l 1
 636 662 l 1
 594 567 l 1
 420 16 l 1
 310 16 l 1
 137 567 l 1
 95 662 l 1
 130 566 l 1
 137 535 l 1
 137 16 l 1
 31 16 l 1
79 63 m 1
 90 63 l 1
 90 697 l 1
 113 697 l 1
 166 568 l 1
 359 63 l 1
 371 63 l 1
 565 566 l 1
 618 697 l 1
 641 697 l 1
 641 63 l 1
 652 63 l 1
 652 709 l 1
 610 709 l 1
 553 566 l 1
 366 75 l 1
 178 569 l 1
 121 709 l 1
 79 709 l 1
 79 63 l 1
EndSplineSet
EndChar

StartChar: n
Encoding: 110 110 75
Width: 546
Flags: W
LayerCount: 2
Fore
SplineSet
460 756 m 1
 519 756 l 1
 519 16 l 1
 471 16 l 1
 393 16 l 1
 149 488 l 1
 106 583 l 1
 141 487 l 1
 141 16 l 1
 31 16 l 1
 31 756 l 1
 157 756 l 1
 401 252 l 1
 443 157 l 1
 409 253 l 1
 409 756 l 1
 460 756 l 1
 456 82 l 1
 95 709 l 1
 83 709 l 1
 83 551 l 1
 83 63 l 1
 94 63 l 1
 94 535 l 1
 94 692 l 1
 456 63 l 1
 468 63 l 1
 469 709 l 1
 460 709 l 1
 460 756 l 1
EndSplineSet
EndChar

StartChar: o
Encoding: 111 111 76
Width: 558
Flags: W
LayerCount: 2
Fore
SplineSet
330 122 m 2
 371 119 396 124 406 135 c 0
 417 147 422 161 423 178 c 2
 423 178 423 200 422 244 c 2
 422 389 l 1
 422 534 l 2
 422 579 422 601 422 601 c 2
 421 640 402 648 338 647 c 2
 338 647 325 647 300 647 c 2
 223 647 l 2
 205 647 186 645 167 642 c 0
 148 639 139 626 139 601 c 0
 139 594 139 569 138 528 c 2
 138 393 l 1
 138 256 l 1
 138 178 l 2
 138 139 161 121 208 122 c 2
 276 122 l 2
 312 122 330 122 330 122 c 2
390 708 m 1
 390 755 l 1
 439 754 475 745 497 726 c 0
 520 708 531 671 530 614 c 2
 530 158 l 2
 530 105 519 67 498 46 c 0
 477 25 430 15 357 16 c 2
 297 16 l 1
 205 16 l 2
 134 16 87 26 65 45 c 0
 43 65 32 103 32 158 c 2
 32 158 32 176 31 213 c 2
 31 344 l 1
 31 495 l 1
 31 614 l 2
 31 669 42 707 63 726 c 0
 85 745 127 755 190 755 c 2
 390 755 l 1
 390 708 l 1
 222 708 l 2
 162 710 123 703 106 686 c 0
 89 670 81 646 81 614 c 2
 81 614 81 593 80 551 c 2
 78 409 l 1
 78 255 l 1
 78 158 l 2
 78 94 110 62 206 62 c 2
 356 62 l 2
 418 62 455 73 466 96 c 0
 477 119 483 139 483 158 c 2
 482 614 l 2
 482 662 469 689 442 696 c 0
 416 703 399 707 390 708 c 1
354 695 m 2
 418 696 468 683 469 615 c 2
 470 173 l 2
 470 130 459 103 438 92 c 0
 417 81 389 76 354 75 c 2
 354 75 288 74 208 75 c 0
 125 75 91 98 91 173 c 2
 91 173 91 194 91 235 c 0
 92 276 92 323 92 375 c 2
 92 524 l 2
 93 572 93 602 93 615 c 0
 93 664 119 698 207 695 c 0
 295 694 354 695 354 695 c 2
EndSplineSet
EndChar

StartChar: p
Encoding: 112 112 77
Width: 459
Flags: W
LayerCount: 2
Fore
SplineSet
138 650 m 1
 138 407 l 1
 138 407 149 407 172 407 c 0
 195 408 220 408 247 408 c 0
 265 408 283 409 302 412 c 0
 321 415 331 428 331 453 c 2
 331 519 l 1
 331 594 l 2
 330 631 307 650 261 650 c 2
 192 650 l 2
 156 650 138 650 138 650 c 1
138 62 m 1
 138 16 l 1
 31 16 l 1
 31 756 l 1
 31 756 122 755 265 755 c 0
 336 755 382 745 404 725 c 0
 427 706 438 669 438 614 c 2
 438 614 438 550 438 441 c 0
 438 386 427 348 406 328 c 0
 385 309 343 299 280 299 c 2
 138 299 l 1
 138 74 l 1
 90 74 l 1
 90 346 l 1
 189 346 l 2
 228 346 248 346 248 346 c 2
 308 344 347 351 364 368 c 0
 381 385 390 409 390 441 c 2
 390 441 390 462 390 503 c 0
 391 545 391 582 391 614 c 0
 391 677 359 709 263 709 c 2
 78 709 l 1
 78 62 l 1
 90 62 l 1
 90 74 l 1
 138 74 l 1
 138 62 l 1
91 359 m 1
 90 697 l 1
 90 697 108 697 145 697 c 2
 261 697 l 2
 344 696 378 673 378 598 c 2
 378 598 378 578 378 537 c 2
 378 439 l 2
 378 390 352 358 264 359 c 0
 220 360 180 360 144 359 c 0
 109 359 91 359 91 359 c 1
EndSplineSet
EndChar

StartChar: q
Encoding: 113 113 78
Width: 557
Flags: W
LayerCount: 2
Fore
SplineSet
250 278 m 1
 250 278 359 121 359 122 c 0
 414 123 422 149 423 178 c 2
 423 178 423 200 422 244 c 2
 422 389 l 1
 422 534 l 2
 422 579 422 601 422 601 c 2
 419 640 402 648 338 647 c 2
 338 647 325 647 300 647 c 2
 223 647 l 2
 205 647 186 645 167 642 c 0
 148 639 139 626 139 601 c 0
 139 594 139 569 138 528 c 2
 138 393 l 1
 138 256 l 1
 138 178 l 2
 138 139 161 121 208 122 c 2
 230 122 l 2
 230 121 162 217 163 217 c 2
 163 217 177 227 206 247 c 0
 235 268 250 278 250 278 c 1
390 708 m 1
 390 755 l 1
 439 754 475 745 497 726 c 0
 520 708 531 671 530 614 c 2
 530 158 l 2
 530 73 511 32 430 20 c 1
 430 20 439 6 458 -21 c 0
 477 -48 486 -62 486 -62 c 2
 487 -62 366 -77 367 -79 c 0
 366 -80 302 16 302 16 c 1
 302 16 289 16 262 16 c 2
 204 16 l 2
 133 16 87 26 64 45 c 0
 42 65 31 103 31 158 c 2
 31 158 31 176 31 213 c 2
 31 344 l 1
 31 495 l 1
 31 614 l 2
 31 669 42 707 63 726 c 0
 84 745 127 755 190 755 c 2
 390 755 l 1
 390 708 l 1
 222 708 l 2
 162 710 123 703 106 686 c 0
 89 670 80 646 80 614 c 2
 80 614 80 593 79 551 c 0
 79 510 79 462 78 409 c 2
 78 255 l 1
 78 158 l 2
 78 94 109 62 206 63 c 2
 326 63 l 1
 391 -32 l 1
 405 -30 l 1
 341 63 l 1
 355 63 l 2
 417 62 454 73 465 96 c 0
 477 119 483 140 483 158 c 2
 481 614 l 2
 482 662 469 689 442 696 c 0
 416 703 399 707 390 708 c 1
354 696 m 2
 418 696 467 683 468 615 c 2
 470 173 l 2
 469 130 458 103 437 92 c 0
 416 81 388 76 353 75 c 2
 353 75 345 74 333 74 c 0
 332 75 239 211 239 210 c 2
 239 210 230 204 230 204 c 2
 227 203 318 75 318 74 c 1
 291 74 252 74 207 75 c 0
 124 75 90 98 91 173 c 2
 91 173 91 194 91 235 c 2
 91 375 l 2
 92 427 92 477 92 524 c 0
 93 572 93 602 93 615 c 0
 93 666 119 697 206 696 c 0
 294 693 354 696 354 696 c 2
EndSplineSet
EndChar

StartChar: r
Encoding: 114 114 79
Width: 495
Flags: W
LayerCount: 2
Fore
SplineSet
139 650 m 1
 139 406 l 1
 139 406 150 406 173 407 c 0
 196 408 221 408 247 408 c 0
 266 408 284 409 303 412 c 0
 322 415 331 428 331 453 c 2
 331 519 l 1
 331 594 l 2
 331 631 308 650 262 650 c 2
 193 650 l 2
 157 650 139 650 139 650 c 1
138 16 m 1
 32 16 l 1
 32 755 l 1
 32 755 122 754 265 755 c 0
 336 755 382 745 404 725 c 0
 427 706 438 669 438 614 c 2
 438 614 438 550 438 441 c 0
 438 346 416 309 328 301 c 1
 328 301 343 272 359 233 c 2
 359 233 365 222 376 199 c 2
 415 124 l 2
 430 97 443 72 454 49 c 0
 465 27 471 16 471 16 c 1
 362 16 l 1
 331 61 297 121 270 186 c 0
 254 223 236 266 211 299 c 1
 138 299 l 1
 138 74 l 1
 91 73 l 1
 91 346 l 1
 165 346 l 1
 234 346 l 1
 234 346 265 300 290 245 c 0
 309 208 327 172 346 139 c 0
 365 106 379 81 386 65 c 1
 386 65 400 65 400 65 c 1
 377 109 334 177 303 246 c 0
 272 313 247 346 247 346 c 2
 248 346 249 346 249 346 c 2
 309 344 347 351 364 368 c 0
 381 385 390 409 390 441 c 2
 390 441 390 462 390 503 c 0
 391 545 391 582 391 614 c 0
 391 677 360 709 264 709 c 2
 79 709 l 1
 79 62 l 1
 91 62 l 1
 91 73 l 1
 138 74 l 1
 138 62 l 1
 138 16 l 1
91 359 m 1
 90 696 l 1
 90 696 108 696 145 696 c 0
 182 697 221 697 262 697 c 0
 345 696 378 673 378 598 c 2
 378 598 378 578 378 537 c 2
 378 439 l 2
 378 390 352 358 264 359 c 0
 220 360 180 360 144 359 c 0
 109 359 91 359 91 359 c 1
EndSplineSet
EndChar

StartChar: s
Encoding: 115 115 80
Width: 522
Flags: W
LayerCount: 2
Fore
SplineSet
193 756 m 2
 322 756 l 2
 381 755 424 747 453 731 c 0
 482 716 496 677 494 614 c 2
 494 567 l 1
 386 567 l 1
 386 602 l 2
 385 645 357 648 302 648 c 2
 226 648 l 2
 209 647 190 646 171 643 c 0
 152 641 142 627 142 602 c 0
 141 601 141 490 140 490 c 1
 140 464 148 448 165 442 c 0
 182 437 197 434 210 434 c 2
 252 434 l 1
 295 434 l 2
 324 432 357 431 396 432 c 0
 435 433 462 416 479 381 c 0
 490 353 493 326 493 295 c 0
 493 240 493 203 492 185 c 0
 492 167 492 158 492 158 c 2
 492 102 481 64 459 44 c 0
 437 25 390 15 319 16 c 2
 245 16 l 1
 204 16 l 2
 131 15 83 25 62 46 c 0
 41 67 31 105 32 158 c 2
 31 205 l 1
 138 205 l 1
 138 177 l 2
 138 125 182 117 231 122 c 0
 252 122 266 122 273 121 c 2
 316 121 l 2
 329 121 344 124 361 129 c 0
 378 135 386 151 386 177 c 2
 386 177 386 195 385 230 c 0
 384 265 384 283 384 283 c 2
 383 324 353 328 322 329 c 2
 207 329 l 2
 136 328 89 338 67 357 c 0
 45 377 34 415 34 470 c 2
 34 470 34 503 34 614 c 0
 34 669 45 707 66 726 c 0
 87 746 130 756 193 756 c 2
433 615 m 1
 448 615 l 1
 449 656 437 682 410 694 c 0
 383 706 353 711 320 710 c 0
 284 706 243 710 207 710 c 2
 207 710 198 709 180 708 c 0
 162 707 147 705 134 700 c 0
 111 691 96 679 90 662 c 0
 85 649 83 630 82 603 c 0
 82 590 82 564 81 526 c 0
 81 489 81 470 81 470 c 2
 81 413 104 384 149 381 c 0
 195 379 246 377 302 376 c 0
 359 375 393 368 404 357 c 0
 416 346 425 333 430 317 c 1
 430 317 430 296 431 255 c 0
 432 214 432 187 433 173 c 2
 433 173 432 164 431 147 c 0
 430 130 424 115 414 104 c 0
 396 85 366 75 324 74 c 0
 305 74 276 74 239 75 c 0
 202 76 183 76 183 76 c 2
 134 77 95 105 92 158 c 1
 92 158 78 158 78 158 c 1
 83 117 96 90 118 79 c 0
 140 68 167 63 198 63 c 2
 272 63 l 2
 305 63 322 63 322 63 c 1
 322 63 334 64 358 65 c 0
 383 67 402 73 415 84 c 0
 440 105 446 130 446 151 c 0
 446 173 443 301 443 301 c 1
 443 301 442 310 440 327 c 0
 439 344 431 358 417 368 c 0
 389 388 353 390 306 390 c 0
 283 390 261 390 240 389 c 0
 220 388 210 388 210 388 c 2
 113 388 91 423 94 496 c 1
 93 495 96 627 96 626 c 2
 96 626 97 633 99 646 c 0
 101 659 109 670 123 679 c 0
 151 696 192 697 213 697 c 0
 223 696 243 696 272 696 c 0
 302 696 317 696 317 696 c 1
 317 696 326 696 343 695 c 0
 361 695 376 692 389 687 c 0
 413 676 420 666 424 658 c 0
 427 649 433 639 433 615 c 1
EndSplineSet
EndChar

StartChar: t
Encoding: 116 116 81
Width: 640
Flags: W
LayerCount: 2
Fore
SplineSet
32 756 m 1
 610 756 l 1
 610 709 l 1
 610 698 l 1
 562 698 l 1
 562 709 l 1
 315 709 l 1
 79 709 l 1
 79 698 l 1
 315 698 l 1
 315 65 l 1
 327 65 l 1
 327 698 l 1
 610 698 l 1
 610 650 l 1
 374 650 l 1
 333 651 l 1
 374 644 l 1
 374 16 l 1
 315 16 l 1
 315 16 307 16 291 16 c 0
 275 16 267 16 267 16 c 1
 267 650 l 1
 32 650 l 1
 32 756 l 1
EndSplineSet
EndChar

StartChar: u
Encoding: 117 117 82
Width: 516
Flags: W
LayerCount: 2
Fore
SplineSet
139 695 m 1
 140 523 138 349 138 178 c 0
 138 152 146 136 162 130 c 0
 179 124 194 121 208 122 c 2
 250 122 l 1
 292 122 l 1
 343 118 385 125 385 178 c 2
 385 735 l 1
 385 748 l 1
 385 756 l 1
 446 756 l 1
 446 724 l 1
 434 725 l 1
 434 725 434 695 433 636 c 0
 433 577 433 511 432 440 c 0
 432 369 432 305 431 246 c 0
 431 187 431 158 431 158 c 2
 428 122 416 99 395 90 c 0
 375 81 348 76 315 75 c 2
 315 75 288 74 208 75 c 0
 124 75 90 98 91 173 c 2
 91 173 91 200 91 254 c 2
 91 434 l 2
 92 499 92 559 92 613 c 0
 93 668 93 695 93 695 c 1
 93 695 101 695 116 695 c 0
 131 695 139 695 139 695 c 1
446 158 m 2
 446 756 l 1
 446 756 453 756 468 756 c 0
 483 756 491 756 491 756 c 1
 491 749 l 1
 491 734 l 1
 492 158 l 2
 492 105 481 68 460 47 c 0
 439 26 392 15 318 16 c 2
 277 16 l 1
 204 16 l 2
 133 16 87 26 64 45 c 0
 42 65 31 103 31 158 c 2
 31 158 31 189 31 251 c 2
 31 457 l 1
 31 662 l 2
 31 725 31 756 31 756 c 1
 31 756 140 756 140 756 c 1
 140 736 139 715 139 695 c 1
 93 695 l 1
 93 709 l 1
 79 709 l 1
 79 709 79 683 78 631 c 2
 78 456 l 1
 78 270 l 1
 78 158 l 2
 78 94 109 63 206 63 c 2
 318 63 l 2
 379 62 416 73 427 96 c 0
 439 119 445 140 446 158 c 2
EndSplineSet
EndChar

StartChar: v
Encoding: 118 118 83
Width: 518
Flags: W
LayerCount: 2
Fore
SplineSet
362 16 m 1
 180 16 l 1
 32 756 l 1
 90 756 l 1
 100 709 l 1
 89 708 l 1
 215 62 l 1
 319 62 l 1
 430 634 l 1
 442 709 l 1
 449 755 l 1
 494 756 l 1
 362 16 l 1
226 74 m 1
 90 756 l 1
 135 756 l 1
 264 120 l 1
 268 120 l 1
 378 680 l 1
 390 756 l 1
 449 755 l 1
 442 709 l 1
 430 709 l 1
 418 634 l 1
 310 74 l 1
 226 74 l 1
EndSplineSet
EndChar

StartChar: w
Encoding: 119 119 84
Width: 877
Flags: W
LayerCount: 2
Fore
SplineSet
719 680 m 1
 731 756 l 1
 790 756 l 1
 835 756 l 1
 703 16 l 1
 521 16 l 1
 437 434 l 1
 362 16 l 1
 180 16 l 1
 32 756 l 1
 90 756 l 1
 135 756 l 1
 264 120 l 1
 268 120 l 1
 378 680 l 1
 382 706 l 1
 373 756 l 1
 430 756 l 1
 476 756 l 1
 476 756 l 1
 476 756 l 1
 605 120 l 1
 610 120 l 1
 719 680 l 1
226 74 m 1
 99 709 l 1
 89 708 l 1
 215 62 l 1
 319 62 l 1
 430 634 l 1
 436 674 l 1
 444 634 l 1
 556 62 l 1
 661 62 l 1
 772 634 l 1
 782 709 l 1
 770 709 l 1
 760 634 l 1
 650 74 l 1
 566 74 l 1
 440 709 l 1
 430 709 l 1
 418 634 l 1
 310 74 l 1
 226 74 l 1
EndSplineSet
EndChar

StartChar: x
Encoding: 120 120 85
Width: 678
Flags: W
LayerCount: 2
Fore
SplineSet
338 390 m 1
 338 441 l 1
 356 442 l 2
 359 442 369 453 373 456 c 0
 402 491 424 537 444 585 c 0
 462 629 482 668 503 702 c 0
 524 737 535 754 535 754 c 1
 594 754 l 2
 629 754 646 754 646 754 c 1
 646 754 640 743 628 720 c 2
 589 646 l 2
 575 619 562 595 551 572 c 0
 540 549 534 538 534 538 c 2
 533 538 472 384 430 380 c 1
 455 371 476 347 494 309 c 0
 513 271 526 243 534 226 c 2
 646 10 l 1
 535 10 l 1
 535 10 525 26 506 57 c 0
 487 88 466 129 444 180 c 0
 435 199 425 222 412 247 c 0
 400 273 387 293 373 308 c 0
 349 332 339 330 339 330 c 1
 339 330 339 338 338 355 c 0
 338 372 338 381 338 381 c 1
 367 380 391 366 408 339 c 0
 425 312 444 278 464 238 c 0
 504 158 545 90 561 58 c 1
 561 58 574 58 574 58 c 1
 569 69 556 92 535 128 c 0
 515 164 496 201 477 240 c 0
 430 339 401 381 362 382 c 1
 387 381 409 400 430 437 c 0
 451 475 467 504 477 524 c 0
 505 581 542 647 574 706 c 1
 561 706 l 1
 561 706 549 683 524 638 c 0
 499 593 479 555 464 526 c 0
 440 478 417 428 386 401 c 0
 385 401 385 401 385 401 c 1
 371 394 355 390 338 390 c 1
338 332 m 1
 338 330 l 1
 321 330 l 2
 316 327 311 321 304 314 c 0
 275 281 254 234 234 186 c 0
 215 141 194 102 173 67 c 0
 152 33 142 16 142 16 c 1
 82 16 l 2
 48 16 31 16 31 16 c 1
 31 16 37 27 48 49 c 2
 87 124 l 2
 102 151 115 176 126 199 c 0
 138 222 144 233 144 233 c 2
 145 233 205 386 246 390 c 1
 222 399 201 423 182 461 c 0
 164 499 151 527 144 544 c 2
 31 761 l 1
 142 761 l 1
 142 761 152 745 171 713 c 0
 190 682 211 641 234 591 c 0
 250 552 275 493 304 462 c 0
 328 438 338 441 338 441 c 1
 338 441 338 440 338 440 c 2
 338 417 338 390 338 390 c 1
 309 390 286 404 269 431 c 0
 252 458 233 492 213 532 c 0
 172 612 132 681 117 712 c 1
 117 712 103 712 103 712 c 1
 108 702 120 679 141 642 c 0
 162 606 181 569 200 530 c 0
 247 433 276 391 315 388 c 1
 290 389 267 371 246 333 c 0
 225 296 210 267 200 246 c 0
 172 187 134 124 103 65 c 1
 117 65 l 1
 117 65 129 87 153 132 c 0
 178 177 198 215 213 245 c 0
 237 292 260 343 292 370 c 0
 305 377 321 380 338 381 c 1
 338 332 l 1
EndSplineSet
EndChar

StartChar: y
Encoding: 121 121 86
Width: 786
Flags: W
LayerCount: 2
Fore
SplineSet
396 16 m 1
 338 16 l 1
 338 339 l 1
 295 340 260 356 235 388 c 0
 210 421 179 473 144 546 c 2
 32 756 l 1
 142 756 l 1
 142 756 152 741 171 710 c 0
 191 679 212 640 234 591 c 0
 250 554 276 496 305 467 c 0
 328 444 338 446 338 446 c 1
 395 446 l 1
 395 398 l 1
 339 398 l 2
 310 398 286 411 269 437 c 0
 252 463 234 495 214 534 c 0
 171 611 132 678 117 709 c 1
 117 709 103 709 103 709 c 1
 108 699 120 676 141 641 c 0
 162 606 182 570 201 533 c 0
 220 494 240 459 260 430 c 0
 281 401 307 387 339 388 c 2
 386 386 l 1
 385 63 l 1
 396 63 l 1
 396 36 l 1
 396 16 l 1
396 16 m 1
 443 16 l 1
 442 339 l 1
 534 336 607 483 636 546 c 1
 749 756 l 1
 638 756 l 1
 638 756 628 741 609 710 c 0
 590 679 569 640 547 591 c 0
 530 554 505 496 476 467 c 0
 452 444 442 446 442 446 c 1
 442 446 435 446 422 446 c 2
 395 446 l 1
 395 414 395 399 395 402 c 2
 395 421 l 1
 395 440 l 2
 395 443 395 429 395 398 c 1
 422 398 l 2
 435 398 442 398 442 398 c 2
 471 398 494 411 511 437 c 0
 528 463 547 495 567 534 c 0
 608 611 648 678 663 709 c 1
 663 709 677 709 677 709 c 1
 672 699 659 676 638 641 c 0
 617 606 598 570 580 533 c 0
 571 512 560 493 551 478 c 0
 524 429 499 402 478 396 c 0
 457 391 445 388 442 388 c 2
 395 386 l 1
 396 63 l 1
 396 16 l 1
EndSplineSet
EndChar

StartChar: z
Encoding: 122 122 87
Width: 514
Flags: W
LayerCount: 2
Fore
SplineSet
201 756 m 2
 330 756 l 2
 393 756 435 746 456 727 c 0
 478 708 489 670 489 614 c 2
 489 614 489 606 488 590 c 0
 488 574 488 566 488 566 c 1
 469 542 439 508 400 465 c 2
 283 336 l 1
 181 225 l 2
 152 194 137 178 137 178 c 1
 137 151 145 135 161 129 c 0
 178 124 193 121 207 122 c 2
 249 122 l 1
 291 122 l 2
 291 121 473 121 472 121 c 2
 472 16 l 1
 472 16 465 16 450 15 c 0
 435 15 391 15 318 16 c 2
 277 16 l 1
 203 16 l 2
 132 16 86 26 63 45 c 0
 41 64 30 102 30 158 c 2
 30 158 30 168 31 189 c 0
 32 210 32 220 32 220 c 1
 32 220 50 240 86 279 c 2
 206 411 l 2
 249 459 289 503 326 542 c 0
 363 582 381 602 381 602 c 1
 380 627 370 641 351 643 c 0
 332 646 314 647 297 648 c 2
 220 648 l 2
 221 648 45 648 45 648 c 1
 45 757 l 1
 45 757 84 756 201 756 c 2
90 710 m 1
 90 701 90 697 90 697 c 1
 90 697 140 696 192 696 c 0
 244 696 299 696 310 697 c 0
 331 697 371 696 399 679 c 0
 412 670 420 659 423 646 c 0
 426 633 427 626 427 626 c 1
 427 626 427 620 426 607 c 0
 426 594 426 588 426 588 c 1
 426 588 408 568 371 527 c 0
 335 486 295 442 251 393 c 0
 208 345 168 301 132 260 c 0
 96 220 78 200 78 200 c 1
 78 200 78 192 77 176 c 0
 77 160 77 152 77 152 c 2
 77 129 81 105 108 84 c 0
 121 73 139 67 164 65 c 0
 189 64 201 63 201 63 c 1
 201 63 217 63 250 63 c 2
 325 63 l 2
 385 63 427 63 427 63 c 1
 427 63 427 76 427 76 c 1
 427 76 412 76 382 76 c 0
 353 76 338 76 338 76 c 1
 338 76 319 76 282 75 c 0
 245 74 217 74 198 75 c 0
 156 75 126 85 109 104 c 0
 99 115 93 130 92 147 c 0
 91 164 90 173 90 173 c 1
 90 173 92 196 92 196 c 1
 92 196 110 216 146 256 c 2
 266 389 l 2
 309 438 349 482 386 522 c 0
 423 562 441 582 441 582 c 1
 441 582 440 604 440 604 c 2
 439 631 437 650 433 662 c 0
 426 679 412 691 389 700 c 0
 376 705 361 708 343 709 c 0
 325 710 316 710 316 710 c 1
 316 710 304 710 280 710 c 2
 202 710 l 1
 125 710 l 2
 102 710 90 710 90 710 c 1
EndSplineSet
EndChar

StartChar: afii10017
Encoding: 1040 1040 88
Width: 648
Flags: W
LayerCount: 2
Fore
SplineSet
365 814 m 1
 359 814 l 1
 223 246 l 1
 452 246 l 1
 365 814 l 1
149 187 m 1
 312 872 l 1
 417 872 l 1
 521 187 l 1
 149 187 l 1
112 20 m 1
 146 172 l 1
 523 172 l 1
 546 20 l 1
 488 20 l 1
 473 115 l 1
 189 115 l 1
 169 20 l 1
 112 20 l 1
39 20 m 1
 255 945 l 1
 483 945 l 1
 618 20 l 1
 561 20 l 1
 551 79 l 1
 538 171 l 1
 429 887 l 1
 299 887 l 1
 111 79 l 1
 125 79 l 1
 112 20 l 1
 39 20 l 1
EndSplineSet
EndChar

StartChar: afii10018
Encoding: 1041 1041 89
Width: 574
Flags: W
LayerCount: 2
Fore
SplineSet
173 456 m 1
 173 152 l 1
 173 152 196 152 241 152 c 2
 326 152 l 2
 385 151 414 174 414 222 c 2
 414 314 l 1
 414 398 l 2
 414 429 402 446 378 449 c 0
 355 453 332 455 309 455 c 2
 216 455 l 2
 187 456 173 456 173 456 c 1
40 945 m 1
 531 945 l 1
 531 886 l 1
 531 872 l 1
 472 872 l 1
 472 886 l 1
 99 886 l 1
 99 79 l 1
 330 79 l 2
 449 79 489 118 489 197 c 0
 489 236 489 281 488 334 c 0
 488 387 488 414 488 414 c 2
 487 453 476 483 455 504 c 0
 434 525 385 534 310 531 c 2
 310 531 285 531 236 531 c 2
 113 531 l 1
 113 873 l 1
 531 872 l 1
 531 813 l 1
 172 813 l 1
 172 590 l 1
 351 590 l 2
 430 590 482 578 508 553 c 0
 534 529 547 482 547 413 c 0
 547 276 547 197 547 197 c 2
 547 128 533 82 505 57 c 0
 478 32 420 20 331 20 c 0
 154 20 39 20 39 20 c 1
 40 945 l 1
113 94 m 1
 114 516 l 1
 114 516 136 516 180 515 c 0
 225 514 275 515 330 516 c 0
 439 517 472 478 472 415 c 2
 472 292 l 2
 472 241 472 216 472 216 c 2
 472 123 430 94 327 94 c 0
 276 93 227 93 181 93 c 0
 136 94 113 94 113 94 c 1
EndSplineSet
EndChar

StartChar: afii10019
Encoding: 1042 1042 90
Width: 575
Flags: W
LayerCount: 2
Fore
SplineSet
173 455 m 1
 173 151 l 1
 173 151 195 151 240 151 c 2
 326 151 l 2
 384 150 413 174 413 221 c 2
 413 314 l 2
 414 351 414 378 414 397 c 0
 414 428 402 446 378 449 c 0
 354 452 331 454 309 454 c 2
 216 454 l 2
 187 455 173 455 173 455 c 1
113 94 m 1
 114 516 l 1
 114 516 136 516 180 515 c 0
 225 514 275 515 330 516 c 0
 439 517 472 478 472 415 c 2
 472 291 l 2
 472 241 472 216 472 216 c 2
 472 123 430 94 327 94 c 0
 276 93 227 93 181 93 c 0
 136 94 113 94 113 94 c 1
173 808 m 1
 173 587 l 1
 173 587 195 587 240 587 c 2
 326 587 l 2
 384 586 413 609 413 657 c 2
 413 708 l 1
 413 750 l 2
 413 781 401 799 377 802 c 0
 354 805 331 807 309 807 c 2
 216 807 l 2
 187 808 173 808 173 808 c 1
113 529 m 1
 114 868 l 1
 114 868 136 868 180 867 c 0
 225 867 275 867 330 868 c 0
 439 871 472 829 472 768 c 0
 472 704 472 652 472 652 c 2
 472 559 430 529 327 529 c 2
 181 529 l 2
 136 529 113 529 113 529 c 1
40 945 m 1
 331 944 l 2
 413 944 470 933 501 911 c 0
 532 890 548 842 547 768 c 2
 547 673 l 2
 548 570 536 534 509 526 c 1
 509 526 506 529 506 529 c 1
 535 517 547 492 547 421 c 0
 547 282 547 197 547 197 c 2
 547 128 533 82 505 57 c 0
 478 32 420 20 331 20 c 0
 154 20 39 20 39 20 c 1
 40 945 l 1
99 886 m 1
 99 79 l 1
 329 79 l 2
 358 79 392 84 431 94 c 0
 470 105 490 139 489 197 c 0
 488 254 488 305 488 348 c 0
 488 392 488 414 488 414 c 1
 488 414 490 449 478 477 c 0
 467 499 453 512 437 517 c 0
 421 522 413 525 413 525 c 1
 449 533 470 550 477 575 c 0
 484 600 487 633 488 672 c 2
 488 750 l 2
 489 762 489 768 489 768 c 1
 489 768 488 777 487 795 c 0
 486 813 479 829 467 843 c 0
 443 871 405 886 329 886 c 2
 185 886 l 2
 128 886 99 886 99 886 c 1
EndSplineSet
EndChar

StartChar: afii10020
Encoding: 1043 1043 91
Width: 558
Flags: W
LayerCount: 2
Fore
SplineSet
40 945 m 1
 531 945 l 1
 531 886 l 1
 531 872 l 1
 472 872 l 1
 472 886 l 1
 99 886 l 1
 99 81 l 1
 114 81 l 1
 113 873 l 1
 531 872 l 1
 531 813 l 1
 172 813 l 1
 172 20 l 1
 99 20 l 1
 99 20 89 20 69 20 c 0
 49 20 39 20 39 20 c 1
 40 945 l 1
EndSplineSet
EndChar

StartChar: afii10021
Encoding: 1044 1044 92
Width: 703
Flags: W
LayerCount: 2
Fore
SplineSet
114 -39 m 1
 114 167 l 1
 581 168 l 1
 582 20 l 1
 597 20 l 1
 597 -39 l 1
 523 -39 l 1
 522 118 l 1
 173 118 l 1
 173 -39 l 1
 114 -39 l 1
181 945 m 1
 635 945 l 1
 635 241 l 1
 670 241 l 1
 669 -39 l 1
 597 -39 l 1
 597 183 l 1
 576 182 l 1
 575 886 l 1
 561 886 l 1
 245 886 l 1
 245 832 l 1
 234 645 230 334 121 182 c 1
 121 182 99 182 99 182 c 1
 99 20 l 1
 114 20 l 1
 114 -39 l 1
 99 -39 l 1
 40 -39 l 1
 39 241 l 1
 95 241 l 1
 112 266 130 322 151 411 c 0
 172 500 182 640 181 829 c 2
 181 945 l 1
561 182 m 1
 137 182 l 2
 139 182 145 192 155 212 c 0
 166 232 171 242 171 242 c 1
 207 318 230 415 240 532 c 0
 251 650 258 756 263 851 c 1
 263 872 l 1
 561 871 l 1
 561 182 l 1
501 241 m 1
 501 814 l 1
 312 814 l 1
 312 814 312 807 312 807 c 2
 309 751 305 646 296 531 c 0
 290 446 278 376 259 322 c 0
 241 268 232 241 232 241 c 1
 501 241 l 1
EndSplineSet
EndChar

StartChar: afii10022
Encoding: 1045 1045 93
Width: 558
Flags: W
LayerCount: 2
Fore
SplineSet
40 945 m 1
 531 945 l 1
 531 886 l 1
 532 871 l 1
 472 871 l 1
 472 886 l 1
 99 886 l 1
 99 80 l 1
 473 79 l 1
 473 93 l 1
 113 93 l 1
 113 517 l 1
 472 517 l 1
 472 530 l 1
 113 532 l 1
 113 871 l 1
 532 871 l 1
 531 812 l 1
 172 812 l 1
 172 591 l 1
 531 590 l 1
 531 457 l 1
 172 457 l 1
 173 152 l 1
 531 151 l 1
 531 21 l 1
 367 21 203 20 39 20 c 1
 40 945 l 1
EndSplineSet
EndChar

StartChar: afii10024
Encoding: 1046 1046 94
Width: 982
Flags: W
LayerCount: 2
Fore
SplineSet
421 945 m 1
 494 945 l 1
 494 919 l 1
 494 886 l 1
 480 886 l 1
 482 479 l 1
 423 479 l 2
 367 480 326 501 299 544 c 0
 272 587 254 632 243 679 c 0
 234 717 218 760 197 807 c 0
 176 854 146 878 107 879 c 1
 107 866 l 1
 143 866 170 841 189 792 c 0
 208 743 222 705 229 679 c 0
 236 652 249 616 267 573 c 0
 285 530 315 499 357 480 c 0
 380 469 394 470 394 470 c 1
 345 467 309 418 250 298 c 0
 227 251 202 206 176 162 c 0
 151 119 135 91 129 79 c 1
 129 79 146 79 146 79 c 1
 165 115 215 200 266 296 c 0
 291 345 315 385 336 418 c 0
 358 451 387 467 423 468 c 2
 423 468 431 468 447 467 c 2
 482 467 l 1
 482 330 480 212 480 79 c 1
 480 79 494 79 494 79 c 1
 494 20 l 1
 421 20 l 1
 421 20 421 40 421 80 c 2
 421 213 l 2
 422 262 422 306 422 346 c 0
 423 387 423 407 423 407 c 1
 423 407 409 409 380 380 c 0
 362 362 345 337 330 306 c 0
 315 275 302 248 292 225 c 0
 264 164 238 115 213 77 c 0
 189 39 177 20 177 20 c 1
 39 20 l 1
 180 282 l 2
 189 302 205 335 228 381 c 0
 251 428 277 456 308 467 c 1
 274 473 248 493 231 528 c 0
 214 563 202 594 195 619 c 0
 184 654 164 812 83 807 c 1
 49 807 l 1
 49 945 l 1
 49 945 56 945 71 945 c 0
 86 946 96 946 102 946 c 0
 172 945 215 919 230 868 c 0
 245 817 260 771 273 729 c 2
 273 729 285 680 309 632 c 0
 334 584 371 536 423 540 c 1
 421 945 l 1
494 886 m 1
 494 945 l 1
 553 945 l 1
 552 540 l 1
 603 537 641 584 665 632 c 0
 690 680 701 729 701 729 c 2
 714 772 729 818 744 869 c 0
 760 920 803 945 873 946 c 0
 879 946 889 946 903 945 c 0
 918 945 925 945 925 945 c 1
 925 807 l 1
 892 808 l 2
 810 812 789 655 780 619 c 0
 773 594 760 563 743 528 c 0
 726 493 700 473 667 467 c 1
 667 467 666 467 667 467 c 1
 697 456 723 428 746 381 c 2
 795 282 l 1
 936 20 l 1
 797 20 l 1
 797 20 785 39 760 77 c 0
 736 115 710 164 683 225 c 2
 644 306 l 2
 629 337 612 362 594 380 c 0
 565 409 552 407 552 407 c 1
 552 407 552 387 552 346 c 2
 552 213 l 2
 553 165 553 121 553 80 c 0
 554 40 554 20 554 20 c 1
 494 20 l 1
 494 243 l 1
 494 468 l 1
 528 468 l 2
 544 468 552 468 552 468 c 2
 588 468 617 451 638 418 c 0
 659 385 683 345 708 296 c 0
 760 200 809 116 829 79 c 1
 829 79 846 79 846 79 c 1
 840 91 824 119 798 162 c 0
 772 206 747 251 724 298 c 0
 665 418 629 467 581 470 c 1
 581 470 595 469 618 480 c 0
 659 499 689 530 707 573 c 0
 725 616 738 652 746 679 c 0
 753 706 765 743 784 792 c 0
 803 841 831 866 867 866 c 1
 868 879 l 1
 829 878 799 854 778 807 c 0
 757 760 741 717 732 679 c 0
 721 632 702 587 675 544 c 0
 649 501 608 480 551 479 c 2
 494 479 l 1
 494 886 l 1
EndSplineSet
EndChar

StartChar: afii10025
Encoding: 1047 1047 95
Width: 647
Flags: W
LayerCount: 2
Fore
SplineSet
259 869 m 2
 259 869 268 869 286 868 c 0
 304 868 341 868 396 869 c 0
 505 872 538 830 538 769 c 2
 538 721 l 2
 539 694 539 669 539 646 c 0
 539 617 531 590 514 566 c 0
 498 542 458 530 393 531 c 2
 393 531 380 531 354 530 c 0
 329 530 316 530 316 530 c 1
 316 530 316 523 316 516 c 1
 316 516 329 516 356 516 c 0
 383 517 396 517 396 517 c 2
 473 520 515 504 524 471 c 0
 533 438 538 420 538 416 c 0
 538 284 541 216 541 216 c 2
 541 123 498 94 395 93 c 0
 292 93 260 93 260 93 c 2
 185 94 141 109 127 139 c 0
 121 151 117 170 115 197 c 1
 115 197 97 197 97 197 c 1
 97 256 l 1
 172 256 l 1
 172 222 l 2
 172 189 184 169 207 161 c 0
 230 153 258 150 289 152 c 2
 341 152 l 1
 395 152 l 2
 412 151 430 155 451 162 c 0
 472 169 482 189 482 222 c 0
 482 281 481 339 481 399 c 0
 481 447 450 456 375 456 c 2
 375 456 355 456 316 456 c 0
 277 457 258 457 258 457 c 1
 258 457 258 479 258 522 c 0
 258 566 258 588 258 588 c 1
 258 588 280 588 325 588 c 0
 370 588 392 588 392 588 c 2
 431 587 456 596 465 613 c 0
 475 630 480 645 480 658 c 2
 480 751 l 2
 479 783 467 800 443 803 c 0
 419 806 396 808 375 809 c 2
 327 809 l 1
 279 809 l 2
 211 809 175 806 174 751 c 2
 174 708 l 1
 116 708 l 1
 98 708 l 1
 97 768 l 1
 116 768 l 1
 116 769 l 2
 116 812 130 839 157 851 c 0
 184 864 218 870 259 869 c 2
97 256 m 1
 97 197 l 2
 97 178 98 153 109 132 c 0
 124 101 158 82 257 79 c 2
 397 79 l 2
 517 79 557 117 557 197 c 0
 557 225 556 312 556 409 c 0
 556 428 551 450 541 475 c 0
 532 500 511 515 479 520 c 0
 437 524 569 492 554 667 c 1
 554 667 554 684 554 717 c 0
 554 750 554 767 554 767 c 2
 553 807 542 837 521 858 c 0
 500 879 451 888 376 885 c 2
 316 885 l 1
 257 885 l 2
 241 885 89 896 97 768 c 1
 98 708 l 1
 40 708 l 1
 40 767 l 2
 37 845 53 894 90 913 c 0
 127 933 182 943 255 944 c 2
 417 944 l 2
 496 944 548 932 575 907 c 0
 602 882 615 836 615 767 c 0
 615 750 610 703 613 668 c 0
 616 593 610 549 596 538 c 0
 583 527 576 521 576 521 c 1
 594 514 605 498 609 473 c 0
 613 448 615 426 615 408 c 2
 615 259 l 2
 615 218 615 197 615 197 c 2
 615 128 601 81 573 56 c 0
 546 32 488 20 399 20 c 2
 306 20 l 1
 255 20 l 2
 164 19 105 32 78 58 c 0
 52 85 39 131 40 197 c 2
 40 256 l 1
 40 256 49 256 68 256 c 0
 87 256 97 256 97 256 c 1
EndSplineSet
EndChar

StartChar: afii10026
Encoding: 1048 1048 96
Width: 682
Flags: W
LayerCount: 2
Fore
SplineSet
39 945 m 1
 113 945 l 1
 113 886 l 1
 102 886 l 1
 103 79 l 1
 118 79 l 1
 571 865 l 1
 571 669 l 1
 571 79 l 1
 584 79 l 1
 584 689 l 1
 584 886 l 1
 569 886 l 1
 118 103 l 1
 113 945 l 1
 177 945 l 1
 177 316 l 1
 134 196 l 1
 187 315 l 1
 492 945 l 1
 649 945 l 1
 649 20 l 1
 512 20 l 1
 512 609 l 1
 555 729 l 1
 502 610 l 1
 197 20 l 1
 99 20 l 1
 39 20 l 1
 39 945 l 1
EndSplineSet
EndChar

StartChar: afii10027
Encoding: 1049 1049 97
Width: 682
Flags: W
LayerCount: 2
Fore
SplineSet
606 1103 m 1
 606 972 l 1
 539 972 486 972 449 971 c 2
 345 971 l 1
 241 971 l 1
 84 971 l 1
 84 1102 l 1
 241 1102 l 1
 345 1102 l 1
 449 1102 l 2
 486 1102 539 1102 606 1103 c 1
136 1027 m 1
 554 1030 l 1
 554 1044 l 1
 136 1041 l 1
 136 1027 l 1
39 945 m 1
 113 945 l 1
 113 886 l 1
 103 886 l 1
 104 79 l 1
 118 79 l 1
 571 865 l 1
 571 668 l 1
 571 79 l 1
 584 79 l 1
 584 688 l 1
 584 886 l 1
 569 886 l 1
 118 103 l 1
 113 945 l 1
 177 945 l 1
 177 316 l 1
 134 196 l 1
 187 315 l 1
 492 945 l 1
 649 945 l 1
 649 20 l 1
 512 20 l 1
 512 608 l 1
 555 729 l 1
 502 609 l 1
 197 20 l 1
 99 20 l 1
 39 20 l 1
 39 945 l 1
EndSplineSet
EndChar

StartChar: afii10028
Encoding: 1050 1050 98
Width: 581
Flags: W
LayerCount: 2
Fore
SplineSet
40 945 m 1
 112 945 l 1
 112 919 l 1
 112 886 l 1
 99 886 l 1
 100 617 100 348 99 79 c 1
 99 79 112 79 112 79 c 1
 113 20 l 1
 39 20 l 1
 40 328 40 636 40 945 c 1
112 886 m 1
 112 945 l 1
 172 945 l 1
 170 540 l 1
 222 537 259 584 283 632 c 0
 308 680 319 729 319 729 c 2
 333 772 348 818 363 869 c 0
 378 920 421 945 491 946 c 0
 497 946 507 946 521 945 c 0
 536 945 543 945 543 945 c 1
 543 807 l 1
 510 808 l 2
 428 812 408 655 398 619 c 0
 391 594 378 563 361 528 c 0
 344 493 318 473 285 467 c 1
 285 467 284 467 285 467 c 1
 316 456 342 428 364 381 c 2
 413 282 l 1
 554 20 l 1
 484 20 l 1
 416 20 l 1
 416 20 404 39 379 77 c 0
 354 115 328 164 301 225 c 2
 262 306 l 2
 247 337 231 362 212 380 c 0
 183 409 170 407 170 407 c 1
 170 407 170 387 170 346 c 2
 170 213 l 2
 171 165 171 121 171 80 c 0
 172 40 172 20 172 20 c 1
 113 20 l 1
 112 99 112 173 112 243 c 2
 112 468 l 1
 146 468 l 2
 162 468 170 468 170 468 c 2
 206 468 235 451 256 418 c 0
 278 385 302 345 327 296 c 0
 378 200 428 116 447 79 c 1
 447 79 464 79 464 79 c 1
 458 91 442 119 416 162 c 0
 390 206 365 251 342 298 c 0
 283 418 247 467 199 470 c 1
 199 470 213 469 236 480 c 0
 277 499 307 530 325 573 c 0
 344 616 357 652 364 679 c 0
 371 706 384 743 403 792 c 0
 422 841 450 866 486 866 c 1
 486 879 l 1
 447 878 417 854 396 807 c 0
 375 760 360 717 351 679 c 0
 339 632 320 587 293 544 c 0
 267 501 226 480 170 479 c 2
 112 479 l 1
 112 886 l 1
EndSplineSet
EndChar

StartChar: afii10029
Encoding: 1051 1051 99
Width: 744
Flags: W
LayerCount: 2
Fore
SplineSet
635 872 m 1
 635 79 l 1
 648 79 l 1
 648 886 l 1
 246 886 l 1
 247 256 l 2
 248 207 237 160 213 113 c 0
 190 66 153 58 103 88 c 1
 103 88 100 71 100 71 c 1
 154 47 194 56 221 98 c 0
 248 140 262 193 261 256 c 2
 261 360 l 1
 261 872 l 1
 635 872 l 1
190 945 m 1
 708 945 l 1
 708 20 l 1
 576 20 l 1
 576 812 l 1
 320 812 l 1
 320 360 l 2
 319 312 322 232 307 147 c 0
 302 118 287 73 252 42 c 0
 225 16 189 3 145 4 c 0
 124 4 75 9 39 20 c 1
 59 149 l 1
 78 140 95 136 109 136 c 0
 142 136 161 154 170 167 c 0
 179 177 184 199 186 232 c 0
 189 266 190 294 190 315 c 2
 190 945 l 1
EndSplineSet
EndChar

StartChar: afii10030
Encoding: 1052 1052 100
Width: 918
Flags: W
LayerCount: 2
Fore
SplineSet
39 20 m 1
 40 945 l 1
 217 945 l 1
 275 708 l 1
 457 196 l 1
 638 709 l 1
 700 945 l 1
 875 945 l 1
 874 20 l 1
 743 20 l 1
 742 669 l 1
 751 708 l 1
 795 828 l 1
 742 709 l 1
 525 20 l 1
 388 20 l 1
 171 709 l 1
 119 828 l 1
 162 708 l 1
 171 669 l 1
 171 20 l 1
 39 20 l 1
99 79 m 1
 112 79 l 1
 112 871 l 1
 141 871 l 1
 208 710 l 1
 449 79 l 1
 464 79 l 1
 706 708 l 1
 772 871 l 1
 801 871 l 1
 801 79 l 1
 815 79 l 1
 815 886 l 1
 762 886 l 1
 691 708 l 1
 457 94 l 1
 222 711 l 1
 151 886 l 1
 99 886 l 1
 99 79 l 1
EndSplineSet
EndChar

StartChar: afii10031
Encoding: 1053 1053 101
Width: 670
Flags: W
LayerCount: 2
Fore
SplineSet
170 437 m 1
 112 438 l 1
 112 416 l 1
 112 495 l 1
 564 495 l 1
 565 79 l 1
 578 79 l 1
 578 886 l 1
 564 886 l 1
 564 509 l 1
 112 509 l 1
 112 945 l 1
 171 945 l 1
 171 569 l 1
 505 570 l 1
 505 945 l 1
 638 945 l 1
 638 20 l 1
 505 20 l 1
 505 436 l 1
 170 437 l 1
112 886 m 1
 98 886 l 1
 98 79 l 1
 112 79 l 1
 112 438 l 1
 118 438 l 1
 170 428 l 1
 171 20 l 1
 92 20 l 1
 40 20 l 1
 40 945 l 1
 112 945 l 1
 112 886 l 1
EndSplineSet
EndChar

StartChar: afii10032
Encoding: 1054 1054 102
Width: 697
Flags: HW
LayerCount: 2
Fore
SplineSet
413 152 m 2
 464 149 495 154 508 169 c 0
 521 184 528 201 529 222 c 2
 529 222 524.214985776 249.748129452 528 304 c 2
 531 399 l 6
 531 503.993164062 529.578125 452.21875 530 581 c 4
 530.180664062 636 527 751 527 751 c 2
 525.402637729 798.654641096 503 810 422 809 c 2
 422 809 406 809 375 809 c 2
 279 809 l 2
 256 809 233 807 209 803 c 0
 186 800 174 782 174 751 c 0
 174 742 174 711 173 660 c 2
 173 491 l 2
 173 430 173 373 172 320 c 2
 172 222 l 2
 172 174 201 151 260 152 c 2
 345 152 l 2
 390 152 413 152 413 152 c 2
488 885 m 1
 488 944 l 1
 549 943 594 931 622 908 c 0
 650 885 664 838 663 767 c 2
 663 197 l 2
 663 131 650 85 623 58 c 0
 596 32 537 19 446 20 c 2
 371 20 l 1
 256 20 l 2
 167 20 109 32 81 57 c 0
 54 82 40 128 40 197 c 2
 40 197 40 220 39 266 c 2
 39 430 l 1
 39 619 l 1
 39 767 l 2
 39 836 52 883 79 907 c 0
 106 932 159 944 238 944 c 2
 488 944 l 1
 488 885 l 1
 278 885 l 2
 203 888 154 879 133 858 c 0
 112 837 101 807 101 767 c 2
 101 767 101 741 100 689 c 2
 98 511 l 2
 98 445 98 381 97 319 c 2
 97 197 l 2
 97 118 137 78 257 78 c 2
 445 78 l 2
 522 77 568 91 582 120 c 0
 597 149 604 174 604 197 c 2
 602 767 l 2
 603 828 586 862 553 870 c 0
 520 878 499 883 488 885 c 1
443 869 m 2
 483 870 517 864 544 851 c 0
 571 839 585 812 586 769 c 2
 588 216 l 2
 587 163 574 129 547 115 c 0
 521 102 486 95 442 94 c 2
 442 94 424 94 388 93 c 0
 353 93 310 93 260 94 c 0
 156 94 114 123 114 216 c 2
 114 216 114 242 114 293 c 0
 115 345 115 403 115 468 c 2
 115 655 l 2
 116 715 116 753 116 769 c 0
 116 830 148 872 259 869 c 0
 368 868 443 869 443 869 c 2
EndSplineSet
EndChar

StartChar: afii10033
Encoding: 1055 1055 103
Width: 670
Flags: W
LayerCount: 2
Fore
SplineSet
505 812 m 1
 112 815 l 1
 112 792 l 1
 112 872 l 1
 564 872 l 1
 565 79 l 1
 578 79 l 1
 578 886 l 1
 112 886 l 1
 112 945 l 1
 638 945 l 1
 638 20 l 1
 505 20 l 1
 505 812 l 1
112 886 m 1
 98 886 l 1
 98 79 l 1
 112 79 l 1
 112 815 l 1
 118 815 l 1
 170 805 l 1
 171 20 l 1
 39 20 l 1
 39 945 l 1
 112 945 l 1
 112 886 l 1
EndSplineSet
EndChar

StartChar: afii10034
Encoding: 1056 1056 104
Width: 574
Flags: W
LayerCount: 2
Fore
SplineSet
173 812 m 1
 173 509 l 1
 173 509 187 509 216 509 c 0
 245 510 276 510 309 510 c 0
 332 510 355 512 378 515 c 0
 402 518 414 535 414 566 c 2
 414 649 l 1
 414 742 l 2
 413 789 384 813 326 812 c 2
 241 812 l 2
 196 812 173 812 173 812 c 1
172 78 m 1
 172 20 l 1
 39 20 l 1
 39 945 l 1
 39 945 152 944 331 944 c 0
 420 944 478 932 505 907 c 0
 533 882 547 836 547 767 c 2
 547 767 547 688 547 551 c 0
 547 482 534 435 507 410 c 0
 481 386 429 374 350 374 c 2
 173 374 l 1
 172 92 l 1
 113 92 l 1
 113 433 l 1
 236 433 l 2
 285 433 310 433 310 433 c 2
 385 430 434 439 455 460 c 0
 476 481 487 511 488 551 c 2
 488 551 488 577 488 629 c 0
 489 682 489 728 489 768 c 0
 489 845 449 886 329 886 c 2
 98 886 l 1
 98 78 l 1
 113 78 l 1
 113 92 l 1
 172 92 l 1
 172 78 l 1
114 449 m 1
 113 871 l 1
 113 871 136 871 181 871 c 2
 326 871 l 2
 430 870 472 841 472 748 c 2
 472 748 472 723 472 672 c 2
 472 549 l 2
 472 486 439 446 330 449 c 0
 275 450 225 450 180 449 c 0
 136 449 114 449 114 449 c 1
EndSplineSet
EndChar

StartChar: afii10035
Encoding: 1057 1057 105
Width: 649
Flags: W
LayerCount: 2
Fore
SplineSet
396 868 m 2
 436 868 470 862 497 849 c 0
 524 837 538 810 539 767 c 2
 539 766 l 1
 558 766 l 1
 557 707 l 1
 538 707 l 1
 480 707 l 1
 480 750 l 2
 479 803 444 808 375 807 c 2
 327 807 l 1
 280 807 l 2
 259 807 236 805 211 802 c 0
 187 799 175 782 175 750 c 0
 174 574 173 397 173 220 c 0
 173 188 183 168 203 160 c 0
 224 153 243 149 260 150 c 2
 313 150 l 1
 366 150 l 2
 397 148 424 151 447 159 c 0
 470 167 482 187 482 220 c 2
 482 254 l 1
 557 254 l 1
 558 195 l 1
 558 195 540 195 540 195 c 1
 536 150 521 122 495 110 c 0
 470 99 436 93 395 92 c 2
 395 92 361 91 260 92 c 0
 156 92 114 122 114 215 c 2
 114 215 114 241 114 292 c 0
 115 344 115 402 115 467 c 2
 115 654 l 2
 116 713 116 751 116 767 c 0
 116 830 148 869 259 868 c 0
 314 867 350 866 368 867 c 0
 387 868 396 868 396 868 c 2
558 195 m 2
 557 254 l 1
 557 254 567 254 586 254 c 0
 605 254 615 254 615 254 c 1
 615 195 l 2
 615 130 602 84 575 57 c 0
 549 30 490 17 399 18 c 2
 347 18 l 1
 256 18 l 2
 167 18 109 30 81 55 c 0
 54 80 40 126 40 195 c 2
 40 195 40 218 39 264 c 2
 39 428 l 1
 39 617 l 1
 39 766 l 2
 39 835 52 881 79 906 c 0
 106 931 159 943 238 943 c 2
 399 943 l 2
 472 942 527 932 564 912 c 0
 601 893 618 844 615 766 c 2
 615 707 l 1
 557 707 l 1
 558 766 l 2
 563 894 414 884 397 884 c 0
 370 884 350 884 337 883 c 2
 278 883 l 2
 203 886 154 877 133 856 c 0
 112 836 101 806 101 766 c 2
 101 766 101 740 100 687 c 0
 100 635 100 576 99 509 c 0
 98 443 98 379 98 317 c 2
 98 195 l 2
 98 116 137 77 257 77 c 2
 397 77 l 2
 474 76 520 90 535 119 c 0
 550 148 557 173 558 195 c 2
EndSplineSet
EndChar

StartChar: afii10036
Encoding: 1058 1058 106
Width: 800
Flags: W
LayerCount: 2
Fore
SplineSet
40 945 m 1
 762 945 l 1
 762 886 l 1
 762 872 l 1
 703 872 l 1
 703 886 l 1
 394 886 l 1
 99 886 l 1
 99 872 l 1
 394 873 l 1
 394 81 l 1
 409 81 l 1
 409 873 l 1
 762 872 l 1
 762 813 l 1
 467 813 l 1
 416 814 l 1
 467 805 l 1
 467 20 l 1
 394 20 l 1
 394 20 384 20 364 20 c 0
 344 20 334 20 334 20 c 1
 334 813 l 1
 40 813 l 1
 40 945 l 1
EndSplineSet
EndChar

StartChar: afii10037
Encoding: 1059 1059 107
Width: 583
Flags: W
LayerCount: 2
Fore
SplineSet
478 945 m 1
 494 945 l 1
 494 886 l 1
 494 886 478 886 478 886 c 1
 478 886 478 867 478 829 c 2
 478 706 l 2
 479 661 479 620 479 582 c 0
 479 545 479 526 479 526 c 2
 479 476 461 447 426 440 c 0
 391 433 360 429 333 427 c 2
 333 427 329 426 322 425 c 0
 315 424 294 425 259 427 c 0
 242 428 216 430 181 435 c 0
 146 440 125 465 116 508 c 0
 115 509 115 529 114 568 c 0
 114 607 114 649 113 695 c 2
 113 823 l 1
 113 886 l 1
 113 886 95 886 95 886 c 1
 95 823 l 1
 95 695 l 2
 96 649 96 607 96 568 c 0
 96 529 96 509 97 507 c 0
 102 456 127 427 171 421 c 0
 215 416 243 413 256 413 c 0
 303 412 327 411 327 412 c 0
 328 413 331 413 336 413 c 0
 399 412 438 420 455 437 c 0
 472 454 480 462 480 462 c 1
 480 287 481 216 481 216 c 2
 481 123 439 94 335 93 c 0
 284 93 259 93 259 93 c 2
 260 93 260 93 260 93 c 2
 219 94 185 101 159 112 c 0
 133 123 118 152 115 197 c 1
 115 197 97 197 97 197 c 1
 97 256 l 1
 172 256 l 1
 172 222 l 2
 172 189 184 169 207 161 c 0
 230 153 258 150 289 152 c 0
 314 152 322 152 312 151 c 0
 302 151 310 151 335 151 c 0
 352 151 370 155 391 162 c 0
 412 169 422 189 422 222 c 2
 422 278 l 1
 422 358 l 1
 422 358 382 353 338 354 c 2
 277 354 l 1
 254 354 l 2
 158 351 98 365 73 396 c 0
 49 427 37 472 38 531 c 2
 38 531 38 552 38 595 c 2
 38 737 l 1
 38 879 l 2
 38 922 38 944 38 944 c 1
 38 944 60 944 104 944 c 0
 148 944 170 944 170 944 c 1
 170 882 l 1
 170 755 l 1
 170 627 l 1
 170 566 l 2
 171 537 178 515 193 501 c 0
 208 488 240 483 288 486 c 1
 288 486 302 485 333 485 c 0
 376 484 402 494 409 513 c 0
 417 533 421 547 421 555 c 0
 421 608 421 677 420 763 c 0
 419 850 419 910 419 945 c 1
 419 945 429 945 448 945 c 0
 468 945 478 945 478 945 c 1
97 256 m 1
 97 196 l 2
 97 174 104 149 119 120 c 0
 134 91 180 78 257 79 c 2
 338 79 l 2
 458 79 498 117 498 196 c 0
 498 221 498 264 497 325 c 0
 497 386 497 455 496 530 c 0
 496 576 496 627 495 683 c 0
 495 739 495 767 495 767 c 2
 494 791 494 827 494 874 c 0
 494 921 494 945 494 945 c 1
 494 945 504 945 524 945 c 0
 545 945 555 945 555 945 c 1
 555 945 555 918 555 863 c 2
 555 664 l 1
 555 418 l 2
 556 333 556 259 556 197 c 0
 556 128 542 81 514 56 c 0
 487 31 428 19 339 20 c 2
 255 20 l 2
 164 19 105 32 78 58 c 0
 52 85 39 131 39 197 c 2
 39 256 l 1
 39 256 49 256 68 256 c 0
 87 256 97 256 97 256 c 1
EndSplineSet
EndChar

StartChar: afii10038
Encoding: 1060 1060 108
Width: 967
Flags: W
LayerCount: 2
Fore
SplineSet
548 812 m 1
 548 812 570 812 615 812 c 2
 701 812 l 2
 760 813 789 789 789 742 c 2
 789 639 l 1
 789 547 l 2
 789 516 777 498 753 495 c 0
 729 492 706 490 684 490 c 0
 651 490 620 490 591 489 c 0
 562 489 548 489 548 489 c 1
 548 812 l 1
487 886 m 1
 488 944 l 1
 488 944 502 944 530 944 c 2
 705 944 l 2
 794 944 852 932 879 907 c 0
 907 882 921 836 921 767 c 2
 921 767 921 745 921 701 c 2
 921 531 l 2
 921 462 908 415 882 390 c 0
 856 366 804 354 725 354 c 2
 547 354 l 1
 547 20 l 1
 488 20 l 1
 488 78 l 1
 488 413 l 1
 610 413 l 2
 660 413 685 413 685 413 c 2
 760 410 808 419 829 440 c 0
 851 461 862 491 863 531 c 2
 863 531 863 560 863 619 c 2
 863 768 l 2
 863 845 824 886 704 886 c 2
 487 886 l 1
488 429 m 1
 488 429 510 429 555 430 c 0
 600 431 649 430 704 429 c 0
 815 426 847 466 847 530 c 2
 847 662 l 2
 847 719 847 748 847 748 c 2
 847 841 804 870 701 871 c 2
 556 871 l 2
 510 871 487 871 487 871 c 1
 488 429 l 1
413 812 m 1
 413 489 l 1
 413 489 399 489 370 489 c 0
 341 490 310 490 277 490 c 0
 254 490 231 492 207 495 c 0
 184 498 172 515 172 546 c 2
 172 639 l 1
 172 742 l 2
 172 789 201 813 260 812 c 2
 345 812 l 2
 390 812 413 812 413 812 c 1
487 886 m 1
 488 944 l 1
 488 944 471 944 438 944 c 2
 255 944 l 2
 166 944 108 932 80 907 c 0
 53 882 39 836 39 767 c 2
 39 767 39 745 39 701 c 2
 39 531 l 2
 39 462 52 415 78 390 c 0
 104 366 157 354 236 354 c 2
 413 354 l 1
 414 20 l 1
 488 20 l 1
 488 79 l 1
 473 79 l 1
 473 413 l 1
 350 413 l 2
 301 413 276 413 276 413 c 2
 201 410 152 419 131 440 c 0
 110 461 99 491 98 531 c 2
 98 531 98 560 97 619 c 2
 97 768 l 2
 97 845 137 886 257 886 c 2
 487 886 l 1
473 429 m 1
 473 871 l 1
 473 871 450 871 404 871 c 2
 260 871 l 2
 156 870 114 841 114 748 c 2
 114 748 114 719 114 662 c 2
 114 530 l 2
 114 466 147 426 256 429 c 0
 311 430 361 431 406 430 c 0
 451 429 473 429 473 429 c 1
EndSplineSet
EndChar

StartChar: afii10039
Encoding: 1061 1061 109
Width: 847
Flags: W
LayerCount: 2
Fore
SplineSet
423 488 m 1
 423 551 l 1
 445 552 l 2
 448 552 462 566 466 570 c 0
 503 613 530 671 555 731 c 0
 578 786 602 835 629 878 c 0
 656 921 669 943 669 943 c 1
 742 943 l 2
 785 943 807 943 807 943 c 1
 807 943 800 929 785 900 c 2
 736 807 l 1
 688 714 l 2
 674 686 667 672 667 672 c 1
 667 672 589 480 538 475 c 1
 569 464 595 434 618 386 c 0
 641 339 657 304 667 283 c 2
 807 12 l 1
 669 12 l 1
 669 12 657 32 632 71 c 0
 608 110 582 162 555 225 c 2
 516 309 l 2
 501 341 484 366 466 385 c 0
 437 416 424 413 424 413 c 1
 424 413 424 423 423 444 c 0
 423 465 423 476 423 476 c 1
 460 475 489 458 510 424 c 0
 531 390 555 348 580 298 c 0
 631 198 681 113 701 73 c 1
 701 73 717 73 717 73 c 1
 711 86 695 114 669 159 c 0
 644 204 619 251 596 300 c 0
 537 424 501 475 452 478 c 1
 483 477 512 499 538 546 c 0
 564 593 583 630 596 655 c 0
 632 727 678 809 717 882 c 1
 701 882 l 1
 701 882 686 854 655 797 c 0
 624 741 599 694 580 657 c 0
 551 598 521 534 482 501 c 0
 481 501 481 501 481 501 c 1
 464 492 444 488 423 488 c 1
423 415 m 1
 423 413 l 1
 401 412 l 2
 396 408 389 402 380 393 c 0
 343 350 317 292 292 232 c 0
 268 177 243 127 216 84 c 0
 190 41 177 20 177 20 c 1
 103 20 l 2
 60 20 39 20 39 20 c 1
 39 20 46 34 61 62 c 2
 109 155 l 1
 158 248 l 2
 173 277 180 291 180 291 c 1
 180 291 257 483 308 488 c 1
 277 499 251 529 228 576 c 0
 205 624 189 659 180 680 c 2
 39 951 l 1
 177 951 l 1
 177 951 189 931 213 892 c 0
 238 853 264 802 292 739 c 0
 302 714 315 686 330 654 c 0
 345 622 362 597 380 578 c 0
 409 547 423 551 423 551 c 1
 423 551 423 550 423 550 c 2
 423 522 423 488 423 488 c 1
 387 488 358 505 336 539 c 0
 315 573 291 615 266 665 c 0
 215 765 165 851 146 890 c 1
 146 890 129 890 129 890 c 1
 135 877 151 848 176 803 c 0
 202 758 227 711 250 663 c 0
 309 540 345 488 394 485 c 1
 363 486 334 463 308 416 c 0
 282 369 263 333 250 308 c 0
 215 235 168 154 129 81 c 1
 146 81 l 1
 146 81 161 109 191 165 c 0
 222 222 247 269 266 306 c 0
 297 365 325 429 365 462 c 0
 382 471 401 475 423 476 c 1
 423 415 l 1
EndSplineSet
EndChar

StartChar: afii10040
Encoding: 1062 1062 110
Width: 731
Flags: W
LayerCount: 2
Fore
SplineSet
112 149 m 1
 505 152 l 1
 505 945 l 1
 638 945 l 1
 638 152 l 1
 697 152 l 1
 697 -79 l 1
 567 -78 l 1
 568 20 l 1
 112 20 l 1
 112 79 l 1
 624 79 l 1
 624 -20 l 1
 638 -19 l 1
 638 79 l 1
 638 93 l 1
 578 93 l 1
 578 886 l 1
 564 886 l 1
 563 93 l 1
 112 93 l 1
 112 149 l 1
98 79 m 1
 98 886 l 1
 112 886 l 1
 112 149 l 1
 118 150 l 1
 170 160 l 1
 171 945 l 1
 39 945 l 1
 39 20 l 1
 112 20 l 1
 112 79 l 1
 98 79 l 1
EndSplineSet
EndChar

StartChar: afii10041
Encoding: 1063 1063 111
Width: 578
Flags: W
LayerCount: 2
Fore
SplineSet
477 944 m 1
 488 944 l 1
 488 885 l 1
 488 885 474 885 474 885 c 1
 474 885 474 866 474 829 c 2
 474 705 l 2
 475 660 475 619 475 582 c 0
 476 545 476 526 476 526 c 2
 477 475 459 446 424 439 c 0
 389 432 359 428 333 426 c 0
 332 426 328 425 321 424 c 0
 314 423 292 424 257 426 c 0
 241 427 215 430 180 435 c 0
 145 440 124 464 115 507 c 0
 114 508 114 528 113 567 c 0
 113 606 113 648 112 695 c 0
 112 742 112 784 111 823 c 2
 111 885 l 1
 111 885 97 885 97 885 c 1
 97 822 l 1
 97 694 l 1
 97 567 l 2
 98 528 98 508 98 506 c 0
 104 455 128 427 171 421 c 0
 214 415 242 412 254 412 c 0
 302 411 326 410 326 411 c 0
 327 412 330 412 335 412 c 0
 398 411 437 419 453 436 c 0
 469 453 477 461 477 461 c 1
 477 286 478 215 478 215 c 1
 478 131 l 2
 478 97 478 80 478 80 c 1
 492 80 l 1
 492 80 492 70 492 50 c 0
 492 30 492 20 492 20 c 1
 492 20 480 20 456 20 c 0
 432 20 420 20 420 20 c 2
 419 19 419 213 419 221 c 2
 419 277 l 1
 419 357 l 1
 419 357 381 352 337 353 c 2
 253 353 l 2
 156 350 96 364 73 395 c 0
 50 426 39 471 40 530 c 0
 41 666 39 805 39 944 c 1
 39 944 61 944 104 943 c 0
 147 943 169 943 169 943 c 2
 168 941 168 920 168 881 c 2
 168 754 l 1
 168 626 l 2
 169 587 169 567 169 566 c 0
 170 536 177 514 192 500 c 0
 207 487 238 482 286 485 c 1
 286 485 300 484 332 484 c 0
 375 483 401 493 408 513 c 0
 416 533 420 547 420 555 c 2
 418 763 l 1
 418 944 l 1
 418 944 428 944 447 944 c 0
 467 944 477 944 477 944 c 1
492 20 m 1
 492 196 l 2
 492 220 492 263 491 324 c 2
 491 529 l 1
 489 682 l 2
 489 738 489 766 489 766 c 2
 488 790 488 826 488 873 c 0
 488 920 488 944 488 944 c 1
 488 944 498 944 518 944 c 0
 539 944 549 944 549 944 c 1
 549 944 549 932 549 907 c 0
 550 882 550 835 550 766 c 2
 550 618 l 1
 550 429 l 1
 550 265 l 2
 550 219 550 196 550 196 c 1
 550 76 l 2
 550 39 550 20 550 20 c 1
 550 20 540 20 521 20 c 0
 502 20 492 20 492 20 c 1
EndSplineSet
EndChar

StartChar: afii10042
Encoding: 1064 1064 112
Width: 1007
Flags: HW
LayerCount: 2
Fore
SplineSet
112 150 m 1
 433 152 l 1
 433 945 l 1
 565 945 l 1
 565 150 l 1
 827 151 l 1
 827 944 l 1
 959 944 l 1
 959 19 l 1
 112 20 l 1
 112 79 l 1
 505 79 l 1
 899 78 l 1
 899 885 l 1
 886 885 l 1
 886 92 l 1
 505 93 l 1
 505 886 l 1
 492 886 l 1
 492 93 l 1
 112 93 l 1
 112 150 l 1
98 79 m 1
 98 886 l 1
 112 886 l 1
 112 150 l 1
 118 150 l 1
 170 160 l 1
 171 945 l 1
 40 945 l 1
 40 20 l 1
 112 20 l 1
 112 79 l 1
 98 79 l 1
EndSplineSet
EndChar

StartChar: afii10043
Encoding: 1065 1065 113
Width: 1069
Flags: W
LayerCount: 2
Fore
SplineSet
112 149 m 1
 433 151 l 1
 433 944 l 1
 565 944 l 1
 565 149 l 1
 827 151 l 1
 827 944 l 1
 959 944 l 1
 959 151 l 1
 1018 151 l 1
 1018 -80 l 1
 889 -79 l 1
 889 19 l 1
 112 20 l 1
 112 79 l 1
 505 78 l 1
 899 78 l 1
 945 78 l 1
 945 -21 l 1
 959 -20 l 1
 959 92 l 1
 899 92 l 1
 899 885 l 1
 886 885 l 1
 886 92 l 1
 505 92 l 1
 505 885 l 1
 492 885 l 1
 492 92 l 1
 112 93 l 1
 112 149 l 1
98 886 m 1
 98 79 l 1
 112 79 l 1
 112 20 l 1
 39 20 l 1
 39 945 l 1
 171 945 l 1
 170 160 l 1
 118 150 l 1
 112 149 l 1
 112 886 l 1
 98 886 l 1
EndSplineSet
EndChar

StartChar: afii10044
Encoding: 1066 1066 114
Width: 677
Flags: W
LayerCount: 2
Fore
SplineSet
211 93 m 1
 211 515 l 1
 211 515 233 515 278 514 c 0
 323 514 373 514 428 515 c 0
 537 518 570 476 570 415 c 2
 570 291 l 2
 570 241 570 216 570 216 c 2
 570 123 528 93 424 93 c 2
 279 93 l 2
 234 93 211 93 211 93 c 1
137 944 m 1
 271 944 l 1
 271 887 l 1
 270 872 l 1
 211 872 l 1
 211 886 l 1
 196 886 l 1
 98 886 l 1
 98 872 l 1
 196 872 l 1
 196 78 l 1
 427 78 l 2
 547 78 587 117 587 196 c 0
 587 235 587 281 586 334 c 0
 586 387 586 413 586 413 c 2
 585 453 574 483 553 504 c 0
 532 525 483 534 408 531 c 2
 408 531 383 531 334 531 c 2
 211 531 l 1
 211 872 l 1
 270 872 l 1
 271 590 l 1
 448 590 l 2
 527 590 579 578 605 553 c 0
 632 528 645 482 645 413 c 0
 645 274 645 197 645 197 c 2
 645 128 631 81 603 56 c 0
 576 31 518 19 429 20 c 0
 250 20 137 20 137 20 c 1
 137 815 l 1
 39 815 l 1
 39 945 l 1
 137 944 l 1
271 456 m 1
 271 152 l 1
 271 152 293 152 338 151 c 2
 424 151 l 2
 483 150 512 174 512 222 c 2
 512 314 l 1
 512 397 l 2
 512 428 500 446 476 449 c 0
 453 452 430 454 407 454 c 0
 374 454 343 454 314 455 c 0
 285 456 271 456 271 456 c 1
EndSplineSet
EndChar

StartChar: afii10045
Encoding: 1067 1067 115
Width: 760
Flags: W
LayerCount: 2
Fore
SplineSet
173 456 m 1
 173 152 l 1
 173 152 196 152 241 152 c 2
 326 152 l 2
 385 151 414 174 414 222 c 2
 414 314 l 1
 414 398 l 2
 414 429 402 446 378 449 c 0
 355 453 332 455 309 455 c 2
 216 455 l 2
 187 456 173 456 173 456 c 1
40 945 m 1
 172 944 l 1
 172 887 l 1
 172 873 l 1
 113 873 l 1
 113 886 l 1
 99 886 l 1
 99 79 l 1
 329 79 l 2
 449 79 489 118 489 197 c 0
 489 236 489 281 488 334 c 0
 488 387 488 414 488 414 c 2
 487 453 476 483 455 504 c 0
 434 525 385 534 310 531 c 2
 310 531 285 531 236 531 c 2
 113 531 l 1
 113 873 l 1
 172 873 l 1
 173 590 l 1
 351 590 l 2
 430 590 482 578 508 553 c 0
 534 529 547 482 547 413 c 0
 547 276 547 197 547 197 c 2
 547 128 533 82 505 57 c 0
 478 32 420 20 331 20 c 0
 154 20 39 20 39 20 c 1
 40 945 l 1
113 94 m 1
 114 516 l 1
 114 516 136 516 180 515 c 0
 225 514 275 515 330 516 c 0
 439 517 472 478 472 415 c 2
 472 292 l 2
 472 242 472 217 472 217 c 2
 472 122 430 94 327 94 c 0
 276 93 227 93 181 93 c 0
 136 94 113 94 113 94 c 1
590 944 m 1
 724 945 l 1
 724 872 l 1
 664 872 l 1
 664 887 l 1
 649 886 l 1
 650 81 l 1
 665 81 l 1
 664 872 l 1
 724 872 l 1
 723 20 l 1
 650 20 l 1
 650 20 640 20 620 20 c 0
 600 20 590 20 590 20 c 1
 590 944 l 1
EndSplineSet
EndChar

StartChar: afii10046
Encoding: 1068 1068 116
Width: 574
Flags: W
LayerCount: 2
Fore
SplineSet
113 94 m 1
 114 516 l 1
 114 516 136 516 180 515 c 0
 225 514 275 515 330 516 c 0
 439 517 472 478 472 415 c 2
 472 292 l 2
 472 242 472 217 472 217 c 2
 472 122 430 94 327 94 c 0
 276 93 227 93 181 93 c 0
 136 94 113 94 113 94 c 1
40 945 m 1
 172 944 l 1
 172 887 l 1
 172 873 l 1
 113 873 l 1
 113 886 l 1
 99 886 l 1
 99 79 l 1
 329 79 l 2
 449 79 489 118 489 197 c 0
 489 236 489 281 488 334 c 0
 488 387 488 414 488 414 c 2
 487 453 476 483 455 504 c 0
 434 525 385 534 310 531 c 2
 310 531 285 531 236 531 c 2
 113 531 l 1
 113 873 l 1
 172 873 l 1
 173 590 l 1
 351 590 l 2
 430 590 482 578 508 553 c 0
 534 529 547 482 547 413 c 0
 547 276 547 197 547 197 c 2
 547 128 533 82 505 57 c 0
 478 32 420 20 331 20 c 0
 154 20 39 20 39 20 c 1
 40 945 l 1
173 456 m 1
 173 152 l 1
 173 152 196 152 241 152 c 2
 326 152 l 2
 385 151 414 174 414 222 c 2
 414 314 l 1
 414 398 l 2
 414 429 402 446 378 449 c 0
 355 453 332 455 309 455 c 2
 216 455 l 2
 187 456 173 456 173 456 c 1
EndSplineSet
EndChar

StartChar: afii10047
Encoding: 1069 1069 117
Width: 646
Flags: W
LayerCount: 2
Fore
SplineSet
259 870 m 2
 259 870 268 870 286 869 c 0
 304 868 341 869 396 870 c 0
 505 871 538 832 538 769 c 2
 538 725 l 1
 538 635 l 1
 538 547 l 2
 538 521 538 508 538 508 c 1
 538 508 510 508 454 507 c 2
 316 507 l 1
 316 507 309 493 316 493 c 0
 389 486 462 493 537 493 c 1
 537 427 538 364 539 305 c 0
 540 246 541 217 541 217 c 2
 541 122 498 94 395 94 c 0
 292 93 260 94 260 94 c 2
 219 95 185 101 159 112 c 0
 133 124 118 152 115 197 c 1
 115 197 97 197 97 197 c 1
 97 256 l 1
 172 256 l 1
 172 222 l 2
 172 189 184 169 207 161 c 0
 230 153 258 150 289 152 c 2
 341 152 l 1
 395 152 l 2
 412 151 430 155 451 162 c 0
 472 170 482 190 482 222 c 0
 482 251 482 294 481 350 c 0
 481 406 481 434 481 434 c 1
 481 434 469 434 446 433 c 2
 369 433 l 1
 293 433 l 2
 270 433 258 433 258 433 c 1
 258 433 258 455 258 499 c 0
 258 543 258 565 258 565 c 2
 257 564 481 564 480 564 c 2
 480 660 l 1
 480 752 l 2
 479 783 467 800 443 803 c 0
 419 806 396 808 375 809 c 2
 327 809 l 1
 279 809 l 2
 211 809 175 805 174 752 c 2
 174 709 l 1
 116 709 l 1
 98 709 l 1
 97 768 l 1
 116 768 l 1
 116 769 l 2
 116 812 130 839 157 851 c 0
 184 864 218 870 259 870 c 2
97 256 m 1
 97 197 l 2
 98 175 105 149 120 120 c 0
 135 91 180 78 257 79 c 2
 397 79 l 2
 517 79 557 118 557 197 c 2
 557 197 557 227 556 286 c 0
 556 345 556 411 555 482 c 0
 555 553 555 619 554 678 c 0
 554 738 554 768 554 768 c 2
 553 807 542 837 521 858 c 0
 500 879 451 888 376 885 c 2
 316 885 l 2
 304 886 284 886 257 886 c 0
 241 885 89 897 97 768 c 1
 98 709 l 1
 39 709 l 1
 40 768 l 1
 37 846 53 895 90 914 c 0
 127 933 182 944 255 945 c 2
 416 945 l 2
 495 945 548 933 575 908 c 0
 602 883 615 836 615 767 c 2
 615 197 l 2
 615 128 601 82 573 57 c 0
 546 32 488 20 399 20 c 2
 306 20 l 1
 255 20 l 2
 164 19 105 32 78 59 c 0
 52 86 39 132 40 197 c 2
 39 256 l 1
 39 256 49 256 68 256 c 0
 87 256 97 256 97 256 c 1
EndSplineSet
EndChar

StartChar: afii10048
Encoding: 1070 1070 118
Width: 920
Flags: W
LayerCount: 2
Fore
SplineSet
625 153 m 2
 676 150 707 155 720 169 c 0
 733 184 741 201 742 222 c 2
 742 222 742 250 741 305 c 0
 741 360 741 421 740 487 c 2
 740 669 l 2
 740 724 740 752 740 752 c 2
 737 800 715 812 635 809 c 2
 635 809 619 809 588 809 c 2
 492 809 l 2
 469 809 445 807 422 804 c 0
 399 801 387 783 387 752 c 0
 387 743 387 712 386 660 c 0
 386 609 386 553 385 492 c 2
 385 321 l 1
 385 222 l 2
 385 175 414 151 472 152 c 2
 557 152 l 2
 602 153 625 153 625 153 c 2
700 886 m 1
 700 945 l 1
 761 943 806 931 834 908 c 0
 862 886 876 839 875 768 c 2
 875 197 l 2
 875 132 862 86 835 59 c 0
 808 32 750 20 659 21 c 2
 583 21 l 1
 468 21 l 2
 379 20 320 32 292 57 c 0
 265 82 251 128 251 197 c 2
 251 418 l 1
 172 417 l 1
 172 20 l 1
 39 20 l 1
 40 945 l 1
 172 945 l 1
 172 873 l 1
 172 551 l 1
 251 551 l 1
 251 768 l 2
 251 837 264 883 291 908 c 0
 318 933 371 945 450 945 c 2
 700 945 l 1
 700 886 l 1
 490 886 l 2
 415 888 366 879 345 858 c 0
 324 838 313 808 312 768 c 2
 312 768 312 746 312 703 c 2
 312 551 l 1
 311 492 l 1
 114 492 l 1
 113 887 l 1
 98 886 l 1
 99 81 l 1
 114 81 l 1
 113 478 l 1
 311 478 l 1
 310 197 l 2
 309 118 349 79 469 79 c 2
 657 79 l 2
 734 78 780 91 794 120 c 0
 809 149 816 175 817 197 c 2
 814 768 l 2
 814 828 798 862 765 870 c 0
 732 879 711 884 700 886 c 1
655 870 m 2
 695 870 729 864 756 851 c 0
 783 839 797 812 798 770 c 2
 800 217 l 2
 799 163 786 129 759 116 c 0
 733 103 698 95 654 94 c 2
 654 94 636 94 601 94 c 2
 472 94 l 2
 368 94 326 122 326 217 c 2
 326 217 326 243 326 294 c 0
 327 346 327 404 327 469 c 2
 327 656 l 2
 328 716 328 754 329 770 c 0
 329 801 339 825 358 844 c 0
 378 863 416 871 471 870 c 0
 580 867 655 870 655 870 c 2
EndSplineSet
EndChar

StartChar: afii10049
Encoding: 1071 1071 119
Width: 619
Flags: W
LayerCount: 2
Fore
SplineSet
455 508 m 1
 455 812 l 1
 455 812 432 812 387 812 c 2
 302 812 l 2
 244 813 215 789 215 742 c 2
 215 649 l 1
 215 566 l 2
 215 535 227 518 250 515 c 0
 273 512 297 510 320 510 c 0
 353 510 383 510 412 509 c 0
 441 508 455 508 455 508 c 1
589 20 m 1
 456 20 l 1
 456 77 l 1
 456 92 l 1
 515 91 l 1
 515 78 l 1
 530 78 l 1
 530 886 l 1
 299 886 l 2
 179 886 140 846 140 767 c 2
 140 629 l 2
 141 577 141 551 141 551 c 2
 141 511 152 481 173 460 c 0
 194 439 243 430 318 433 c 2
 318 433 319 433 320 433 c 2
 320 433 289 391 250 308 c 0
 231 265 209 223 185 182 c 0
 162 142 143 108 129 81 c 1
 129 81 146 81 146 81 c 1
 155 101 172 132 195 173 c 0
 219 215 243 259 266 306 c 0
 282 340 298 370 313 395 c 0
 328 420 336 433 337 433 c 2
 422 433 l 1
 515 433 l 1
 515 91 l 1
 456 92 l 1
 456 374 l 1
 365 374 l 1
 333 331 312 280 292 232 c 0
 257 151 214 76 177 20 c 1
 40 20 l 1
 40 20 47 34 61 62 c 2
 109 155 l 1
 158 248 l 2
 173 277 180 291 180 291 c 1
 200 340 219 376 219 376 c 1
 164 381 128 397 109 423 c 0
 91 449 82 492 82 551 c 0
 82 688 82 767 82 767 c 2
 82 836 96 882 123 907 c 0
 151 932 209 944 298 944 c 0
 475 943 589 944 589 944 c 1
 589 20 l 1
516 870 m 1
 515 449 l 1
 515 449 493 449 448 449 c 0
 403 450 354 450 299 449 c 0
 244 448 206 456 186 474 c 0
 166 493 156 518 156 549 c 2
 156 672 l 2
 156 723 156 748 156 748 c 2
 156 841 198 870 302 871 c 0
 353 871 401 871 447 870 c 0
 493 870 516 870 516 870 c 1
EndSplineSet
EndChar

StartChar: afii10065
Encoding: 1072 1072 120
Width: 518
Flags: W
LayerCount: 2
Fore
SplineSet
292 651 m 1
 287 651 l 1
 178 197 l 1
 362 197 l 1
 292 651 l 1
119 150 m 1
 250 698 l 1
 334 698 l 1
 417 150 l 1
 119 150 l 1
90 16 m 1
 117 138 l 1
 418 138 l 1
 437 16 l 1
 390 16 l 1
 378 92 l 1
 151 92 l 1
 135 16 l 1
 90 16 l 1
31 16 m 1
 204 756 l 1
 386 756 l 1
 494 16 l 1
 449 16 l 1
 441 63 l 1
 430 137 l 1
 343 710 l 1
 239 710 l 1
 89 63 l 1
 100 63 l 1
 90 16 l 1
 31 16 l 1
EndSplineSet
EndChar

StartChar: afii10066
Encoding: 1073 1073 121
Width: 459
Flags: W
LayerCount: 2
Fore
SplineSet
138 365 m 1
 138 122 l 1
 138 122 156 122 192 122 c 2
 261 122 l 2
 308 121 331 139 331 178 c 2
 331 251 l 1
 331 318 l 2
 331 343 321 356 302 359 c 0
 283 362 265 364 247 364 c 2
 172 364 l 2
 149 365 138 365 138 365 c 1
32 756 m 1
 425 756 l 1
 425 709 l 1
 425 698 l 1
 378 698 l 1
 378 709 l 1
 79 709 l 1
 79 63 l 1
 264 63 l 2
 359 63 391 94 391 158 c 0
 391 189 391 225 390 267 c 0
 390 310 390 331 390 331 c 2
 390 362 381 386 364 403 c 0
 347 420 308 427 248 425 c 2
 248 425 228 425 189 425 c 2
 90 425 l 1
 90 698 l 1
 425 698 l 1
 425 650 l 1
 138 650 l 1
 138 472 l 1
 281 472 l 2
 344 472 385 462 406 443 c 0
 427 424 438 386 438 330 c 0
 438 221 438 158 438 158 c 2
 438 103 427 65 404 45 c 0
 382 26 336 16 265 16 c 0
 122 16 31 16 31 16 c 1
 32 756 l 1
90 75 m 1
 91 413 l 1
 91 413 109 413 144 412 c 0
 180 411 220 412 264 413 c 0
 352 414 378 383 378 332 c 2
 378 233 l 2
 378 193 378 173 378 173 c 2
 378 98 343 75 262 75 c 0
 221 74 182 74 145 74 c 0
 108 75 90 75 90 75 c 1
EndSplineSet
EndChar

StartChar: afii10067
Encoding: 1074 1074 122
Width: 460
Flags: W
LayerCount: 2
Fore
SplineSet
138 364 m 1
 138 121 l 1
 138 121 156 121 192 121 c 2
 261 121 l 2
 307 120 330 139 330 177 c 2
 330 251 l 2
 331 280 331 303 331 318 c 0
 331 343 321 356 302 359 c 0
 283 362 265 363 247 363 c 2
 172 363 l 2
 149 364 138 364 138 364 c 1
90 75 m 1
 91 413 l 1
 91 413 109 413 144 412 c 0
 180 411 220 412 264 413 c 0
 352 414 378 383 378 332 c 2
 378 233 l 2
 378 193 378 173 378 173 c 2
 378 98 343 75 262 75 c 0
 221 74 182 74 145 74 c 0
 108 75 90 75 90 75 c 1
138 646 m 1
 138 470 l 1
 138 470 156 470 192 470 c 2
 261 470 l 2
 307 469 330 487 330 526 c 2
 330 566 l 1
 330 600 l 2
 330 625 321 639 302 642 c 0
 283 645 265 646 247 646 c 2
 172 646 l 2
 149 646 138 646 138 646 c 1
90 423 m 1
 91 694 l 1
 91 694 109 694 144 694 c 2
 264 694 l 2
 352 697 378 663 378 614 c 0
 378 563 378 522 378 522 c 2
 378 447 343 423 262 423 c 2
 145 423 l 2
 108 423 90 423 90 423 c 1
32 756 m 1
 265 755 l 2
 330 755 375 746 400 729 c 0
 425 712 438 673 438 614 c 2
 438 538 l 2
 438 457 428 428 407 421 c 1
 407 421 405 423 405 423 c 1
 428 414 438 393 438 337 c 0
 438 226 438 158 438 158 c 2
 438 103 427 65 404 45 c 0
 382 26 336 16 265 16 c 0
 122 16 31 16 31 16 c 1
 32 756 l 1
79 709 m 1
 79 63 l 1
 263 63 l 2
 286 63 314 67 345 75 c 0
 376 84 392 111 391 158 c 0
 390 203 390 243 390 278 c 0
 390 313 390 331 390 331 c 1
 390 331 393 359 382 382 c 0
 373 399 362 410 349 414 c 0
 336 418 330 420 330 420 c 1
 359 427 377 440 382 460 c 0
 387 480 390 506 390 538 c 0
 390 602 391 614 391 614 c 1
 391 614 390 621 389 636 c 0
 388 651 383 663 374 674 c 0
 354 697 324 709 263 709 c 2
 148 709 l 2
 102 709 79 709 79 709 c 1
EndSplineSet
EndChar

StartChar: afii10068
Encoding: 1075 1075 123
Width: 446
Flags: W
LayerCount: 2
Fore
SplineSet
32 756 m 1
 425 756 l 1
 425 709 l 1
 425 698 l 1
 378 698 l 1
 378 709 l 1
 79 709 l 1
 79 65 l 1
 91 65 l 1
 90 698 l 1
 425 698 l 1
 425 650 l 1
 138 650 l 1
 138 16 l 1
 79 16 l 1
 79 16 71 16 55 16 c 0
 39 16 31 16 31 16 c 1
 32 756 l 1
EndSplineSet
EndChar

StartChar: afii10069
Encoding: 1076 1076 124
Width: 562
Flags: W
LayerCount: 2
Fore
SplineSet
91 -31 m 1
 91 134 l 1
 465 134 l 1
 466 16 l 1
 478 16 l 1
 478 -31 l 1
 418 -31 l 1
 418 94 l 1
 138 94 l 1
 138 -31 l 1
 91 -31 l 1
145 756 m 1
 508 756 l 1
 508 193 l 1
 536 193 l 1
 535 -31 l 1
 478 -31 l 1
 478 146 l 1
 461 146 l 1
 460 709 l 1
 449 709 l 1
 196 709 l 1
 196 666 l 1
 188 517 184 265 97 146 c 1
 97 146 79 146 79 146 c 1
 79 16 l 1
 91 16 l 1
 91 -31 l 1
 79 -31 l 1
 32 -31 l 1
 31 193 l 1
 76 193 l 1
 89 212 104 258 121 329 c 0
 138 400 146 512 145 663 c 2
 145 756 l 1
449 146 m 1
 110 146 l 2
 111 146 116 154 124 170 c 0
 133 186 137 194 137 194 c 2
 166 255 184 332 192 426 c 0
 201 520 207 605 210 681 c 2
 210 698 l 1
 449 697 l 1
 449 146 l 1
401 193 m 1
 401 651 l 1
 250 651 l 1
 250 651 250 646 250 646 c 2
 247 601 244 517 237 425 c 0
 232 356 223 300 208 257 c 0
 193 214 186 193 186 193 c 1
 401 193 l 1
EndSplineSet
EndChar

StartChar: afii10070
Encoding: 1077 1077 125
Width: 446
Flags: W
LayerCount: 2
Fore
SplineSet
32 756 m 1
 425 756 l 1
 425 709 l 1
 426 697 l 1
 378 697 l 1
 378 709 l 1
 79 709 l 1
 79 64 l 1
 378 63 l 1
 378 74 l 1
 90 74 l 1
 90 414 l 1
 378 414 l 1
 378 424 l 1
 90 426 l 1
 90 697 l 1
 426 697 l 1
 425 650 l 1
 138 650 l 1
 138 473 l 1
 425 472 l 1
 425 366 l 1
 138 366 l 1
 138 122 l 1
 425 121 l 1
 425 17 l 1
 293 17 163 16 31 16 c 1
 32 756 l 1
EndSplineSet
EndChar

StartChar: afii10072
Encoding: 1078 1078 126
Width: 786
Flags: W
LayerCount: 2
Fore
SplineSet
337 756 m 1
 395 756 l 1
 395 735 l 1
 395 709 l 1
 384 709 l 1
 386 383 l 1
 338 383 l 2
 293 384 260 401 239 435 c 0
 218 470 203 506 194 543 c 0
 187 574 174 608 157 645 c 0
 140 683 117 702 86 703 c 1
 86 693 l 1
 115 693 136 673 151 633 c 0
 166 594 177 564 183 543 c 0
 189 521 199 493 213 458 c 0
 228 423 252 399 286 384 c 0
 303 376 315 376 315 376 c 1
 276 373 247 334 200 238 c 0
 181 201 162 165 141 130 c 0
 120 95 108 73 103 63 c 1
 103 63 117 63 117 63 c 1
 132 92 172 160 213 237 c 0
 233 276 252 308 269 334 c 0
 286 361 309 374 338 374 c 2
 338 374 345 374 358 374 c 2
 386 374 l 1
 386 263 384 170 384 63 c 1
 384 63 395 63 395 63 c 1
 395 16 l 1
 337 16 l 1
 337 16 337 32 337 64 c 2
 337 171 l 2
 338 210 338 245 338 277 c 0
 338 310 338 326 338 326 c 1
 338 326 328 328 304 304 c 0
 275 275 250 217 234 180 c 0
 211 131 190 92 171 61 c 0
 152 31 142 16 142 16 c 1
 31 16 l 1
 144 226 l 2
 151 242 164 268 182 305 c 0
 201 342 222 365 246 374 c 1
 219 379 199 395 185 423 c 0
 172 451 162 475 156 495 c 0
 148 525 130 649 66 646 c 2
 39 646 l 1
 39 756 l 1
 39 756 45 756 56 756 c 0
 68 757 77 757 82 757 c 0
 138 756 172 736 184 695 c 0
 196 654 207 617 218 583 c 0
 219 582 255 427 338 432 c 1
 337 756 l 1
395 709 m 1
 395 756 l 1
 442 756 l 1
 442 432 l 1
 524 427 562 582 561 583 c 0
 572 617 583 654 595 695 c 0
 608 736 642 756 698 757 c 0
 703 757 712 757 723 756 c 0
 734 756 740 756 740 756 c 1
 740 646 l 1
 714 646 l 2
 649 649 630 525 624 495 c 0
 618 475 608 451 594 423 c 0
 581 395 561 379 534 374 c 1
 534 374 533 374 534 374 c 1
 558 365 579 342 597 305 c 2
 636 226 l 1
 749 16 l 1
 638 16 l 1
 638 16 628 31 608 61 c 0
 589 92 568 131 546 180 c 0
 530 217 504 275 475 304 c 0
 452 328 442 326 442 326 c 1
 442 326 442 310 442 277 c 2
 442 171 l 1
 442 64 l 2
 443 32 443 16 443 16 c 1
 395 16 l 1
 395 374 l 1
 422 374 l 2
 435 374 442 374 442 374 c 2
 471 374 493 361 510 334 c 0
 527 308 546 276 566 237 c 0
 609 160 647 94 663 63 c 1
 663 63 677 63 677 63 c 1
 672 73 659 95 638 130 c 0
 617 165 598 201 579 238 c 0
 532 334 504 373 465 376 c 1
 465 376 477 376 494 384 c 0
 527 399 551 423 565 458 c 0
 580 493 590 521 597 543 c 0
 602 564 612 595 627 634 c 0
 642 673 665 693 694 693 c 1
 694 703 l 1
 663 702 639 683 622 645 c 0
 605 608 593 574 586 543 c 0
 577 506 561 470 540 435 c 0
 519 401 486 384 441 383 c 2
 395 383 l 1
 395 709 l 1
EndSplineSet
EndChar

StartChar: afii10073
Encoding: 1079 1079 127
Width: 518
Flags: W
LayerCount: 2
Fore
SplineSet
207 695 m 2
 207 695 228 694 317 695 c 0
 404 698 430 664 430 615 c 2
 430 577 l 2
 431 555 431 535 431 517 c 0
 431 494 424 472 411 453 c 0
 398 434 366 424 314 425 c 2
 314 425 304 425 283 424 c 0
 263 424 253 424 253 424 c 1
 253 424 253 418 253 413 c 1
 253 413 264 413 285 413 c 0
 306 414 317 414 317 414 c 2
 378 416 412 404 419 377 c 0
 426 351 430 336 430 333 c 0
 430 228 433 173 433 173 c 2
 433 98 399 75 316 74 c 0
 233 74 208 74 208 74 c 2
 148 75 113 87 102 111 c 0
 97 121 93 137 92 158 c 1
 92 158 78 158 78 158 c 1
 78 205 l 1
 138 205 l 1
 138 178 l 2
 138 151 147 135 166 128 c 0
 185 122 206 120 231 122 c 2
 273 122 l 1
 316 122 l 2
 329 121 344 124 361 129 c 0
 378 135 386 151 386 178 c 0
 386 225 385 271 385 319 c 0
 385 358 360 365 300 365 c 2
 300 365 284 365 253 365 c 0
 222 366 206 366 206 366 c 1
 206 366 206 383 206 418 c 0
 206 453 206 470 206 470 c 1
 206 470 224 470 260 470 c 0
 296 470 314 470 314 470 c 2
 345 470 365 477 372 490 c 0
 380 504 384 516 384 526 c 2
 384 601 l 2
 383 626 373 640 354 642 c 0
 335 645 317 646 300 647 c 2
 261 647 l 1
 223 647 l 2
 168 647 140 645 139 601 c 2
 139 566 l 1
 93 566 l 1
 78 566 l 1
 78 614 l 1
 93 614 l 1
 93 615 l 2
 93 649 104 671 125 681 c 0
 147 691 174 696 207 695 c 2
78 205 m 1
 78 158 l 2
 78 142 79 122 87 106 c 0
 99 81 126 66 206 63 c 2
 318 63 l 2
 414 63 446 94 446 158 c 0
 446 179 445 250 445 327 c 0
 445 342 441 360 433 380 c 0
 426 400 409 412 383 416 c 0
 350 419 455 393 443 534 c 1
 443 534 443 547 443 574 c 0
 443 601 443 614 443 614 c 2
 442 646 433 670 416 686 c 0
 399 703 361 710 301 708 c 2
 253 708 l 1
 206 708 l 2
 194 708 70 717 78 614 c 1
 78 566 l 1
 32 566 l 1
 32 614 l 2
 29 676 43 715 72 730 c 0
 101 746 145 754 204 755 c 2
 334 755 l 2
 397 755 439 745 460 725 c 0
 481 706 492 669 492 614 c 0
 492 599 489 562 490 534 c 0
 493 474 488 439 477 430 c 0
 466 421 461 417 461 417 c 1
 475 412 484 399 487 378 c 0
 490 358 492 341 492 326 c 2
 492 207 l 2
 492 174 492 158 492 158 c 2
 492 102 481 64 459 45 c 0
 437 26 390 16 319 16 c 2
 245 16 l 1
 204 16 l 2
 131 15 83 25 62 46 c 0
 41 67 31 105 32 158 c 2
 32 205 l 1
 32 205 40 205 55 205 c 0
 70 205 78 205 78 205 c 1
EndSplineSet
EndChar

StartChar: afii10074
Encoding: 1080 1080 128
Width: 546
Flags: W
LayerCount: 2
Fore
SplineSet
31 756 m 1
 90 756 l 1
 90 709 l 1
 82 709 l 1
 82 63 l 1
 94 63 l 1
 457 692 l 1
 457 535 l 1
 457 63 l 1
 467 63 l 1
 467 551 l 1
 467 709 l 1
 455 709 l 1
 94 82 l 1
 90 756 l 1
 142 756 l 1
 142 253 l 1
 107 157 l 1
 150 252 l 1
 394 756 l 1
 519 756 l 1
 519 16 l 1
 410 16 l 1
 410 487 l 1
 444 583 l 1
 402 488 l 1
 158 16 l 1
 79 16 l 1
 31 16 l 1
 31 756 l 1
EndSplineSet
EndChar

StartChar: afii10075
Encoding: 1081 1081 129
Width: 546
Flags: W
LayerCount: 2
Fore
SplineSet
359 882 m 1
 485 882 l 1
 485 778 l 1
 431 778 389 778 359 777 c 2
 276 777 l 1
 193 777 l 1
 67 777 l 1
 67 882 l 1
 193 882 l 1
 276 882 l 1
 359 882 l 1
109 822 m 1
 443 824 l 1
 443 835 l 1
 109 833 l 1
 109 822 l 1
31 756 m 1
 90 756 l 1
 90 709 l 1
 82 709 l 1
 83 63 l 1
 94 63 l 1
 457 692 l 1
 457 534 l 1
 457 63 l 1
 467 63 l 1
 467 550 l 1
 467 709 l 1
 455 709 l 1
 94 82 l 1
 90 756 l 1
 142 756 l 1
 142 253 l 1
 107 157 l 1
 150 252 l 1
 394 756 l 1
 519 756 l 1
 519 16 l 1
 410 16 l 1
 410 486 l 1
 444 583 l 1
 402 487 l 1
 158 16 l 1
 79 16 l 1
 31 16 l 1
 31 756 l 1
EndSplineSet
EndChar

StartChar: afii10076
Encoding: 1082 1082 130
Width: 465
Flags: W
LayerCount: 2
Fore
SplineSet
32 756 m 1
 90 756 l 1
 90 735 l 1
 90 709 l 1
 79 709 l 1
 80 494 80 278 79 63 c 1
 79 63 90 63 90 63 c 1
 90 16 l 1
 31 16 l 1
 32 263 32 508 32 756 c 1
90 709 m 1
 90 756 l 1
 138 756 l 1
 136 432 l 1
 218 427 256 582 255 583 c 0
 266 617 278 654 290 695 c 0
 303 736 337 756 393 757 c 0
 398 757 406 757 417 756 c 0
 428 756 434 756 434 756 c 1
 434 646 l 1
 408 646 l 2
 342 649 326 525 318 495 c 0
 313 475 303 451 289 423 c 0
 275 395 255 379 228 374 c 1
 228 374 227 374 228 374 c 1
 253 365 274 342 291 305 c 2
 330 226 l 1
 443 16 l 1
 333 16 l 1
 333 16 323 31 303 61 c 0
 284 92 263 131 241 180 c 0
 224 217 199 275 170 304 c 0
 146 328 136 326 136 326 c 1
 136 326 136 310 136 277 c 2
 136 171 l 2
 137 132 137 97 137 64 c 0
 138 32 138 16 138 16 c 1
 90 16 l 1
 90 374 l 1
 117 374 l 2
 130 374 136 374 136 374 c 2
 165 374 188 361 205 334 c 0
 222 308 241 276 262 237 c 0
 302 160 342 94 358 63 c 1
 358 63 371 63 371 63 c 1
 366 73 354 95 333 130 c 0
 312 165 293 201 274 238 c 0
 226 334 198 373 159 376 c 1
 159 376 170 376 189 384 c 0
 222 399 245 423 260 458 c 0
 275 493 285 521 291 543 c 0
 296 564 307 595 322 634 c 0
 338 673 360 693 389 693 c 1
 389 703 l 1
 358 702 333 683 316 645 c 0
 299 608 288 574 281 543 c 0
 271 506 255 470 234 435 c 0
 213 401 181 384 136 383 c 2
 90 383 l 1
 90 709 l 1
EndSplineSet
EndChar

StartChar: afii10077
Encoding: 1083 1083 131
Width: 595
Flags: W
LayerCount: 2
Fore
SplineSet
508 698 m 1
 508 63 l 1
 518 63 l 1
 518 709 l 1
 197 709 l 1
 198 205 l 2
 199 166 189 127 170 90 c 0
 151 53 122 46 82 70 c 1
 82 70 80 57 80 57 c 1
 123 38 156 45 177 78 c 0
 199 112 210 154 209 205 c 2
 209 288 l 1
 209 698 l 1
 508 698 l 1
152 756 m 1
 566 756 l 1
 566 16 l 1
 461 16 l 1
 461 650 l 1
 256 650 l 1
 256 288 l 2
 255 249 257 186 246 118 c 0
 241 94 229 58 202 34 c 0
 180 13 151 2 116 3 c 0
 99 3 60 8 31 16 c 1
 47 119 l 1
 62 112 76 109 87 109 c 0
 114 109 128 123 136 134 c 0
 143 142 147 159 149 186 c 0
 151 213 152 235 152 252 c 2
 152 756 l 1
EndSplineSet
EndChar

StartChar: afii10078
Encoding: 1084 1084 132
Width: 734
Flags: W
LayerCount: 2
Fore
SplineSet
31 16 m 1
 32 756 l 1
 174 756 l 1
 220 566 l 1
 366 157 l 1
 510 567 l 1
 560 756 l 1
 700 756 l 1
 699 16 l 1
 594 16 l 1
 594 535 l 1
 601 566 l 1
 636 662 l 1
 594 567 l 1
 420 16 l 1
 310 16 l 1
 137 567 l 1
 95 662 l 1
 130 566 l 1
 137 535 l 1
 137 16 l 1
 31 16 l 1
79 63 m 1
 90 63 l 1
 90 697 l 1
 113 697 l 1
 166 568 l 1
 359 63 l 1
 371 63 l 1
 565 566 l 1
 618 697 l 1
 641 697 l 1
 641 63 l 1
 652 63 l 1
 652 709 l 1
 610 709 l 1
 553 566 l 1
 366 75 l 1
 178 569 l 1
 121 709 l 1
 79 709 l 1
 79 63 l 1
EndSplineSet
EndChar

StartChar: afii10079
Encoding: 1085 1085 133
Width: 536
Flags: W
LayerCount: 2
Fore
SplineSet
136 350 m 1
 90 350 l 1
 90 333 l 1
 90 396 l 1
 451 396 l 1
 452 63 l 1
 462 63 l 1
 462 709 l 1
 451 709 l 1
 451 407 l 1
 90 407 l 1
 90 756 l 1
 137 756 l 1
 137 455 l 1
 404 456 l 1
 404 756 l 1
 510 756 l 1
 510 16 l 1
 404 16 l 1
 404 349 l 1
 136 350 l 1
90 709 m 1
 78 709 l 1
 78 63 l 1
 90 63 l 1
 90 350 l 1
 94 350 l 1
 136 342 l 1
 137 16 l 1
 74 16 l 1
 32 16 l 1
 32 756 l 1
 90 756 l 1
 90 709 l 1
EndSplineSet
EndChar

StartChar: afii10080
Encoding: 1086 1086 134
Width: 558
Flags: W
LayerCount: 2
Fore
SplineSet
330 122 m 2
 371 119 396 124 406 135 c 0
 417 147 422 161 423 178 c 2
 423 178 423 200 422 244 c 2
 422 389 l 1
 422 534 l 2
 422 579 422 601 422 601 c 2
 421 640 402 648 338 647 c 2
 338 647 325 647 300 647 c 2
 223 647 l 2
 205 647 186 645 167 642 c 0
 148 639 139 626 139 601 c 0
 139 594 139 569 138 528 c 2
 138 393 l 1
 138 256 l 1
 138 178 l 2
 138 139 161 121 208 122 c 2
 276 122 l 2
 312 122 330 122 330 122 c 2
390 708 m 1
 390 755 l 1
 439 754 475 745 497 726 c 0
 520 708 531 671 530 614 c 2
 530 158 l 2
 530 105 519 67 498 46 c 0
 477 25 430 15 357 16 c 2
 297 16 l 1
 205 16 l 2
 134 16 87 26 65 45 c 0
 43 65 32 103 32 158 c 2
 32 158 32 176 31 213 c 2
 31 344 l 1
 31 495 l 1
 31 614 l 2
 31 669 42 707 63 726 c 0
 85 745 127 755 190 755 c 2
 390 755 l 1
 390 708 l 1
 222 708 l 2
 162 710 123 703 106 686 c 0
 89 670 81 646 81 614 c 2
 81 614 81 593 80 551 c 2
 78 409 l 1
 78 255 l 1
 78 158 l 2
 78 94 110 62 206 62 c 2
 356 62 l 2
 418 62 455 73 466 96 c 0
 477 119 483 139 483 158 c 2
 482 614 l 2
 482 662 469 689 442 696 c 0
 416 703 399 707 390 708 c 1
354 695 m 2
 418 696 468 683 469 615 c 2
 470 173 l 2
 470 130 459 103 438 92 c 0
 417 81 389 76 354 75 c 2
 354 75 288 74 208 75 c 0
 125 75 91 98 91 173 c 2
 91 173 91 194 91 235 c 0
 92 276 92 323 92 375 c 2
 92 524 l 2
 93 572 93 602 93 615 c 0
 93 664 119 698 207 695 c 0
 295 694 354 695 354 695 c 2
EndSplineSet
EndChar

StartChar: afii10081
Encoding: 1087 1087 135
Width: 536
Flags: W
LayerCount: 2
Fore
SplineSet
404 650 m 1
 90 652 l 1
 90 634 l 1
 90 698 l 1
 451 698 l 1
 452 63 l 1
 462 63 l 1
 462 709 l 1
 90 709 l 1
 90 756 l 1
 510 756 l 1
 510 16 l 1
 404 16 l 1
 404 650 l 1
90 709 m 1
 78 709 l 1
 78 63 l 1
 90 63 l 1
 90 652 l 1
 94 652 l 1
 136 644 l 1
 137 16 l 1
 31 16 l 1
 31 756 l 1
 90 756 l 1
 90 709 l 1
EndSplineSet
EndChar

StartChar: afii10082
Encoding: 1088 1088 136
Width: 459
Flags: W
LayerCount: 2
Fore
SplineSet
138 650 m 1
 138 407 l 1
 138 407 149 407 172 407 c 0
 195 408 220 408 247 408 c 0
 265 408 283 409 302 412 c 0
 321 415 331 428 331 453 c 2
 331 519 l 1
 331 594 l 2
 330 631 307 650 261 650 c 2
 192 650 l 2
 156 650 138 650 138 650 c 1
138 62 m 1
 138 16 l 1
 31 16 l 1
 31 756 l 1
 31 756 122 755 265 755 c 0
 336 755 382 745 404 725 c 0
 427 706 438 669 438 614 c 2
 438 614 438 550 438 441 c 0
 438 386 427 348 406 328 c 0
 385 309 343 299 280 299 c 2
 138 299 l 1
 138 74 l 1
 90 74 l 1
 90 346 l 1
 189 346 l 2
 228 346 248 346 248 346 c 2
 308 344 347 351 364 368 c 0
 381 385 390 409 390 441 c 2
 390 441 390 462 390 503 c 0
 391 545 391 582 391 614 c 0
 391 677 359 709 263 709 c 2
 78 709 l 1
 78 62 l 1
 90 62 l 1
 90 74 l 1
 138 74 l 1
 138 62 l 1
91 359 m 1
 90 697 l 1
 90 697 108 697 145 697 c 2
 261 697 l 2
 344 696 378 673 378 598 c 2
 378 598 378 578 378 537 c 2
 378 439 l 2
 378 390 352 358 264 359 c 0
 220 360 180 360 144 359 c 0
 109 359 91 359 91 359 c 1
EndSplineSet
EndChar

StartChar: afii10083
Encoding: 1089 1089 137
Width: 519
Flags: W
LayerCount: 2
Fore
SplineSet
317 694 m 2
 349 694 376 689 397 679 c 0
 419 670 430 648 431 614 c 2
 431 613 l 1
 446 613 l 1
 446 566 l 1
 430 566 l 1
 384 566 l 1
 384 600 l 2
 383 643 356 646 300 646 c 2
 261 646 l 1
 224 646 l 2
 207 646 188 645 169 642 c 0
 150 639 140 625 140 600 c 0
 139 459 138 317 138 176 c 0
 138 151 146 135 162 128 c 0
 179 122 194 119 208 120 c 2
 250 120 l 1
 293 120 l 2
 342 117 386 124 386 176 c 2
 386 203 l 1
 446 203 l 1
 446 156 l 1
 446 156 432 156 432 156 c 1
 425 84 383 74 316 74 c 2
 316 74 289 73 208 74 c 0
 125 74 91 97 91 172 c 2
 91 172 91 193 91 234 c 0
 92 275 92 322 92 374 c 2
 92 523 l 2
 93 570 93 601 93 614 c 0
 93 663 119 695 207 694 c 0
 295 693 317 694 317 694 c 2
446 156 m 2
 446 203 l 1
 446 203 454 203 469 203 c 0
 484 203 492 203 492 203 c 1
 492 156 l 2
 492 104 481 67 460 46 c 0
 439 25 392 14 319 14 c 2
 278 14 l 1
 205 14 l 2
 134 14 87 24 65 44 c 0
 43 64 32 101 32 156 c 2
 32 156 32 174 31 211 c 2
 31 342 l 1
 31 494 l 1
 31 613 l 2
 31 668 42 705 63 724 c 0
 85 744 127 754 190 754 c 2
 319 754 l 2
 378 754 422 746 451 730 c 0
 480 714 494 675 492 613 c 2
 492 566 l 1
 446 566 l 1
 446 613 l 1
 451 714 331 707 318 707 c 0
 296 707 280 707 270 706 c 2
 222 706 l 2
 162 709 123 702 106 685 c 0
 89 669 81 645 81 613 c 2
 81 613 81 592 80 550 c 0
 80 508 80 460 79 407 c 0
 78 354 78 303 78 254 c 2
 78 156 l 2
 78 93 110 62 206 62 c 2
 318 62 l 2
 379 61 416 72 428 95 c 0
 440 118 446 139 446 156 c 2
EndSplineSet
EndChar

StartChar: afii10084
Encoding: 1090 1090 138
Width: 640
Flags: W
LayerCount: 2
Fore
SplineSet
32 756 m 1
 610 756 l 1
 610 709 l 1
 610 698 l 1
 562 698 l 1
 562 709 l 1
 315 709 l 1
 79 709 l 1
 79 698 l 1
 315 698 l 1
 315 65 l 1
 327 65 l 1
 327 698 l 1
 610 698 l 1
 610 650 l 1
 374 650 l 1
 333 651 l 1
 374 644 l 1
 374 16 l 1
 315 16 l 1
 315 16 307 16 291 16 c 0
 275 16 267 16 267 16 c 1
 267 650 l 1
 32 650 l 1
 32 756 l 1
EndSplineSet
EndChar

StartChar: afii10085
Encoding: 1091 1091 139
Width: 466
Flags: W
LayerCount: 2
Fore
SplineSet
382 756 m 1
 395 756 l 1
 395 709 l 1
 395 709 382 709 382 709 c 1
 382 709 382 694 382 663 c 2
 382 564 l 2
 383 529 383 496 383 466 c 0
 383 436 383 421 383 421 c 2
 383 381 369 358 341 352 c 0
 313 347 288 343 266 342 c 1
 266 342 263 341 258 340 c 0
 253 339 236 340 207 342 c 0
 194 342 173 344 145 348 c 0
 117 352 100 371 93 406 c 0
 92 407 92 423 91 454 c 0
 91 485 91 519 90 556 c 2
 90 659 l 1
 90 709 l 1
 90 709 76 709 76 709 c 1
 76 659 l 1
 76 556 l 2
 77 519 77 485 77 454 c 0
 77 423 77 407 78 406 c 0
 82 365 102 342 137 337 c 0
 172 332 195 330 205 330 c 0
 243 329 262 329 262 329 c 2
 262 330 264 330 269 330 c 0
 319 330 351 337 364 350 c 0
 377 363 384 370 384 370 c 1
 384 230 385 173 385 173 c 2
 385 98 351 75 268 74 c 0
 227 74 207 74 207 74 c 2
 208 74 208 74 208 74 c 2
 175 75 148 80 127 89 c 0
 106 98 95 121 92 158 c 1
 92 158 78 158 78 158 c 1
 78 205 l 1
 138 205 l 1
 138 178 l 2
 138 151 147 135 166 128 c 0
 185 122 206 120 231 122 c 0
 252 122 258 122 250 121 c 0
 242 121 248 121 268 121 c 0
 281 121 296 124 313 129 c 0
 330 135 338 151 338 178 c 2
 338 222 l 1
 338 286 l 1
 338 286 306 282 270 283 c 2
 203 283 l 2
 126 281 78 292 59 317 c 0
 40 342 30 378 30 425 c 2
 30 425 30 442 30 476 c 2
 30 590 l 1
 30 703 l 2
 30 738 30 755 30 755 c 1
 30 755 48 755 83 755 c 0
 118 755 136 755 136 755 c 1
 136 706 l 1
 136 604 l 1
 136 502 l 1
 136 453 l 2
 137 406 154 384 230 389 c 1
 230 389 242 388 266 388 c 0
 301 387 321 395 327 410 c 0
 334 426 337 437 337 444 c 0
 337 486 337 541 336 610 c 0
 335 679 335 728 335 756 c 1
 335 756 343 756 358 756 c 0
 374 756 382 756 382 756 c 1
78 205 m 1
 78 157 l 2
 78 139 84 119 96 96 c 0
 108 73 145 62 206 63 c 2
 270 63 l 2
 366 63 398 94 398 157 c 2
 398 260 l 2
 398 309 398 364 397 424 c 0
 397 461 397 501 396 546 c 0
 396 591 396 614 396 614 c 2
 395 633 395 661 395 699 c 0
 395 737 395 756 395 756 c 1
 395 756 403 756 419 756 c 0
 436 756 444 756 444 756 c 1
 444 756 444 734 444 690 c 2
 444 531 l 1
 444 335 l 2
 445 266 445 207 445 158 c 0
 445 102 434 64 411 44 c 0
 389 25 342 15 271 16 c 2
 204 16 l 2
 131 15 83 25 62 46 c 0
 41 67 31 105 31 158 c 2
 31 205 l 1
 31 205 39 205 54 205 c 0
 70 205 78 205 78 205 c 1
EndSplineSet
EndChar

StartChar: afii10086
Encoding: 1092 1092 140
Width: 774
Flags: W
LayerCount: 2
Fore
SplineSet
438 650 m 1
 438 650 456 650 492 650 c 2
 561 650 l 2
 608 650 631 631 631 594 c 2
 631 511 l 1
 631 438 l 2
 631 413 621 399 602 396 c 0
 583 393 565 392 547 392 c 0
 520 392 495 392 472 391 c 0
 449 391 438 391 438 391 c 1
 438 650 l 1
390 709 m 1
 390 755 l 1
 390 755 401 755 424 755 c 2
 564 755 l 2
 635 755 681 745 703 725 c 0
 726 706 737 669 737 614 c 2
 737 614 737 536 737 425 c 0
 737 370 726 332 705 312 c 0
 684 293 643 283 580 283 c 2
 438 283 l 1
 438 16 l 1
 390 16 l 1
 390 62 l 1
 390 330 l 1
 488 330 l 2
 528 330 548 330 548 330 c 2
 608 328 647 335 664 352 c 0
 681 369 690 393 690 425 c 2
 690 425 690 448 690 495 c 2
 690 614 l 2
 690 677 659 709 563 709 c 2
 390 709 l 1
390 343 m 1
 390 343 408 343 444 344 c 0
 480 345 520 344 563 343 c 0
 652 342 678 373 678 424 c 2
 678 530 l 2
 678 575 678 598 678 598 c 2
 678 673 642 696 561 697 c 2
 445 697 l 2
 408 697 390 697 390 697 c 1
 390 343 l 1
330 650 m 1
 330 391 l 1
 330 391 319 391 296 391 c 0
 273 392 249 392 222 392 c 0
 203 392 185 393 166 396 c 0
 147 399 138 412 138 437 c 2
 138 511 l 1
 138 594 l 2
 138 631 161 650 208 650 c 2
 276 650 l 2
 312 650 330 650 330 650 c 1
390 709 m 1
 390 755 l 1
 390 755 377 755 350 755 c 2
 204 755 l 2
 133 755 87 745 64 725 c 0
 42 706 31 669 31 614 c 2
 31 614 31 536 31 425 c 0
 31 370 41 332 62 312 c 0
 83 293 126 283 189 283 c 2
 330 283 l 1
 331 16 l 1
 390 16 l 1
 390 63 l 1
 378 63 l 1
 378 330 l 1
 280 330 l 2
 241 330 221 330 221 330 c 2
 160 328 121 335 104 352 c 0
 87 369 79 393 78 425 c 2
 78 425 78 448 78 495 c 2
 78 614 l 2
 78 677 110 709 206 709 c 2
 390 709 l 1
378 343 m 1
 378 697 l 1
 378 697 360 697 323 697 c 2
 208 697 l 2
 125 696 91 673 91 598 c 2
 91 598 91 575 91 530 c 2
 91 424 l 2
 91 373 117 342 205 343 c 0
 249 344 289 345 324 344 c 0
 360 343 378 343 378 343 c 1
EndSplineSet
EndChar

StartChar: afii10087
Encoding: 1093 1093 141
Width: 678
Flags: W
LayerCount: 2
Fore
SplineSet
338 390 m 1
 338 441 l 1
 356 442 l 2
 359 442 369 453 373 456 c 0
 402 491 424 537 444 585 c 0
 462 629 482 668 503 702 c 0
 524 737 535 754 535 754 c 1
 594 754 l 2
 629 754 646 754 646 754 c 1
 646 754 640 743 628 720 c 2
 589 646 l 2
 575 619 562 595 551 572 c 0
 540 549 534 538 534 538 c 2
 533 538 472 384 430 380 c 1
 455 371 476 347 494 309 c 0
 513 271 526 243 534 226 c 2
 646 10 l 1
 535 10 l 1
 535 10 525 26 506 57 c 0
 487 88 466 129 444 180 c 0
 435 199 425 222 412 247 c 0
 400 273 387 293 373 308 c 0
 349 332 339 330 339 330 c 1
 339 330 339 338 338 355 c 0
 338 372 338 381 338 381 c 1
 367 380 391 366 408 339 c 0
 425 312 444 278 464 238 c 0
 504 158 545 90 561 58 c 1
 561 58 574 58 574 58 c 1
 569 69 556 92 535 128 c 0
 515 164 496 201 477 240 c 0
 430 339 401 381 362 382 c 1
 387 381 409 400 430 437 c 0
 451 475 467 504 477 524 c 0
 505 581 542 647 574 706 c 1
 561 706 l 1
 561 706 549 683 524 638 c 0
 499 593 479 555 464 526 c 0
 440 478 417 428 386 401 c 0
 385 401 385 401 385 401 c 1
 371 394 355 390 338 390 c 1
338 332 m 1
 338 330 l 1
 321 330 l 2
 316 327 311 321 304 314 c 0
 275 281 254 234 234 186 c 0
 215 141 194 102 173 67 c 0
 152 33 142 16 142 16 c 1
 82 16 l 2
 48 16 31 16 31 16 c 1
 31 16 37 27 48 49 c 2
 87 124 l 2
 102 151 115 176 126 199 c 0
 138 222 144 233 144 233 c 2
 145 233 205 386 246 390 c 1
 222 399 201 423 182 461 c 0
 164 499 151 527 144 544 c 2
 31 761 l 1
 142 761 l 1
 142 761 152 745 171 713 c 0
 190 682 211 641 234 591 c 0
 250 552 275 493 304 462 c 0
 328 438 338 441 338 441 c 1
 338 441 338 440 338 440 c 2
 338 417 338 390 338 390 c 1
 309 390 286 404 269 431 c 0
 252 458 233 492 213 532 c 0
 172 612 132 681 117 712 c 1
 117 712 103 712 103 712 c 1
 108 702 120 679 141 642 c 0
 162 606 181 569 200 530 c 0
 247 433 276 391 315 388 c 1
 290 389 267 371 246 333 c 0
 225 296 210 267 200 246 c 0
 172 187 134 124 103 65 c 1
 117 65 l 1
 117 65 129 87 153 132 c 0
 178 177 198 215 213 245 c 0
 237 292 260 343 292 370 c 0
 305 377 321 380 338 381 c 1
 338 332 l 1
EndSplineSet
EndChar

StartChar: afii10088
Encoding: 1094 1094 142
Width: 585
Flags: W
LayerCount: 2
Fore
SplineSet
90 119 m 1
 404 122 l 1
 404 756 l 1
 510 756 l 1
 510 122 l 1
 558 122 l 1
 558 -63 l 1
 454 -62 l 1
 454 16 l 1
 90 16 l 1
 90 63 l 1
 499 63 l 1
 499 -16 l 1
 510 -15 l 1
 510 63 l 1
 510 74 l 1
 462 74 l 1
 462 709 l 1
 451 709 l 1
 450 74 l 1
 90 74 l 1
 90 119 l 1
78 63 m 1
 78 709 l 1
 90 709 l 1
 90 119 l 1
 94 120 l 1
 136 128 l 1
 137 756 l 1
 31 756 l 1
 31 16 l 1
 90 16 l 1
 90 63 l 1
 78 63 l 1
EndSplineSet
EndChar

StartChar: afii10089
Encoding: 1095 1095 143
Width: 462
Flags: W
LayerCount: 2
Fore
SplineSet
382 755 m 1
 390 755 l 1
 390 708 l 1
 390 708 379 708 379 708 c 1
 379 708 379 693 379 663 c 2
 379 564 l 2
 380 528 380 495 380 465 c 0
 381 436 381 421 381 421 c 2
 382 380 368 357 340 351 c 0
 312 346 287 342 266 341 c 2
 266 341 262 337 206 341 c 0
 193 342 172 344 144 348 c 0
 116 352 99 371 92 406 c 0
 91 407 91 422 90 453 c 2
 90 556 l 2
 90 593 90 627 89 658 c 2
 89 708 l 1
 89 708 78 708 78 708 c 1
 78 658 l 1
 78 555 l 1
 78 453 l 1
 78 405 l 1
 83 364 103 342 137 337 c 0
 172 332 194 330 203 330 c 0
 242 329 261 328 261 329 c 0
 262 330 264 330 268 330 c 0
 318 329 349 336 362 349 c 0
 375 362 382 369 382 369 c 1
 382 229 382 172 382 172 c 1
 382 105 l 2
 382 78 382 64 382 64 c 1
 394 64 l 1
 394 64 394 56 394 40 c 0
 394 24 394 16 394 16 c 1
 394 16 384 16 365 16 c 0
 346 16 336 16 336 16 c 2
 335 16 335 169 335 177 c 2
 335 222 l 1
 335 286 l 1
 335 286 305 282 270 282 c 2
 202 282 l 2
 125 280 77 291 58 316 c 0
 39 341 31 377 32 424 c 0
 33 533 31 644 31 755 c 1
 31 755 48 755 83 754 c 0
 118 754 135 754 135 754 c 2
 134 753 134 736 134 705 c 2
 134 603 l 1
 134 501 l 2
 135 470 135 454 135 453 c 0
 136 405 152 383 229 388 c 1
 229 388 239 387 266 387 c 0
 301 386 321 394 327 410 c 0
 333 426 336 437 336 444 c 2
 334 610 l 1
 334 755 l 1
 334 755 342 755 358 755 c 0
 374 755 382 755 382 755 c 1
394 157 m 0
 394 176 394 210 393 259 c 2
 393 423 l 1
 391 545 l 2
 391 590 391 613 391 613 c 2
 390 632 390 661 390 698 c 0
 390 736 390 755 390 755 c 1
 390 755 398 755 414 755 c 0
 431 755 439 755 439 755 c 1
 439 755 440 724 440 613 c 2
 440 494 l 1
 440 343 l 1
 440 212 l 2
 440 175 440 157 440 157 c 1
 440 61 l 2
 440 31 440 16 440 16 c 1
 440 16 432 16 417 16 c 0
 402 16 394 16 394 16 c 1
 394 16 394 152 394 157 c 0
EndSplineSet
EndChar

StartChar: afii10090
Encoding: 1096 1096 144
Width: 806
Flags: W
LayerCount: 2
Fore
SplineSet
90 120 m 1
 346 122 l 1
 346 756 l 1
 452 756 l 1
 452 120 l 1
 662 121 l 1
 662 755 l 1
 767 755 l 1
 767 15 l 1
 90 16 l 1
 90 63 l 1
 404 63 l 1
 719 62 l 1
 719 708 l 1
 709 708 l 1
 709 74 l 1
 404 74 l 1
 404 709 l 1
 394 709 l 1
 394 74 l 1
 90 74 l 1
 90 120 l 1
78 63 m 1
 78 709 l 1
 90 709 l 1
 90 120 l 1
 94 120 l 1
 136 128 l 1
 137 756 l 1
 32 756 l 1
 32 16 l 1
 90 16 l 1
 90 63 l 1
 78 63 l 1
EndSplineSet
EndChar

StartChar: afii10091
Encoding: 1097 1097 145
Width: 855
Flags: W
LayerCount: 2
Fore
SplineSet
90 119 m 1
 346 121 l 1
 346 755 l 1
 452 755 l 1
 452 119 l 1
 662 121 l 1
 662 755 l 1
 767 755 l 1
 767 121 l 1
 814 121 l 1
 814 -64 l 1
 711 -63 l 1
 711 15 l 1
 90 16 l 1
 90 63 l 1
 404 62 l 1
 719 62 l 1
 756 62 l 1
 756 -17 l 1
 767 -16 l 1
 767 74 l 1
 719 74 l 1
 719 708 l 1
 709 708 l 1
 709 74 l 1
 404 74 l 1
 404 708 l 1
 394 708 l 1
 394 74 l 1
 90 74 l 1
 90 119 l 1
78 709 m 1
 78 63 l 1
 90 63 l 1
 90 16 l 1
 31 16 l 1
 31 756 l 1
 137 756 l 1
 136 128 l 1
 94 120 l 1
 90 119 l 1
 90 709 l 1
 78 709 l 1
EndSplineSet
EndChar

StartChar: afii10092
Encoding: 1098 1098 146
Width: 542
Flags: W
LayerCount: 2
Fore
SplineSet
169 74 m 1
 169 412 l 1
 169 412 187 412 222 411 c 0
 258 411 298 411 342 412 c 0
 430 415 456 381 456 332 c 2
 456 233 l 2
 456 193 456 173 456 173 c 2
 456 98 423 74 339 74 c 2
 223 74 l 2
 187 74 169 74 169 74 c 1
110 755 m 1
 217 755 l 1
 217 710 l 1
 216 698 l 1
 169 698 l 1
 169 709 l 1
 157 709 l 1
 78 709 l 1
 78 698 l 1
 157 698 l 1
 157 62 l 1
 342 62 l 2
 438 62 470 94 470 157 c 0
 470 188 470 225 469 267 c 0
 469 309 469 330 469 330 c 2
 468 362 459 386 442 403 c 0
 425 420 387 427 326 425 c 2
 326 425 306 425 267 425 c 2
 169 425 l 1
 169 698 l 1
 216 698 l 1
 217 472 l 1
 358 472 l 2
 421 472 463 462 484 442 c 0
 505 423 516 385 516 330 c 0
 516 219 516 158 516 158 c 2
 516 102 505 64 483 44 c 0
 461 25 414 15 343 16 c 0
 200 16 110 16 110 16 c 1
 110 652 l 1
 31 652 l 1
 31 756 l 1
 110 755 l 1
217 365 m 1
 217 122 l 1
 217 122 235 122 271 121 c 2
 339 121 l 2
 386 120 410 139 410 178 c 2
 410 251 l 1
 410 318 l 2
 410 343 400 356 381 359 c 0
 362 362 344 363 326 363 c 0
 299 363 274 363 251 364 c 0
 228 365 217 365 217 365 c 1
EndSplineSet
EndChar

StartChar: afii10093
Encoding: 1099 1099 147
Width: 608
Flags: W
LayerCount: 2
Fore
SplineSet
138 365 m 1
 138 122 l 1
 138 122 156 122 192 122 c 2
 261 122 l 2
 308 121 331 139 331 178 c 2
 331 251 l 1
 331 318 l 2
 331 343 321 356 302 359 c 0
 283 362 265 364 247 364 c 2
 172 364 l 2
 149 365 138 365 138 365 c 1
32 756 m 1
 138 755 l 1
 138 710 l 1
 138 698 l 1
 90 698 l 1
 90 709 l 1
 79 709 l 1
 79 63 l 1
 263 63 l 2
 359 63 391 94 391 158 c 0
 391 189 391 225 390 267 c 0
 390 310 390 331 390 331 c 2
 390 362 381 386 364 403 c 0
 347 420 308 427 248 425 c 2
 248 425 228 425 189 425 c 2
 90 425 l 1
 90 698 l 1
 138 698 l 1
 138 472 l 1
 281 472 l 2
 344 472 385 462 406 443 c 0
 427 424 438 386 438 330 c 0
 438 221 438 158 438 158 c 2
 438 103 427 65 404 45 c 0
 382 26 336 16 265 16 c 0
 122 16 31 16 31 16 c 1
 32 756 l 1
90 75 m 1
 91 413 l 1
 91 413 109 413 144 412 c 0
 180 411 220 412 264 413 c 0
 352 414 378 383 378 332 c 2
 378 234 l 2
 378 194 378 174 378 174 c 2
 378 98 343 75 262 75 c 0
 221 74 182 74 145 74 c 0
 108 75 90 75 90 75 c 1
472 755 m 1
 579 756 l 1
 579 698 l 1
 531 698 l 1
 531 710 l 1
 519 709 l 1
 520 65 l 1
 532 65 l 1
 531 698 l 1
 579 698 l 1
 578 16 l 1
 520 16 l 1
 520 16 512 16 496 16 c 0
 480 16 472 16 472 16 c 1
 472 755 l 1
EndSplineSet
EndChar

StartChar: afii10094
Encoding: 1100 1100 148
Width: 459
Flags: W
LayerCount: 2
Fore
SplineSet
90 75 m 1
 91 413 l 1
 91 413 109 413 144 412 c 0
 180 411 220 412 264 413 c 0
 352 414 378 383 378 332 c 2
 378 234 l 2
 378 194 378 174 378 174 c 2
 378 98 343 75 262 75 c 0
 221 74 182 74 145 74 c 0
 108 75 90 75 90 75 c 1
32 756 m 1
 138 755 l 1
 138 710 l 1
 138 698 l 1
 90 698 l 1
 90 709 l 1
 79 709 l 1
 79 63 l 1
 263 63 l 2
 359 63 391 94 391 158 c 0
 391 189 391 225 390 267 c 0
 390 310 390 331 390 331 c 2
 390 362 381 386 364 403 c 0
 347 420 308 427 248 425 c 2
 248 425 228 425 189 425 c 2
 90 425 l 1
 90 698 l 1
 138 698 l 1
 138 472 l 1
 281 472 l 2
 344 472 385 462 406 443 c 0
 427 424 438 386 438 330 c 0
 438 221 438 158 438 158 c 2
 438 103 427 65 404 45 c 0
 382 26 336 16 265 16 c 0
 122 16 31 16 31 16 c 1
 32 756 l 1
138 365 m 1
 138 122 l 1
 138 122 156 122 192 122 c 2
 261 122 l 2
 308 121 331 139 331 178 c 2
 331 251 l 1
 331 318 l 2
 331 343 321 356 302 359 c 0
 283 362 265 364 247 364 c 2
 172 364 l 2
 149 365 138 365 138 365 c 1
EndSplineSet
EndChar

StartChar: afii10095
Encoding: 1101 1101 149
Width: 517
Flags: W
LayerCount: 2
Fore
SplineSet
207 696 m 2
 207 696 228 693 317 696 c 0
 404 697 430 666 430 615 c 2
 430 508 l 1
 430 438 l 2
 430 417 430 406 430 406 c 1
 430 406 408 406 363 406 c 2
 253 406 l 1
 253 406 248 394 253 394 c 0
 312 389 370 394 430 394 c 1
 430 341 430 291 431 244 c 0
 432 197 433 174 433 174 c 2
 433 98 399 75 316 75 c 0
 233 74 208 75 208 75 c 2
 175 76 148 81 127 90 c 0
 106 99 95 122 92 158 c 1
 92 158 78 158 78 158 c 1
 78 205 l 1
 138 205 l 1
 138 178 l 2
 138 151 147 135 166 128 c 0
 185 122 206 120 231 122 c 2
 273 122 l 1
 316 122 l 2
 329 121 344 124 361 130 c 0
 378 136 386 152 386 178 c 0
 386 201 386 235 385 280 c 0
 385 325 385 347 385 347 c 2
 385 346 206 346 206 346 c 1
 206 346 206 364 206 399 c 0
 206 434 206 452 206 452 c 2
 206 451 385 451 384 451 c 2
 384 528 l 1
 384 602 l 2
 383 627 373 640 354 642 c 0
 335 645 317 646 300 647 c 2
 261 647 l 1
 223 647 l 2
 168 647 140 645 139 602 c 2
 139 567 l 1
 93 567 l 1
 78 567 l 1
 78 614 l 1
 93 614 l 1
 93 615 l 2
 93 683 142 696 207 696 c 2
78 205 m 1
 78 158 l 2
 78 140 84 119 96 96 c 0
 108 73 145 62 206 63 c 2
 318 63 l 2
 414 63 446 94 446 158 c 2
 446 158 446 182 445 229 c 0
 445 276 445 328 444 385 c 0
 444 442 444 495 443 542 c 0
 443 590 443 614 443 614 c 2
 442 646 433 670 416 686 c 0
 399 703 361 710 301 708 c 2
 253 708 l 2
 243 709 227 709 206 709 c 0
 194 707 70 719 78 614 c 1
 78 567 l 1
 31 567 l 1
 32 614 l 1
 29 677 43 716 72 731 c 0
 101 746 145 755 204 756 c 2
 333 756 l 2
 396 756 439 746 460 726 c 0
 481 707 492 669 492 614 c 2
 492 158 l 2
 492 103 481 65 459 45 c 0
 437 26 390 16 319 16 c 2
 245 16 l 1
 204 16 l 2
 131 15 83 26 62 47 c 0
 41 68 31 105 32 158 c 2
 31 205 l 1
 31 205 39 205 54 205 c 0
 70 205 78 205 78 205 c 1
EndSplineSet
EndChar

StartChar: afii10096
Encoding: 1102 1102 150
Width: 736
Flags: W
LayerCount: 2
Fore
SplineSet
500 122 m 2
 541 119 566 124 576 135 c 0
 587 147 593 161 594 178 c 2
 594 178 594 200 593 244 c 0
 593 288 593 336 592 389 c 2
 592 535 l 2
 592 580 592 602 592 602 c 2
 589 639 572 650 508 647 c 2
 508 647 495 647 470 647 c 2
 394 647 l 2
 375 647 357 646 338 643 c 0
 319 640 310 627 310 602 c 0
 310 594 310 569 309 528 c 0
 309 487 309 442 308 393 c 2
 308 257 l 1
 308 178 l 2
 308 140 331 121 378 122 c 2
 446 122 l 2
 482 122 500 122 500 122 c 2
560 709 m 1
 560 756 l 1
 609 755 645 745 667 727 c 0
 690 709 701 671 700 614 c 2
 700 158 l 2
 700 105 689 68 668 47 c 0
 647 26 600 16 527 17 c 2
 466 17 l 1
 374 17 l 2
 303 16 256 26 234 45 c 0
 212 65 201 103 201 158 c 2
 201 334 l 1
 138 334 l 1
 138 16 l 1
 31 16 l 1
 32 756 l 1
 138 756 l 1
 138 698 l 1
 138 441 l 1
 201 441 l 1
 201 614 l 2
 201 669 212 707 233 726 c 0
 255 746 297 756 360 756 c 2
 560 756 l 1
 560 709 l 1
 392 709 l 2
 332 710 293 703 276 686 c 0
 259 670 250 646 250 614 c 2
 250 614 250 597 250 562 c 2
 250 441 l 1
 249 394 l 1
 91 394 l 1
 90 710 l 1
 78 709 l 1
 79 65 l 1
 91 65 l 1
 90 382 l 1
 249 382 l 1
 248 158 l 2
 247 94 279 63 375 63 c 2
 526 63 l 2
 587 62 624 73 635 96 c 0
 647 119 653 140 654 158 c 2
 651 614 l 2
 651 662 638 689 612 696 c 2
 560 709 l 1
524 696 m 2
 556 696 583 691 605 681 c 0
 627 671 638 649 638 616 c 2
 640 174 l 2
 639 131 628 104 607 93 c 0
 586 82 558 76 523 75 c 2
 523 75 458 75 378 75 c 0
 294 75 261 98 261 174 c 2
 261 174 261 195 261 236 c 0
 262 277 262 324 262 376 c 2
 262 525 l 2
 262 573 262 603 263 616 c 0
 263 665 288 699 377 696 c 0
 464 693 524 696 524 696 c 2
EndSplineSet
EndChar

StartChar: afii10097
Encoding: 1103 1103 151
Width: 495
Flags: W
LayerCount: 2
Fore
SplineSet
364 406 m 1
 364 650 l 1
 364 650 346 650 310 650 c 2
 242 650 l 2
 195 650 172 631 172 594 c 2
 172 519 l 1
 172 453 l 2
 172 428 181 415 200 412 c 0
 219 409 237 408 256 408 c 0
 282 408 306 408 329 407 c 0
 352 406 364 406 364 406 c 1
471 16 m 1
 365 16 l 1
 365 62 l 1
 365 74 l 1
 412 73 l 1
 412 62 l 1
 424 62 l 1
 424 709 l 1
 239 709 l 2
 143 709 112 677 112 614 c 2
 112 503 l 2
 113 462 113 441 113 441 c 2
 113 409 121 385 138 368 c 0
 155 351 194 344 254 346 c 2
 254 346 255 346 256 346 c 2
 256 346 231 313 200 246 c 0
 169 177 126 109 103 65 c 1
 103 65 117 65 117 65 c 1
 124 81 137 106 156 139 c 0
 175 172 194 208 213 245 c 0
 238 300 269 346 270 346 c 2
 338 346 l 1
 412 346 l 1
 412 73 l 1
 365 74 l 1
 365 299 l 1
 292 299 l 1
 267 266 250 223 234 186 c 0
 206 121 171 61 142 16 c 1
 32 16 l 1
 32 16 38 27 49 49 c 0
 60 72 73 97 87 124 c 0
 102 151 115 176 126 199 c 0
 138 222 144 233 144 233 c 1
 160 272 175 301 175 301 c 1
 88 309 66 346 66 441 c 0
 66 550 66 614 66 614 c 2
 66 669 77 706 99 725 c 0
 121 745 167 755 238 755 c 0
 381 754 471 755 471 755 c 1
 471 16 l 1
413 696 m 1
 412 359 l 1
 412 359 394 359 358 359 c 0
 323 360 283 360 239 359 c 0
 151 358 125 390 125 439 c 2
 125 537 l 2
 125 578 125 598 125 598 c 2
 125 673 158 696 242 697 c 0
 282 697 320 697 357 696 c 0
 394 696 413 696 413 696 c 1
EndSplineSet
EndChar

StartChar: afii10023
Encoding: 1025 1025 152
Width: 559
Flags: W
LayerCount: 2
Fore
SplineSet
417 965 m 1
 336 965 l 1
 327 1122 l 1
 427 1122 l 1
 417 965 l 1
371 1093 m 1
 369 995 l 1
 383 994 l 1
 384 1092 l 1
 371 1093 l 1
218 964 m 1
 138 964 l 1
 127 1122 l 1
 225 1122 l 1
 218 964 l 1
41 945 m 1
 531 945 l 1
 531 886 l 1
 532 871 l 1
 472 871 l 1
 472 886 l 1
 99 886 l 1
 99 80 l 1
 473 79 l 1
 473 93 l 1
 113 93 l 1
 113 517 l 1
 472 517 l 1
 472 530 l 1
 113 532 l 1
 113 871 l 1
 532 871 l 1
 531 812 l 1
 172 812 l 1
 172 591 l 1
 531 590 l 1
 531 457 l 1
 172 457 l 1
 173 152 l 1
 531 151 l 1
 531 21 l 1
 450 21 368 20 285 20 c 2
 39 20 l 1
 41 945 l 1
170 1092 m 1
 168 995 l 1
 182 994 l 1
 184 1092 l 1
 170 1092 l 1
EndSplineSet
EndChar

StartChar: afii10071
Encoding: 1105 1105 153
Width: 559
Flags: W
LayerCount: 2
Fore
SplineSet
417 965 m 1
 336 965 l 1
 327 1122 l 1
 427 1122 l 1
 417 965 l 1
371 1093 m 1
 369 995 l 1
 383 994 l 1
 384 1092 l 1
 371 1093 l 1
218 964 m 1
 138 964 l 1
 127 1122 l 1
 225 1122 l 1
 218 964 l 1
41 945 m 1
 531 945 l 1
 531 886 l 1
 532 871 l 1
 472 871 l 1
 472 886 l 1
 99 886 l 1
 99 80 l 1
 473 79 l 1
 473 93 l 1
 113 93 l 1
 113 517 l 1
 472 517 l 1
 472 530 l 1
 113 532 l 1
 113 871 l 1
 532 871 l 1
 531 812 l 1
 172 812 l 1
 172 591 l 1
 531 590 l 1
 531 457 l 1
 172 457 l 1
 173 152 l 1
 531 151 l 1
 531 21 l 1
 450 21 368 20 285 20 c 2
 39 20 l 1
 41 945 l 1
170 1092 m 1
 168 995 l 1
 182 994 l 1
 184 1092 l 1
 170 1092 l 1
EndSplineSet
EndChar

